<?xml version="1.0" encoding="UTF-8" standalone="no"?>
<!-- Created with Inkscape (http://www.inkscape.org/) -->

<svg
   version="1.1"
   id="svg2"
   xml:space="preserve"
   width="1122.4"
   height="793.59998"
   viewBox="0 0 1122.4 793.59998"
   sodipodi:docname="ErroresFase.svg"
   inkscape:version="1.1 (ce6663b3b7, 2021-05-25)"
   xmlns:inkscape="http://www.inkscape.org/namespaces/inkscape"
   xmlns:sodipodi="http://sodipodi.sourceforge.net/DTD/sodipodi-0.dtd"
   xmlns="http://www.w3.org/2000/svg"
   xmlns:svg="http://www.w3.org/2000/svg"><defs
     id="defs6"><clipPath
       clipPathUnits="userSpaceOnUse"
       id="clipPath140"><path
         d="M 51,95 H 791 V 500 H 51 Z"
         clip-rule="evenodd"
         id="path138" /></clipPath><clipPath
       clipPathUnits="userSpaceOnUse"
       id="clipPath152"><path
         d="M 51,95 H 791 V 500 H 51 Z"
         clip-rule="evenodd"
         id="path150" /></clipPath><clipPath
       clipPathUnits="userSpaceOnUse"
       id="clipPath164"><path
         d="M 51,95 H 791 V 500 H 51 Z"
         clip-rule="evenodd"
         id="path162" /></clipPath><clipPath
       clipPathUnits="userSpaceOnUse"
       id="clipPath176"><path
         d="M 51,95 H 791 V 500 H 51 Z"
         clip-rule="evenodd"
         id="path174" /></clipPath><clipPath
       clipPathUnits="userSpaceOnUse"
       id="clipPath188"><path
         d="M 51,95 H 791 V 500 H 51 Z"
         clip-rule="evenodd"
         id="path186" /></clipPath><clipPath
       clipPathUnits="userSpaceOnUse"
       id="clipPath200"><path
         d="M 51,95 H 791 V 500 H 51 Z"
         clip-rule="evenodd"
         id="path198" /></clipPath><clipPath
       clipPathUnits="userSpaceOnUse"
       id="clipPath212"><path
         d="M 51,95 H 791 V 500 H 51 Z"
         clip-rule="evenodd"
         id="path210" /></clipPath><clipPath
       clipPathUnits="userSpaceOnUse"
       id="clipPath224"><path
         d="M 51,95 H 791 V 500 H 51 Z"
         clip-rule="evenodd"
         id="path222" /></clipPath><clipPath
       clipPathUnits="userSpaceOnUse"
       id="clipPath236"><path
         d="M 51,95 H 791 V 500 H 51 Z"
         clip-rule="evenodd"
         id="path234" /></clipPath><clipPath
       clipPathUnits="userSpaceOnUse"
       id="clipPath248"><path
         d="M 51,95 H 791 V 500 H 51 Z"
         clip-rule="evenodd"
         id="path246" /></clipPath><clipPath
       clipPathUnits="userSpaceOnUse"
       id="clipPath260"><path
         d="M 51,95 H 791 V 500 H 51 Z"
         clip-rule="evenodd"
         id="path258" /></clipPath><clipPath
       clipPathUnits="userSpaceOnUse"
       id="clipPath272"><path
         d="M 790.92,500.05 V 95.042 H 50.931 V 500.05 Z"
         clip-rule="evenodd"
         id="path270" /></clipPath><clipPath
       clipPathUnits="userSpaceOnUse"
       id="clipPath282"><path
         d="M 790.92,500.05 V 95.042 H 50.931 V 500.05 Z"
         clip-rule="evenodd"
         id="path280" /></clipPath><clipPath
       clipPathUnits="userSpaceOnUse"
       id="clipPath292"><path
         d="M 790.92,500.05 V 95.042 H 50.931 V 500.05 Z"
         clip-rule="evenodd"
         id="path290" /></clipPath><clipPath
       clipPathUnits="userSpaceOnUse"
       id="clipPath302"><path
         d="M 790.92,500.05 V 95.042 H 50.931 V 500.05 Z"
         clip-rule="evenodd"
         id="path300" /></clipPath><clipPath
       clipPathUnits="userSpaceOnUse"
       id="clipPath312"><path
         d="M 790.92,500.05 V 95.042 H 50.931 V 500.05 Z"
         clip-rule="evenodd"
         id="path310" /></clipPath><clipPath
       clipPathUnits="userSpaceOnUse"
       id="clipPath322"><path
         d="M 790.92,500.05 V 95.042 H 50.931 V 500.05 Z"
         clip-rule="evenodd"
         id="path320" /></clipPath><clipPath
       clipPathUnits="userSpaceOnUse"
       id="clipPath332"><path
         d="M 790.92,500.05 V 95.042 H 50.93 V 500.05 Z"
         clip-rule="evenodd"
         id="path330" /></clipPath><clipPath
       clipPathUnits="userSpaceOnUse"
       id="clipPath342"><path
         d="M 790.92,500.05 V 95.042 H 50.931 L 50.93,500.05 Z"
         clip-rule="evenodd"
         id="path340" /></clipPath><clipPath
       clipPathUnits="userSpaceOnUse"
       id="clipPath352"><path
         d="M 790.92,500.05 V 95.042 H 50.931 L 50.93,500.05 Z"
         clip-rule="evenodd"
         id="path350" /></clipPath><clipPath
       clipPathUnits="userSpaceOnUse"
       id="clipPath362"><path
         d="M 51,95 H 791 V 500 H 51 Z"
         clip-rule="evenodd"
         id="path360" /></clipPath><clipPath
       clipPathUnits="userSpaceOnUse"
       id="clipPath384"><path
         d="M 51,95 H 791 V 500 H 51 Z"
         clip-rule="evenodd"
         id="path382" /></clipPath><clipPath
       clipPathUnits="userSpaceOnUse"
       id="clipPath402"><path
         d="M 51,95 H 791 V 500 H 51 Z"
         clip-rule="evenodd"
         id="path400" /></clipPath><clipPath
       clipPathUnits="userSpaceOnUse"
       id="clipPath420"><path
         d="M 51,95 H 791 V 500 H 51 Z"
         clip-rule="evenodd"
         id="path418" /></clipPath><clipPath
       clipPathUnits="userSpaceOnUse"
       id="clipPath432"><path
         d="M 50.2,94.4 H 791.6 V 500.8 H 50.2 Z"
         clip-rule="evenodd"
         id="path430" /></clipPath></defs><sodipodi:namedview
     id="namedview4"
     pagecolor="#ffffff"
     bordercolor="#666666"
     borderopacity="1.0"
     inkscape:pageshadow="2"
     inkscape:pageopacity="0.0"
     inkscape:pagecheckerboard="0"
     showgrid="false"
     inkscape:zoom="1.0597279"
     inkscape:cx="560.99309"
     inkscape:cy="396.79999"
     inkscape:window-width="1920"
     inkscape:window-height="1056"
     inkscape:window-x="1366"
     inkscape:window-y="24"
     inkscape:window-maximized="1"
     inkscape:current-layer="g8" /><g
     id="g8"
     inkscape:groupmode="layer"
     inkscape:label="ErroresFase"
     transform="matrix(1.3333333,0,0,-1.3333333,0,793.6)"><path
       d="m 50.931,95.042 h 739.98 v 405.01 H 50.931 Z"
       style="fill:#ffffff;fill-opacity:1;fill-rule:evenodd;stroke:none"
       id="path10" /><path
       d="M 105.58,192.66 H 770.16 M 105.58,251.39 H 770.16 M 105.58,280.75 H 770.16 M 105.58,310.1 h 664.58 m -664.58,29.36 h 664.58 m -664.58,29.36 h 664.58 m -664.58,29.36 h 664.58 m -664.58,29.36 h 664.58 m -664.58,29.71 h 664.58 m -664.58,29.22 h 664.58"
       style="fill:none;stroke:#d9d9d9;stroke-width:1.3265;stroke-linecap:butt;stroke-linejoin:round;stroke-miterlimit:10;stroke-dasharray:none;stroke-opacity:1"
       id="path12" /><path
       d="M 105.58,486.47 V 192.66 m 36.96,293.81 V 192.66 m 36.79,293.81 V 192.66 m 37.14,293.81 V 192.66 m 36.79,293.81 V 192.66 m 36.79,293.81 V 192.66 m 37.14,293.81 V 192.66 m 36.78,293.81 V 192.66 m 37.14,293.81 V 192.66 M 437.9,486.47 V 192.66 m 36.79,293.81 V 192.66 m 37.14,293.81 V 192.66 m 36.79,293.81 V 192.66 M 585.4,486.47 V 192.66 m 37.14,293.81 V 192.66 m 36.79,293.81 V 192.66 m 37.14,293.81 V 192.66 m 36.79,293.81 V 192.66 m 36.9,293.81 V 192.66"
       style="fill:none;stroke:#f2f2f2;stroke-width:1.3265;stroke-linecap:butt;stroke-linejoin:round;stroke-miterlimit:10;stroke-dasharray:none;stroke-opacity:1"
       id="path14" /><path
       d="m 105.58,192.66 h 664.58 v 293.8 H 105.58 Z"
       style="fill:none;stroke:#000000;stroke-width:1.3265;stroke-linecap:butt;stroke-linejoin:round;stroke-miterlimit:10;stroke-dasharray:none;stroke-opacity:1"
       id="path16" /><path
       d="M 105.58,222.04 H 770.16"
       style="fill:none;stroke:#d9d9d9;stroke-width:1.3265;stroke-linecap:butt;stroke-linejoin:round;stroke-miterlimit:10;stroke-dasharray:none;stroke-opacity:1"
       id="path18" /><path
       d="m 142.5,222.14 73.97,4.13 73.58,44.57 73.92,93.38 73.93,53 73.93,-53 73.57,-93.03 73.93,-44.92 73.91,-4.13"
       style="fill:none;stroke:#4472c4;stroke-width:3.9794;stroke-linecap:round;stroke-linejoin:round;stroke-miterlimit:10;stroke-dasharray:none;stroke-opacity:1"
       id="path20" /><path
       d="m 146.79,222.2 c 0,-2.44 -1.98,-4.42 -4.42,-4.42 -2.44,0 -4.42,1.98 -4.42,4.42 0,2.45 1.98,4.43 4.42,4.43 2.44,0 4.42,-1.98 4.42,-4.43 z"
       style="fill:#4472c4;fill-opacity:1;fill-rule:nonzero;stroke:none"
       id="path22" /><path
       d="m 146.79,222.2 c 0,-2.44 -1.98,-4.42 -4.42,-4.42 -2.44,0 -4.42,1.98 -4.42,4.42 0,2.45 1.98,4.43 4.42,4.43 2.44,0 4.42,-1.98 4.42,-4.43 z"
       style="fill:none;stroke:#4472c4;stroke-width:1.3265;stroke-linecap:butt;stroke-linejoin:round;stroke-miterlimit:10;stroke-dasharray:none;stroke-opacity:1"
       id="path24" /><path
       d="m 220.72,226.45 c 0,-2.44 -1.98,-4.42 -4.42,-4.42 -2.45,0 -4.43,1.98 -4.43,4.42 0,2.44 1.98,4.42 4.43,4.42 2.44,0 4.42,-1.98 4.42,-4.42 z"
       style="fill:#4472c4;fill-opacity:1;fill-rule:nonzero;stroke:none"
       id="path26" /><path
       d="m 220.72,226.45 c 0,-2.44 -1.98,-4.42 -4.42,-4.42 -2.45,0 -4.43,1.98 -4.43,4.42 0,2.44 1.98,4.42 4.43,4.42 2.44,0 4.42,-1.98 4.42,-4.42 z"
       style="fill:none;stroke:#4472c4;stroke-width:1.3265;stroke-linecap:butt;stroke-linejoin:round;stroke-miterlimit:10;stroke-dasharray:none;stroke-opacity:1"
       id="path28" /><path
       d="m 294.29,271.02 c 0,-2.44 -1.98,-4.42 -4.42,-4.42 -2.44,0 -4.42,1.98 -4.42,4.42 0,2.44 1.98,4.42 4.42,4.42 2.44,0 4.42,-1.98 4.42,-4.42 z"
       style="fill:#4472c4;fill-opacity:1;fill-rule:nonzero;stroke:none"
       id="path30" /><path
       d="m 294.29,271.02 c 0,-2.44 -1.98,-4.42 -4.42,-4.42 -2.44,0 -4.42,1.98 -4.42,4.42 0,2.44 1.98,4.42 4.42,4.42 2.44,0 4.42,-1.98 4.42,-4.42 z"
       style="fill:none;stroke:#4472c4;stroke-width:1.3265;stroke-linecap:butt;stroke-linejoin:round;stroke-miterlimit:10;stroke-dasharray:none;stroke-opacity:1"
       id="path32" /><path
       d="m 368.22,364.4 c 0,-2.44 -1.98,-4.42 -4.42,-4.42 -2.44,0 -4.42,1.98 -4.42,4.42 0,2.44 1.98,4.42 4.42,4.42 2.44,0 4.42,-1.98 4.42,-4.42 z"
       style="fill:#4472c4;fill-opacity:1;fill-rule:nonzero;stroke:none"
       id="path34" /><path
       d="m 368.22,364.4 c 0,-2.44 -1.98,-4.42 -4.42,-4.42 -2.44,0 -4.42,1.98 -4.42,4.42 0,2.44 1.98,4.42 4.42,4.42 2.44,0 4.42,-1.98 4.42,-4.42 z"
       style="fill:none;stroke:#4472c4;stroke-width:1.3265;stroke-linecap:butt;stroke-linejoin:round;stroke-miterlimit:10;stroke-dasharray:none;stroke-opacity:1"
       id="path36" /><path
       d="m 442.15,417.46 c 0,-2.44 -1.98,-4.42 -4.43,-4.42 -2.44,0 -4.42,1.98 -4.42,4.42 0,2.44 1.98,4.42 4.42,4.42 2.45,0 4.43,-1.98 4.43,-4.42 z"
       style="fill:#4472c4;fill-opacity:1;fill-rule:nonzero;stroke:none"
       id="path38" /><path
       d="m 442.15,417.46 c 0,-2.44 -1.98,-4.42 -4.43,-4.42 -2.44,0 -4.42,1.98 -4.42,4.42 0,2.44 1.98,4.42 4.42,4.42 2.45,0 4.43,-1.98 4.43,-4.42 z"
       style="fill:none;stroke:#4472c4;stroke-width:1.3265;stroke-linecap:butt;stroke-linejoin:round;stroke-miterlimit:10;stroke-dasharray:none;stroke-opacity:1"
       id="path40" /><path
       d="m 516.07,364.4 c 0,-2.44 -1.98,-4.42 -4.42,-4.42 -2.44,0 -4.42,1.98 -4.42,4.42 0,2.44 1.98,4.42 4.42,4.42 2.44,0 4.42,-1.98 4.42,-4.42 z"
       style="fill:#4472c4;fill-opacity:1;fill-rule:nonzero;stroke:none"
       id="path42" /><path
       d="m 516.07,364.4 c 0,-2.44 -1.98,-4.42 -4.42,-4.42 -2.44,0 -4.42,1.98 -4.42,4.42 0,2.44 1.98,4.42 4.42,4.42 2.44,0 4.42,-1.98 4.42,-4.42 z"
       style="fill:none;stroke:#4472c4;stroke-width:1.3265;stroke-linecap:butt;stroke-linejoin:round;stroke-miterlimit:10;stroke-dasharray:none;stroke-opacity:1"
       id="path44" /><path
       d="m 589.65,271.37 c 0,-2.44 -1.98,-4.42 -4.42,-4.42 -2.45,0 -4.42,1.98 -4.42,4.42 0,2.44 1.97,4.42 4.42,4.42 2.44,0 4.42,-1.98 4.42,-4.42 z"
       style="fill:#4472c4;fill-opacity:1;fill-rule:nonzero;stroke:none"
       id="path46" /><path
       d="m 589.65,271.37 c 0,-2.44 -1.98,-4.42 -4.42,-4.42 -2.45,0 -4.42,1.98 -4.42,4.42 0,2.44 1.97,4.42 4.42,4.42 2.44,0 4.42,-1.98 4.42,-4.42 z"
       style="fill:none;stroke:#4472c4;stroke-width:1.3265;stroke-linecap:butt;stroke-linejoin:round;stroke-miterlimit:10;stroke-dasharray:none;stroke-opacity:1"
       id="path48" /><path
       d="m 663.58,226.45 c 0,-2.44 -1.98,-4.42 -4.43,-4.42 -2.44,0 -4.42,1.98 -4.42,4.42 0,2.44 1.98,4.42 4.42,4.42 2.45,0 4.43,-1.98 4.43,-4.42 z"
       style="fill:#4472c4;fill-opacity:1;fill-rule:nonzero;stroke:none"
       id="path50" /><path
       d="m 663.58,226.45 c 0,-2.44 -1.98,-4.42 -4.43,-4.42 -2.44,0 -4.42,1.98 -4.42,4.42 0,2.44 1.98,4.42 4.42,4.42 2.45,0 4.43,-1.98 4.43,-4.42 z"
       style="fill:none;stroke:#4472c4;stroke-width:1.3265;stroke-linecap:butt;stroke-linejoin:round;stroke-miterlimit:10;stroke-dasharray:none;stroke-opacity:1"
       id="path52" /><path
       d="m 737.5,222.2 c 0,-2.44 -1.98,-4.42 -4.42,-4.42 -2.44,0 -4.42,1.98 -4.42,4.42 0,2.45 1.98,4.43 4.42,4.43 2.44,0 4.42,-1.98 4.42,-4.43 z"
       style="fill:#4472c4;fill-opacity:1;fill-rule:nonzero;stroke:none"
       id="path54" /><path
       d="m 737.5,222.2 c 0,-2.44 -1.98,-4.42 -4.42,-4.42 -2.44,0 -4.42,1.98 -4.42,4.42 0,2.45 1.98,4.43 4.42,4.43 2.44,0 4.42,-1.98 4.42,-4.43 z"
       style="fill:none;stroke:#4472c4;stroke-width:1.3265;stroke-linecap:butt;stroke-linejoin:round;stroke-miterlimit:10;stroke-dasharray:none;stroke-opacity:1"
       id="path56" /><path
       d="m 142.5,417.13 73.97,-98.18 73.58,-96.9 73.92,97.6 73.93,97.48 73.93,-97.48 73.57,-97.6 73.93,97.6 73.91,97.48"
       style="fill:none;stroke:#ed7d31;stroke-width:3.9794;stroke-linecap:round;stroke-linejoin:round;stroke-miterlimit:10;stroke-dasharray:none;stroke-opacity:1"
       id="path58" /><path
       d="m 137.95,413.04 h 8.843 v 8.843 h -8.843 z"
       style="fill:#ed7d31;fill-opacity:1;fill-rule:nonzero;stroke:none"
       id="path60" /><path
       d="m 137.95,413.04 h 8.843 v 8.843 h -8.843 z"
       style="fill:none;stroke:#ed7d31;stroke-width:1.3265;stroke-linecap:butt;stroke-linejoin:round;stroke-miterlimit:10;stroke-dasharray:none;stroke-opacity:1"
       id="path62" /><path
       d="m 211.87,314.7 h 8.843 v 8.843 h -8.843 z"
       style="fill:#ed7d31;fill-opacity:1;fill-rule:nonzero;stroke:none"
       id="path64" /><path
       d="m 211.87,314.7 h 8.843 v 8.843 h -8.843 z"
       style="fill:none;stroke:#ed7d31;stroke-width:1.3265;stroke-linecap:butt;stroke-linejoin:round;stroke-miterlimit:10;stroke-dasharray:none;stroke-opacity:1"
       id="path66" /><path
       d="m 285.45,217.78 h 8.843 v 8.843 h -8.843 z"
       style="fill:#ed7d31;fill-opacity:1;fill-rule:nonzero;stroke:none"
       id="path68" /><path
       d="m 285.45,217.78 h 8.843 v 8.843 h -8.843 z"
       style="fill:none;stroke:#ed7d31;stroke-width:1.3265;stroke-linecap:butt;stroke-linejoin:round;stroke-miterlimit:10;stroke-dasharray:none;stroke-opacity:1"
       id="path70" /><path
       d="m 359.38,315.41 h 8.843 v 8.843 h -8.843 z"
       style="fill:#ed7d31;fill-opacity:1;fill-rule:nonzero;stroke:none"
       id="path72" /><path
       d="m 359.38,315.41 h 8.843 v 8.843 h -8.843 z"
       style="fill:none;stroke:#ed7d31;stroke-width:1.3265;stroke-linecap:butt;stroke-linejoin:round;stroke-miterlimit:10;stroke-dasharray:none;stroke-opacity:1"
       id="path74" /><path
       d="m 433.3,413.04 h 8.843 v 8.843 H 433.3 Z"
       style="fill:#ed7d31;fill-opacity:1;fill-rule:nonzero;stroke:none"
       id="path76" /><path
       d="m 433.3,413.04 h 8.843 v 8.843 H 433.3 Z"
       style="fill:none;stroke:#ed7d31;stroke-width:1.3265;stroke-linecap:butt;stroke-linejoin:round;stroke-miterlimit:10;stroke-dasharray:none;stroke-opacity:1"
       id="path78" /><path
       d="m 507.23,315.41 h 8.843 v 8.843 h -8.843 z"
       style="fill:#ed7d31;fill-opacity:1;fill-rule:nonzero;stroke:none"
       id="path80" /><path
       d="m 507.23,315.41 h 8.843 v 8.843 h -8.843 z"
       style="fill:none;stroke:#ed7d31;stroke-width:1.3265;stroke-linecap:butt;stroke-linejoin:round;stroke-miterlimit:10;stroke-dasharray:none;stroke-opacity:1"
       id="path82" /><path
       d="m 580.81,217.78 h 8.843 v 8.843 h -8.843 z"
       style="fill:#ed7d31;fill-opacity:1;fill-rule:nonzero;stroke:none"
       id="path84" /><path
       d="m 580.81,217.78 h 8.843 v 8.843 h -8.843 z"
       style="fill:none;stroke:#ed7d31;stroke-width:1.3265;stroke-linecap:butt;stroke-linejoin:round;stroke-miterlimit:10;stroke-dasharray:none;stroke-opacity:1"
       id="path86" /><path
       d="m 654.73,315.41 h 8.843 v 8.843 h -8.843 z"
       style="fill:#ed7d31;fill-opacity:1;fill-rule:nonzero;stroke:none"
       id="path88" /><path
       d="m 654.73,315.41 h 8.843 v 8.843 h -8.843 z"
       style="fill:none;stroke:#ed7d31;stroke-width:1.3265;stroke-linecap:butt;stroke-linejoin:round;stroke-miterlimit:10;stroke-dasharray:none;stroke-opacity:1"
       id="path90" /><path
       d="m 728.66,413.04 h 8.843 v 8.843 h -8.843 z"
       style="fill:#ed7d31;fill-opacity:1;fill-rule:nonzero;stroke:none"
       id="path92" /><path
       d="m 728.66,413.04 h 8.843 v 8.843 h -8.843 z"
       style="fill:none;stroke:#ed7d31;stroke-width:1.3265;stroke-linecap:butt;stroke-linejoin:round;stroke-miterlimit:10;stroke-dasharray:none;stroke-opacity:1"
       id="path94" /><path
       d="m 142.5,417.89 h 73.97 73.58 73.92 73.93 73.93 73.57 73.93 73.91"
       style="fill:none;stroke:#70ad47;stroke-width:3.9794;stroke-linecap:round;stroke-linejoin:round;stroke-miterlimit:10;stroke-dasharray:none;stroke-opacity:1"
       id="path96" /><path
       d="m 142.54,422.23 4.25,-8.49 h -8.49 z"
       style="fill:#70ad47;fill-opacity:1;fill-rule:nonzero;stroke:none"
       id="path98" /><path
       d="m 142.54,422.23 4.25,-8.49 h -8.49 z"
       style="fill:none;stroke:#a5a5a5;stroke-width:1.3265;stroke-linecap:butt;stroke-linejoin:round;stroke-miterlimit:10;stroke-dasharray:none;stroke-opacity:1"
       id="path100" /><path
       d="m 216.47,422.23 4.25,-8.49 h -8.49 z"
       style="fill:#70ad47;fill-opacity:1;fill-rule:nonzero;stroke:none"
       id="path102" /><path
       d="m 216.47,422.23 4.25,-8.49 h -8.49 z"
       style="fill:none;stroke:#a5a5a5;stroke-width:1.3265;stroke-linecap:butt;stroke-linejoin:round;stroke-miterlimit:10;stroke-dasharray:none;stroke-opacity:1"
       id="path104" /><path
       d="m 290.05,422.23 4.24,-8.49 h -8.49 z"
       style="fill:#70ad47;fill-opacity:1;fill-rule:nonzero;stroke:none"
       id="path106" /><path
       d="m 290.05,422.23 4.24,-8.49 h -8.49 z"
       style="fill:none;stroke:#a5a5a5;stroke-width:1.3265;stroke-linecap:butt;stroke-linejoin:round;stroke-miterlimit:10;stroke-dasharray:none;stroke-opacity:1"
       id="path108" /><path
       d="m 363.97,422.23 4.25,-8.49 h -8.49 z"
       style="fill:#70ad47;fill-opacity:1;fill-rule:nonzero;stroke:none"
       id="path110" /><path
       d="m 363.97,422.23 4.25,-8.49 h -8.49 z"
       style="fill:none;stroke:#a5a5a5;stroke-width:1.3265;stroke-linecap:butt;stroke-linejoin:round;stroke-miterlimit:10;stroke-dasharray:none;stroke-opacity:1"
       id="path112" /><path
       d="m 437.9,422.23 4.25,-8.49 h -8.49 z"
       style="fill:#70ad47;fill-opacity:1;fill-rule:nonzero;stroke:none"
       id="path114" /><path
       d="m 437.9,422.23 4.25,-8.49 h -8.49 z"
       style="fill:none;stroke:#a5a5a5;stroke-width:1.3265;stroke-linecap:butt;stroke-linejoin:round;stroke-miterlimit:10;stroke-dasharray:none;stroke-opacity:1"
       id="path116" /><path
       d="m 511.83,422.23 4.24,-8.49 h -8.49 z"
       style="fill:#70ad47;fill-opacity:1;fill-rule:nonzero;stroke:none"
       id="path118" /><path
       d="m 511.83,422.23 4.24,-8.49 h -8.49 z"
       style="fill:none;stroke:#a5a5a5;stroke-width:1.3265;stroke-linecap:butt;stroke-linejoin:round;stroke-miterlimit:10;stroke-dasharray:none;stroke-opacity:1"
       id="path120" /><path
       d="m 585.4,422.23 4.25,-8.49 h -8.49 z"
       style="fill:#70ad47;fill-opacity:1;fill-rule:nonzero;stroke:none"
       id="path122" /><path
       d="m 585.4,422.23 4.25,-8.49 h -8.49 z"
       style="fill:none;stroke:#a5a5a5;stroke-width:1.3265;stroke-linecap:butt;stroke-linejoin:round;stroke-miterlimit:10;stroke-dasharray:none;stroke-opacity:1"
       id="path124" /><path
       d="m 659.33,422.23 4.25,-8.49 h -8.49 z"
       style="fill:#70ad47;fill-opacity:1;fill-rule:nonzero;stroke:none"
       id="path126" /><path
       d="m 659.33,422.23 4.25,-8.49 h -8.49 z"
       style="fill:none;stroke:#a5a5a5;stroke-width:1.3265;stroke-linecap:butt;stroke-linejoin:round;stroke-miterlimit:10;stroke-dasharray:none;stroke-opacity:1"
       id="path128" /><path
       d="m 733.26,422.23 4.24,-8.49 h -8.49 z"
       style="fill:#70ad47;fill-opacity:1;fill-rule:nonzero;stroke:none"
       id="path130" /><path
       d="m 733.26,422.23 4.24,-8.49 h -8.49 z"
       style="fill:none;stroke:#a5a5a5;stroke-width:1.3265;stroke-linecap:butt;stroke-linejoin:round;stroke-miterlimit:10;stroke-dasharray:none;stroke-opacity:1"
       id="path132" /><g
       id="g134"><g
         id="g136"
         clip-path="url(#clipPath140)"><text
           transform="matrix(1,0,0,-1,65.85,187.9)"
           style="font-variant:normal;font-weight:normal;font-size:15.925px;font-family:Calibri;-inkscape-font-specification:Calibri;writing-mode:lr-tb;fill:#595959;fill-opacity:1;fill-rule:nonzero;stroke:none"
           id="text144"><tspan
             x="0 4.9367499 13.074425 16.976049"
             y="0"
             sodipodi:role="line"
             id="tspan142">-0,2</tspan></text></g></g><g
       id="g146"><g
         id="g148"
         clip-path="url(#clipPath152)"><text
           transform="matrix(1,0,0,-1,82.775,217.3)"
           style="font-variant:normal;font-weight:normal;font-size:15.925px;font-family:Calibri;-inkscape-font-specification:Calibri;writing-mode:lr-tb;fill:#595959;fill-opacity:1;fill-rule:nonzero;stroke:none"
           id="text156"><tspan
             x="0"
             y="0"
             id="tspan154">0</tspan></text></g></g><g
       id="g158"><g
         id="g160"
         clip-path="url(#clipPath164)"><text
           transform="matrix(1,0,0,-1,70.725,246.7)"
           style="font-variant:normal;font-weight:normal;font-size:15.925px;font-family:Calibri;-inkscape-font-specification:Calibri;writing-mode:lr-tb;fill:#595959;fill-opacity:1;fill-rule:nonzero;stroke:none"
           id="text168"><tspan
             x="0 8.1376753 12.0393"
             y="0"
             sodipodi:role="line"
             id="tspan166">0,2</tspan></text></g></g><g
       id="g170"><g
         id="g172"
         clip-path="url(#clipPath176)"><text
           transform="matrix(1,0,0,-1,70.725,276.08)"
           style="font-variant:normal;font-weight:normal;font-size:15.925px;font-family:Calibri;-inkscape-font-specification:Calibri;writing-mode:lr-tb;fill:#595959;fill-opacity:1;fill-rule:nonzero;stroke:none"
           id="text180"><tspan
             x="0 8.1376753 12.0393"
             y="0"
             sodipodi:role="line"
             id="tspan178">0,4</tspan></text></g></g><g
       id="g182"><g
         id="g184"
         clip-path="url(#clipPath188)"><text
           transform="matrix(1,0,0,-1,70.725,305.48)"
           style="font-variant:normal;font-weight:normal;font-size:15.925px;font-family:Calibri;-inkscape-font-specification:Calibri;writing-mode:lr-tb;fill:#595959;fill-opacity:1;fill-rule:nonzero;stroke:none"
           id="text192"><tspan
             x="0 8.1376753 12.0393"
             y="0"
             sodipodi:role="line"
             id="tspan190">0,6</tspan></text></g></g><g
       id="g194"><g
         id="g196"
         clip-path="url(#clipPath200)"><text
           transform="matrix(1,0,0,-1,70.725,334.85)"
           style="font-variant:normal;font-weight:normal;font-size:15.9px;font-family:Calibri;-inkscape-font-specification:Calibri;writing-mode:lr-tb;fill:#595959;fill-opacity:1;fill-rule:nonzero;stroke:none"
           id="text204"><tspan
             x="0 8.1408005 12.0363"
             y="0"
             sodipodi:role="line"
             id="tspan202">0,8</tspan></text></g></g><g
       id="g206"><g
         id="g208"
         clip-path="url(#clipPath212)"><text
           transform="matrix(1,0,0,-1,82.775,364.25)"
           style="font-variant:normal;font-weight:normal;font-size:15.925px;font-family:Calibri;-inkscape-font-specification:Calibri;writing-mode:lr-tb;fill:#595959;fill-opacity:1;fill-rule:nonzero;stroke:none"
           id="text216"><tspan
             x="0"
             y="0"
             id="tspan214">1</tspan></text></g></g><g
       id="g218"><g
         id="g220"
         clip-path="url(#clipPath224)"><text
           transform="matrix(1,0,0,-1,70.725,393.65)"
           style="font-variant:normal;font-weight:normal;font-size:15.925px;font-family:Calibri;-inkscape-font-specification:Calibri;writing-mode:lr-tb;fill:#595959;fill-opacity:1;fill-rule:nonzero;stroke:none"
           id="text228"><tspan
             x="0 8.1376753 12.0393"
             y="0"
             sodipodi:role="line"
             id="tspan226">1,2</tspan></text></g></g><g
       id="g230"><g
         id="g232"
         clip-path="url(#clipPath236)"><text
           transform="matrix(1,0,0,-1,70.725,423.03)"
           style="font-variant:normal;font-weight:normal;font-size:15.925px;font-family:Calibri;-inkscape-font-specification:Calibri;writing-mode:lr-tb;fill:#595959;fill-opacity:1;fill-rule:nonzero;stroke:none"
           id="text240"><tspan
             x="0 8.1376753 12.0393"
             y="0"
             sodipodi:role="line"
             id="tspan238">1,4</tspan></text></g></g><g
       id="g242"><g
         id="g244"
         clip-path="url(#clipPath248)"><text
           transform="matrix(1,0,0,-1,70.725,452.43)"
           style="font-variant:normal;font-weight:normal;font-size:15.925px;font-family:Calibri;-inkscape-font-specification:Calibri;writing-mode:lr-tb;fill:#595959;fill-opacity:1;fill-rule:nonzero;stroke:none"
           id="text252"><tspan
             x="0 8.1376753 12.0393"
             y="0"
             sodipodi:role="line"
             id="tspan250">1,6</tspan></text></g></g><g
       id="g254"><g
         id="g256"
         clip-path="url(#clipPath260)"><text
           transform="matrix(1,0,0,-1,70.725,481.83)"
           style="font-variant:normal;font-weight:normal;font-size:15.925px;font-family:Calibri;-inkscape-font-specification:Calibri;writing-mode:lr-tb;fill:#595959;fill-opacity:1;fill-rule:nonzero;stroke:none"
           id="text264"><tspan
             x="0 8.1376753 12.0393"
             y="0"
             sodipodi:role="line"
             id="tspan262">1,8</tspan></text></g></g><g
       id="g266"><g
         id="g268"
         clip-path="url(#clipPath272)"><path
           d="m 146.18,168.52 c -0.74,-0.42 -1.45,-0.76 -2.13,-0.99 -0.68,-0.24 -1.32,-0.35 -1.92,-0.33 -0.6,0.01 -1.15,0.17 -1.64,0.47 -0.5,0.3 -0.93,0.77 -1.3,1.41 -0.35,0.61 -0.54,1.19 -0.56,1.73 -0.03,0.54 0.1,1.06 0.37,1.56 0.28,0.49 0.69,0.97 1.25,1.44 0.55,0.46 1.23,0.92 2.02,1.38 0.74,0.43 1.45,0.76 2.14,1 0.68,0.23 1.32,0.34 1.92,0.33 0.6,-0.02 1.14,-0.17 1.64,-0.47 0.49,-0.3 0.92,-0.77 1.29,-1.41 0.36,-0.61 0.55,-1.19 0.57,-1.73 0.02,-0.54 -0.1,-1.06 -0.38,-1.56 -0.27,-0.5 -0.69,-0.98 -1.24,-1.44 -0.55,-0.46 -1.23,-0.92 -2.03,-1.39 z m -0.85,1.27 c 0.49,0.28 0.91,0.55 1.27,0.8 0.37,0.26 0.68,0.51 0.93,0.74 0.26,0.24 0.46,0.47 0.61,0.7 0.15,0.23 0.25,0.46 0.3,0.69 0.05,0.23 0.05,0.46 0,0.69 -0.04,0.22 -0.14,0.46 -0.28,0.7 -0.24,0.42 -0.54,0.71 -0.89,0.86 -0.35,0.15 -0.75,0.19 -1.18,0.15 -0.44,-0.05 -0.91,-0.19 -1.41,-0.4 -0.5,-0.22 -1.02,-0.48 -1.56,-0.79 -0.72,-0.42 -1.31,-0.81 -1.78,-1.18 -0.46,-0.37 -0.8,-0.72 -1.03,-1.07 -0.22,-0.34 -0.34,-0.69 -0.34,-1.02 0,-0.34 0.11,-0.68 0.32,-1.04 0.16,-0.28 0.34,-0.5 0.56,-0.66 0.21,-0.16 0.44,-0.27 0.7,-0.32 0.25,-0.06 0.52,-0.07 0.82,-0.03 0.29,0.03 0.59,0.1 0.91,0.2 0.32,0.11 0.65,0.25 1,0.41 0.34,0.17 0.69,0.36 1.05,0.57 z m 7.26,-4.03 c -0.24,-0.14 -0.5,-0.22 -0.77,-0.25 -0.26,-0.04 -0.53,-0.02 -0.78,0.06 -0.26,0.07 -0.5,0.2 -0.72,0.37 -0.22,0.18 -0.41,0.4 -0.56,0.66 -0.16,0.26 -0.25,0.53 -0.3,0.79 -0.04,0.27 -0.03,0.52 0.03,0.77 0.05,0.24 0.16,0.47 0.32,0.68 0.16,0.21 0.36,0.39 0.62,0.54 0.25,0.15 0.51,0.23 0.78,0.26 0.28,0.04 0.54,0.01 0.79,-0.07 0.25,-0.07 0.48,-0.2 0.7,-0.37 0.22,-0.17 0.41,-0.39 0.56,-0.66 0.15,-0.26 0.25,-0.52 0.29,-0.79 0.04,-0.27 0.03,-0.52 -0.02,-0.77 -0.06,-0.24 -0.16,-0.47 -0.32,-0.68 -0.16,-0.21 -0.36,-0.39 -0.62,-0.54 z m -0.57,0.93 c 0.13,0.08 0.25,0.17 0.34,0.28 0.09,0.12 0.15,0.24 0.19,0.37 0.04,0.12 0.05,0.26 0.04,0.39 -0.02,0.14 -0.06,0.28 -0.14,0.4 -0.07,0.13 -0.16,0.23 -0.27,0.31 -0.11,0.08 -0.23,0.14 -0.36,0.17 -0.13,0.03 -0.27,0.03 -0.41,0.01 -0.14,-0.02 -0.27,-0.07 -0.4,-0.14 -0.15,-0.09 -0.27,-0.18 -0.36,-0.3 -0.1,-0.11 -0.16,-0.24 -0.2,-0.37 -0.04,-0.13 -0.05,-0.26 -0.03,-0.4 0.02,-0.14 0.07,-0.28 0.14,-0.41 0.07,-0.12 0.16,-0.21 0.27,-0.29 0.11,-0.08 0.24,-0.13 0.37,-0.16 0.13,-0.03 0.27,-0.03 0.41,-0.01 0.14,0.02 0.27,0.07 0.41,0.15 z"
           style="fill:#595959;fill-opacity:1;fill-rule:nonzero;stroke:none"
           id="path274" /></g></g><g
       id="g276"><g
         id="g278"
         clip-path="url(#clipPath282)"><path
           d="m 217.97,167.22 c -0.17,-0.1 -0.31,-0.15 -0.43,-0.15 -0.13,-0.01 -0.22,0.04 -0.27,0.12 l -0.63,1.1 -2.03,-1.18 c -0.04,-0.02 -0.08,-0.03 -0.12,-0.03 -0.04,0.01 -0.08,0.03 -0.13,0.07 -0.05,0.04 -0.11,0.1 -0.16,0.18 -0.06,0.07 -0.13,0.17 -0.2,0.3 -0.07,0.13 -0.13,0.23 -0.16,0.32 -0.04,0.09 -0.07,0.16 -0.07,0.22 -0.01,0.06 -0.01,0.11 0.01,0.14 0.02,0.04 0.05,0.07 0.09,0.09 l 2.03,1.17 -2.29,3.96 c -0.03,0.06 -0.05,0.12 -0.06,0.16 -0.01,0.05 0,0.1 0.02,0.16 0.02,0.05 0.07,0.11 0.13,0.16 0.07,0.06 0.17,0.12 0.29,0.19 0.09,0.06 0.18,0.1 0.25,0.14 0.08,0.04 0.16,0.07 0.23,0.09 0.07,0.02 0.14,0.04 0.21,0.04 0.07,0.01 0.15,0.02 0.23,0.02 l 7.87,-0.05 c 0.06,-0.01 0.12,-0.02 0.17,-0.05 0.06,-0.04 0.12,-0.08 0.19,-0.15 0.06,-0.06 0.13,-0.15 0.2,-0.26 0.07,-0.1 0.15,-0.23 0.24,-0.39 0.1,-0.16 0.17,-0.31 0.23,-0.45 0.06,-0.13 0.11,-0.24 0.13,-0.32 0.02,-0.09 0.03,-0.17 0.02,-0.23 -0.01,-0.05 -0.03,-0.1 -0.08,-0.12 l -6.18,-3.57 0.63,-1.09 c 0.05,-0.09 0.05,-0.18 -0.01,-0.28 -0.05,-0.11 -0.17,-0.21 -0.35,-0.31 z m 4.3,6.03 -0.01,0.02 -7.1,0.04 1.8,-3.12 z m 0.21,-13.03 c -0.51,-0.3 -1.03,-0.48 -1.53,-0.53 -0.5,-0.06 -0.99,-0.01 -1.45,0.15 -0.46,0.16 -0.89,0.41 -1.29,0.77 -0.4,0.36 -0.75,0.81 -1.06,1.35 -0.18,0.3 -0.32,0.59 -0.43,0.89 -0.12,0.29 -0.2,0.56 -0.26,0.8 -0.06,0.25 -0.1,0.46 -0.11,0.63 -0.02,0.17 -0.03,0.28 -0.01,0.34 0.01,0.05 0.03,0.1 0.05,0.13 0.02,0.03 0.05,0.07 0.08,0.1 0.04,0.04 0.09,0.08 0.15,0.12 0.06,0.05 0.14,0.09 0.23,0.14 0.08,0.05 0.16,0.09 0.23,0.13 0.07,0.03 0.14,0.04 0.19,0.05 0.05,0 0.1,0 0.14,-0.02 0.03,-0.01 0.06,-0.04 0.08,-0.07 0.03,-0.05 0.04,-0.15 0.04,-0.29 0,-0.14 0.01,-0.32 0.04,-0.54 0.03,-0.22 0.09,-0.48 0.18,-0.78 0.08,-0.29 0.23,-0.62 0.44,-0.98 0.19,-0.34 0.41,-0.62 0.65,-0.85 0.24,-0.24 0.5,-0.41 0.79,-0.51 0.28,-0.1 0.59,-0.14 0.91,-0.11 0.32,0.04 0.67,0.16 1.04,0.37 0.31,0.18 0.55,0.39 0.73,0.62 0.18,0.24 0.3,0.5 0.34,0.79 0.04,0.3 0.01,0.62 -0.1,0.97 -0.1,0.36 -0.27,0.75 -0.52,1.18 -0.17,0.3 -0.34,0.55 -0.5,0.76 -0.15,0.2 -0.29,0.39 -0.4,0.58 -0.08,0.14 -0.1,0.26 -0.07,0.36 0.03,0.1 0.14,0.2 0.32,0.3 l 3.94,2.28 c 0.17,0.09 0.31,0.13 0.44,0.1 0.12,-0.04 0.22,-0.12 0.31,-0.27 l 2.47,-4.28 c 0.02,-0.04 0.04,-0.09 0.03,-0.14 0,-0.05 -0.01,-0.1 -0.04,-0.15 -0.03,-0.05 -0.08,-0.1 -0.14,-0.16 -0.06,-0.05 -0.14,-0.1 -0.24,-0.16 -0.18,-0.1 -0.33,-0.16 -0.46,-0.17 -0.13,-0.01 -0.21,0.03 -0.26,0.12 l -2,3.46 -2.72,-1.57 c 0.13,-0.16 0.24,-0.32 0.35,-0.49 0.1,-0.17 0.22,-0.37 0.36,-0.61 0.3,-0.53 0.51,-1.03 0.6,-1.51 0.1,-0.47 0.11,-0.91 0.02,-1.32 -0.09,-0.41 -0.26,-0.78 -0.53,-1.11 -0.26,-0.34 -0.61,-0.63 -1.03,-0.87 z m 8.55,-2.42 c -0.24,-0.14 -0.5,-0.23 -0.76,-0.26 -0.27,-0.03 -0.54,-0.01 -0.79,0.06 -0.26,0.08 -0.5,0.2 -0.72,0.38 -0.22,0.17 -0.41,0.39 -0.56,0.66 -0.15,0.26 -0.25,0.52 -0.3,0.79 -0.04,0.26 -0.03,0.52 0.03,0.76 0.05,0.25 0.16,0.48 0.32,0.69 0.16,0.21 0.36,0.39 0.62,0.53 0.25,0.15 0.51,0.24 0.79,0.27 0.27,0.03 0.53,0.01 0.78,-0.07 0.25,-0.08 0.49,-0.2 0.7,-0.38 0.22,-0.17 0.41,-0.39 0.56,-0.65 0.15,-0.26 0.25,-0.52 0.29,-0.79 0.04,-0.27 0.04,-0.53 -0.02,-0.77 -0.05,-0.25 -0.16,-0.47 -0.32,-0.68 -0.16,-0.22 -0.36,-0.39 -0.62,-0.54 z m -0.57,0.92 c 0.13,0.08 0.25,0.18 0.34,0.29 0.09,0.11 0.15,0.23 0.19,0.36 0.04,0.13 0.05,0.26 0.04,0.4 -0.02,0.14 -0.06,0.27 -0.14,0.4 -0.07,0.12 -0.16,0.23 -0.27,0.31 -0.11,0.08 -0.23,0.13 -0.36,0.16 -0.13,0.03 -0.27,0.04 -0.41,0.02 -0.14,-0.02 -0.27,-0.07 -0.4,-0.15 -0.15,-0.08 -0.27,-0.18 -0.36,-0.29 -0.09,-0.12 -0.16,-0.24 -0.2,-0.37 -0.03,-0.13 -0.04,-0.27 -0.03,-0.41 0.02,-0.14 0.07,-0.27 0.14,-0.4 0.07,-0.12 0.16,-0.22 0.27,-0.3 0.11,-0.08 0.24,-0.13 0.37,-0.16 0.13,-0.02 0.27,-0.03 0.41,0 0.14,0.02 0.27,0.07 0.41,0.14 z"
           style="fill:#595959;fill-opacity:1;fill-rule:nonzero;stroke:none"
           id="path284" /></g></g><g
       id="g286"><g
         id="g288"
         clip-path="url(#clipPath292)"><path
           d="m 294.08,168.98 c -0.42,-0.24 -0.85,-0.46 -1.31,-0.66 -0.46,-0.2 -0.92,-0.35 -1.39,-0.46 -0.46,-0.11 -0.93,-0.16 -1.39,-0.16 -0.46,0 -0.91,0.08 -1.35,0.24 -0.43,0.15 -0.85,0.4 -1.24,0.74 -0.39,0.33 -0.74,0.78 -1.07,1.34 -0.12,0.21 -0.23,0.43 -0.32,0.65 -0.08,0.21 -0.16,0.42 -0.21,0.6 -0.05,0.19 -0.09,0.35 -0.11,0.48 -0.02,0.14 -0.02,0.24 0,0.32 0.01,0.07 0.05,0.15 0.12,0.21 0.06,0.07 0.16,0.14 0.29,0.22 0.11,0.06 0.2,0.11 0.27,0.14 0.07,0.03 0.12,0.04 0.17,0.05 0.04,0 0.08,0 0.1,-0.02 0.03,-0.02 0.06,-0.05 0.08,-0.09 0.03,-0.06 0.06,-0.15 0.08,-0.27 0.02,-0.12 0.05,-0.27 0.09,-0.45 0.05,-0.18 0.11,-0.38 0.19,-0.6 0.08,-0.23 0.19,-0.47 0.34,-0.72 0.28,-0.49 0.61,-0.85 1,-1.09 0.39,-0.24 0.8,-0.37 1.24,-0.41 0.44,-0.04 0.9,0.01 1.38,0.14 0.48,0.12 0.95,0.32 1.41,0.57 -0.31,0.18 -0.63,0.41 -0.96,0.71 -0.33,0.3 -0.64,0.69 -0.91,1.17 -0.31,0.54 -0.5,1.03 -0.57,1.49 -0.06,0.45 -0.03,0.86 0.1,1.23 0.12,0.36 0.33,0.7 0.63,1 0.29,0.3 0.64,0.56 1.06,0.8 0.42,0.25 0.87,0.42 1.33,0.52 0.46,0.1 0.91,0.1 1.35,0.01 0.45,-0.1 0.88,-0.3 1.29,-0.6 0.41,-0.31 0.78,-0.75 1.11,-1.32 0.23,-0.4 0.39,-0.79 0.46,-1.16 0.08,-0.37 0.09,-0.73 0.03,-1.07 -0.06,-0.34 -0.18,-0.67 -0.36,-0.98 -0.18,-0.32 -0.41,-0.63 -0.7,-0.92 -0.29,-0.3 -0.62,-0.58 -1,-0.86 -0.37,-0.27 -0.78,-0.54 -1.23,-0.79 z m -0.61,1.39 c 0.64,0.37 1.15,0.72 1.54,1.06 0.39,0.33 0.67,0.66 0.84,0.98 0.18,0.32 0.25,0.64 0.23,0.94 -0.01,0.31 -0.11,0.62 -0.3,0.94 -0.18,0.32 -0.4,0.57 -0.65,0.73 -0.25,0.16 -0.52,0.26 -0.8,0.29 -0.28,0.03 -0.57,0.01 -0.85,-0.06 -0.29,-0.08 -0.57,-0.19 -0.84,-0.34 -0.29,-0.17 -0.54,-0.36 -0.75,-0.56 -0.21,-0.2 -0.36,-0.43 -0.45,-0.66 -0.08,-0.24 -0.11,-0.5 -0.07,-0.78 0.03,-0.27 0.15,-0.58 0.34,-0.91 0.21,-0.37 0.48,-0.7 0.79,-0.98 0.32,-0.29 0.64,-0.5 0.97,-0.65 z m 4.82,-9.5 c -0.74,-0.43 -1.46,-0.77 -2.14,-1 -0.68,-0.24 -1.32,-0.35 -1.92,-0.33 -0.59,0.01 -1.14,0.17 -1.64,0.47 -0.49,0.3 -0.92,0.77 -1.3,1.42 -0.35,0.6 -0.53,1.18 -0.56,1.72 -0.02,0.54 0.1,1.06 0.38,1.56 0.27,0.5 0.69,0.98 1.24,1.44 0.56,0.46 1.23,0.92 2.03,1.38 0.74,0.43 1.45,0.76 2.13,1 0.69,0.23 1.33,0.34 1.93,0.33 0.59,-0.02 1.14,-0.17 1.63,-0.47 0.5,-0.3 0.93,-0.77 1.3,-1.41 0.35,-0.61 0.54,-1.19 0.57,-1.73 0.02,-0.54 -0.11,-1.06 -0.38,-1.56 -0.28,-0.5 -0.69,-0.98 -1.24,-1.44 -0.56,-0.46 -1.23,-0.92 -2.03,-1.38 z m -0.85,1.26 c 0.48,0.28 0.91,0.55 1.27,0.8 0.36,0.26 0.67,0.51 0.93,0.75 0.25,0.23 0.46,0.47 0.61,0.7 0.15,0.22 0.25,0.45 0.3,0.68 0.05,0.23 0.05,0.46 0,0.69 -0.05,0.23 -0.14,0.46 -0.28,0.7 -0.24,0.42 -0.54,0.71 -0.89,0.86 -0.36,0.15 -0.75,0.2 -1.19,0.15 -0.43,-0.05 -0.9,-0.18 -1.4,-0.4 -0.5,-0.22 -1.02,-0.48 -1.56,-0.79 -0.72,-0.42 -1.32,-0.81 -1.78,-1.18 -0.46,-0.36 -0.81,-0.72 -1.03,-1.07 -0.23,-0.34 -0.34,-0.68 -0.34,-1.02 0,-0.33 0.11,-0.68 0.31,-1.04 0.16,-0.28 0.35,-0.5 0.56,-0.66 0.21,-0.16 0.45,-0.27 0.7,-0.32 0.26,-0.06 0.53,-0.07 0.82,-0.03 0.29,0.03 0.6,0.1 0.92,0.21 0.32,0.1 0.65,0.24 0.99,0.41 0.35,0.17 0.7,0.35 1.06,0.56 z m 7.44,-4.33 c -0.25,-0.14 -0.5,-0.23 -0.77,-0.26 -0.27,-0.03 -0.53,-0.01 -0.79,0.06 -0.26,0.08 -0.5,0.2 -0.72,0.38 -0.22,0.17 -0.41,0.39 -0.56,0.66 -0.15,0.26 -0.25,0.52 -0.29,0.79 -0.05,0.26 -0.04,0.52 0.02,0.76 0.06,0.25 0.16,0.48 0.32,0.69 0.16,0.21 0.36,0.39 0.62,0.53 0.25,0.15 0.52,0.24 0.79,0.27 0.27,0.03 0.53,0.01 0.78,-0.07 0.25,-0.08 0.49,-0.2 0.71,-0.38 0.22,-0.17 0.4,-0.39 0.55,-0.65 0.15,-0.26 0.25,-0.52 0.29,-0.79 0.04,-0.27 0.04,-0.53 -0.02,-0.77 -0.05,-0.25 -0.16,-0.47 -0.32,-0.68 -0.15,-0.22 -0.36,-0.39 -0.61,-0.54 z m -0.58,0.92 c 0.14,0.08 0.25,0.18 0.34,0.29 0.09,0.11 0.16,0.23 0.2,0.36 0.03,0.13 0.05,0.26 0.03,0.4 -0.02,0.14 -0.06,0.27 -0.14,0.4 -0.07,0.12 -0.16,0.23 -0.27,0.31 -0.11,0.08 -0.23,0.13 -0.36,0.16 -0.13,0.03 -0.26,0.04 -0.41,0.02 -0.14,-0.02 -0.27,-0.07 -0.4,-0.15 -0.15,-0.08 -0.26,-0.18 -0.36,-0.29 -0.09,-0.12 -0.16,-0.24 -0.19,-0.37 -0.04,-0.13 -0.05,-0.27 -0.03,-0.41 0.01,-0.14 0.06,-0.27 0.13,-0.4 0.07,-0.12 0.16,-0.22 0.28,-0.3 0.11,-0.08 0.23,-0.13 0.36,-0.16 0.13,-0.02 0.27,-0.03 0.41,0 0.14,0.02 0.28,0.07 0.41,0.14 z"
           style="fill:#595959;fill-opacity:1;fill-rule:nonzero;stroke:none"
           id="path294" /></g></g><g
       id="g296"><g
         id="g298"
         clip-path="url(#clipPath302)"><path
           d="m 363.18,166.31 c -0.09,-0.05 -0.17,-0.09 -0.25,-0.11 -0.07,-0.03 -0.14,-0.04 -0.19,-0.04 -0.05,0.01 -0.1,0.02 -0.14,0.04 -0.03,0.02 -0.06,0.05 -0.08,0.09 l -2.92,5.05 c -0.02,0.04 -0.03,0.07 -0.03,0.11 0,0.04 0.01,0.09 0.04,0.14 0.02,0.05 0.06,0.1 0.12,0.15 0.05,0.06 0.13,0.11 0.22,0.16 0.09,0.06 0.18,0.09 0.25,0.12 0.07,0.02 0.14,0.03 0.19,0.03 0.06,0.01 0.11,0 0.15,-0.02 0.04,-0.02 0.07,-0.05 0.09,-0.09 l 1.17,-2.02 7.36,4.25 -2.2,1.22 c -0.1,0.07 -0.17,0.13 -0.22,0.18 -0.04,0.05 -0.06,0.1 -0.04,0.16 0.01,0.05 0.05,0.11 0.12,0.16 0.06,0.06 0.16,0.12 0.27,0.18 0.09,0.05 0.16,0.09 0.22,0.12 0.07,0.03 0.12,0.04 0.17,0.05 0.05,0.01 0.1,0.01 0.14,0 0.05,-0.01 0.1,-0.03 0.16,-0.06 l 2.71,-1.4 c 0.03,-0.01 0.05,-0.03 0.08,-0.06 0.03,-0.02 0.06,-0.05 0.1,-0.09 0.03,-0.04 0.07,-0.09 0.11,-0.15 0.03,-0.06 0.08,-0.13 0.13,-0.22 0.07,-0.12 0.12,-0.22 0.16,-0.31 0.03,-0.08 0.06,-0.15 0.06,-0.21 0.01,-0.05 0.01,-0.1 -0.01,-0.13 -0.02,-0.03 -0.04,-0.05 -0.07,-0.07 l -8.51,-4.91 1.01,-1.75 c 0.03,-0.04 0.04,-0.08 0.03,-0.13 0,-0.05 -0.01,-0.09 -0.04,-0.14 -0.03,-0.05 -0.08,-0.1 -0.13,-0.15 -0.06,-0.05 -0.14,-0.1 -0.23,-0.15 z m 6.63,-6.26 c -0.45,-0.25 -0.89,-0.41 -1.34,-0.46 -0.44,-0.05 -0.87,0 -1.3,0.14 -0.42,0.14 -0.82,0.39 -1.2,0.73 -0.38,0.34 -0.73,0.78 -1.04,1.32 -0.18,0.32 -0.33,0.64 -0.44,0.95 -0.11,0.31 -0.19,0.6 -0.25,0.86 -0.05,0.26 -0.08,0.49 -0.09,0.68 -0.01,0.19 0,0.31 0.01,0.37 0.01,0.05 0.03,0.1 0.06,0.14 0.02,0.04 0.05,0.08 0.09,0.13 0.04,0.04 0.1,0.09 0.17,0.14 0.07,0.05 0.15,0.1 0.26,0.16 0.18,0.11 0.31,0.16 0.4,0.16 0.09,0.01 0.16,-0.02 0.19,-0.09 0.03,-0.04 0.04,-0.16 0.04,-0.34 0,-0.18 0.01,-0.41 0.05,-0.67 0.03,-0.27 0.08,-0.56 0.17,-0.89 0.08,-0.33 0.22,-0.67 0.42,-1.02 0.2,-0.34 0.41,-0.61 0.65,-0.82 0.23,-0.2 0.47,-0.35 0.73,-0.43 0.25,-0.09 0.51,-0.11 0.77,-0.08 0.26,0.04 0.52,0.13 0.77,0.27 0.27,0.16 0.49,0.36 0.64,0.59 0.16,0.24 0.25,0.51 0.29,0.82 0.04,0.3 0.01,0.64 -0.09,1 -0.09,0.36 -0.25,0.74 -0.48,1.13 l -0.55,0.95 c -0.03,0.05 -0.04,0.09 -0.05,0.14 0,0.05 0.01,0.1 0.03,0.15 0.03,0.05 0.07,0.1 0.12,0.16 0.05,0.05 0.13,0.11 0.24,0.17 0.09,0.06 0.18,0.1 0.25,0.12 0.07,0.02 0.13,0.03 0.18,0.02 0.06,-0.01 0.1,-0.02 0.14,-0.05 0.04,-0.02 0.07,-0.06 0.09,-0.1 l 0.49,-0.85 c 0.19,-0.33 0.41,-0.6 0.64,-0.81 0.24,-0.21 0.49,-0.36 0.75,-0.45 0.27,-0.09 0.54,-0.12 0.82,-0.09 0.27,0.03 0.55,0.12 0.82,0.28 0.2,0.12 0.38,0.26 0.52,0.43 0.15,0.17 0.25,0.36 0.31,0.57 0.06,0.2 0.07,0.43 0.03,0.68 -0.04,0.24 -0.14,0.5 -0.29,0.76 -0.17,0.29 -0.36,0.53 -0.59,0.72 -0.23,0.2 -0.45,0.36 -0.65,0.49 -0.21,0.13 -0.4,0.23 -0.56,0.31 -0.16,0.07 -0.25,0.13 -0.28,0.18 -0.02,0.04 -0.03,0.07 -0.03,0.11 -0.01,0.03 0,0.07 0.03,0.11 0.03,0.04 0.07,0.08 0.14,0.13 0.06,0.04 0.15,0.1 0.26,0.16 0.07,0.04 0.14,0.08 0.2,0.11 0.06,0.03 0.11,0.05 0.17,0.05 0.05,0.01 0.1,0.02 0.14,0.02 0.05,0 0.11,-0.01 0.18,-0.03 0.08,-0.02 0.2,-0.08 0.38,-0.17 0.17,-0.09 0.36,-0.22 0.57,-0.38 0.21,-0.16 0.42,-0.36 0.64,-0.61 0.22,-0.24 0.42,-0.52 0.61,-0.84 0.26,-0.45 0.43,-0.87 0.51,-1.28 0.08,-0.4 0.08,-0.78 0,-1.13 -0.08,-0.35 -0.23,-0.66 -0.46,-0.94 -0.22,-0.28 -0.51,-0.52 -0.87,-0.73 -0.3,-0.17 -0.61,-0.3 -0.91,-0.37 -0.31,-0.07 -0.61,-0.09 -0.9,-0.05 -0.29,0.04 -0.58,0.13 -0.85,0.27 -0.27,0.14 -0.52,0.35 -0.74,0.61 l -0.02,-0.01 c 0.16,-0.35 0.25,-0.71 0.28,-1.06 0.03,-0.35 0,-0.69 -0.08,-1 -0.09,-0.32 -0.23,-0.61 -0.43,-0.87 -0.2,-0.27 -0.46,-0.49 -0.76,-0.67 z m 4.96,-7.79 c -0.52,-0.3 -1.03,-0.48 -1.54,-0.54 -0.5,-0.06 -0.98,-0.01 -1.44,0.15 -0.47,0.16 -0.9,0.42 -1.3,0.78 -0.39,0.36 -0.75,0.8 -1.06,1.34 -0.17,0.3 -0.32,0.6 -0.43,0.89 -0.11,0.29 -0.2,0.56 -0.26,0.81 -0.06,0.25 -0.09,0.45 -0.11,0.62 -0.02,0.17 -0.02,0.28 -0.01,0.34 0.01,0.06 0.03,0.1 0.05,0.14 0.02,0.03 0.05,0.06 0.09,0.1 0.03,0.04 0.08,0.08 0.14,0.12 0.07,0.04 0.14,0.09 0.23,0.14 0.09,0.05 0.16,0.09 0.24,0.12 0.07,0.03 0.13,0.05 0.18,0.05 0.06,0.01 0.1,0 0.14,-0.01 0.03,-0.02 0.06,-0.04 0.08,-0.08 0.03,-0.05 0.04,-0.14 0.04,-0.28 0,-0.15 0.02,-0.32 0.05,-0.54 0.02,-0.22 0.08,-0.48 0.17,-0.78 0.09,-0.3 0.23,-0.63 0.44,-0.99 0.19,-0.33 0.41,-0.62 0.65,-0.85 0.24,-0.23 0.5,-0.4 0.79,-0.5 0.29,-0.11 0.59,-0.14 0.91,-0.11 0.33,0.03 0.67,0.16 1.04,0.37 0.31,0.18 0.56,0.38 0.74,0.62 0.18,0.23 0.29,0.5 0.33,0.79 0.04,0.29 0.01,0.61 -0.09,0.97 -0.1,0.35 -0.28,0.74 -0.53,1.17 -0.17,0.31 -0.34,0.56 -0.49,0.76 -0.16,0.2 -0.29,0.4 -0.4,0.59 -0.08,0.14 -0.11,0.26 -0.08,0.35 0.03,0.1 0.14,0.2 0.32,0.31 l 3.95,2.27 c 0.16,0.1 0.3,0.13 0.43,0.1 0.12,-0.03 0.23,-0.12 0.31,-0.26 l 2.47,-4.29 c 0.03,-0.04 0.04,-0.08 0.04,-0.13 0,-0.05 -0.02,-0.1 -0.05,-0.16 -0.03,-0.05 -0.08,-0.1 -0.14,-0.15 -0.06,-0.05 -0.14,-0.11 -0.23,-0.16 -0.18,-0.11 -0.34,-0.16 -0.46,-0.17 -0.13,-0.01 -0.22,0.03 -0.27,0.11 l -2,3.46 -2.71,-1.57 c 0.12,-0.15 0.23,-0.31 0.34,-0.49 0.11,-0.17 0.23,-0.37 0.36,-0.6 0.31,-0.53 0.51,-1.04 0.61,-1.51 0.1,-0.48 0.1,-0.92 0.01,-1.32 -0.08,-0.41 -0.26,-0.78 -0.53,-1.12 -0.26,-0.33 -0.6,-0.62 -1.02,-0.86 z m 8.37,-2.12 c -0.24,-0.14 -0.5,-0.23 -0.77,-0.26 -0.27,-0.03 -0.53,-0.01 -0.79,0.07 -0.26,0.07 -0.5,0.19 -0.72,0.37 -0.22,0.17 -0.4,0.39 -0.56,0.66 -0.15,0.26 -0.25,0.53 -0.29,0.79 -0.04,0.26 -0.03,0.52 0.02,0.77 0.06,0.24 0.17,0.47 0.33,0.68 0.15,0.21 0.36,0.39 0.61,0.54 0.26,0.14 0.52,0.23 0.79,0.26 0.27,0.03 0.53,0.01 0.79,-0.07 0.25,-0.08 0.48,-0.2 0.7,-0.37 0.22,-0.18 0.41,-0.4 0.56,-0.66 0.15,-0.26 0.24,-0.52 0.29,-0.79 0.04,-0.27 0.03,-0.53 -0.02,-0.77 -0.06,-0.24 -0.16,-0.47 -0.32,-0.68 -0.16,-0.21 -0.37,-0.39 -0.62,-0.54 z m -0.57,0.93 c 0.13,0.07 0.24,0.17 0.33,0.28 0.1,0.11 0.16,0.23 0.2,0.36 0.04,0.13 0.05,0.26 0.03,0.4 -0.01,0.14 -0.06,0.27 -0.13,0.4 -0.07,0.13 -0.16,0.23 -0.27,0.31 -0.11,0.08 -0.23,0.13 -0.36,0.16 -0.14,0.04 -0.27,0.04 -0.41,0.02 -0.14,-0.02 -0.28,-0.07 -0.41,-0.15 -0.14,-0.08 -0.26,-0.18 -0.35,-0.29 -0.1,-0.12 -0.16,-0.24 -0.2,-0.37 -0.04,-0.13 -0.05,-0.27 -0.03,-0.41 0.02,-0.13 0.06,-0.27 0.14,-0.4 0.07,-0.12 0.16,-0.22 0.27,-0.3 0.11,-0.07 0.23,-0.13 0.36,-0.15 0.14,-0.03 0.27,-0.03 0.41,-0.01 0.14,0.02 0.28,0.07 0.42,0.15 z"
           style="fill:#595959;fill-opacity:1;fill-rule:nonzero;stroke:none"
           id="path304" /></g></g><g
       id="g306"><g
         id="g308"
         clip-path="url(#clipPath312)"><path
           d="m 437.03,166.31 c -0.1,-0.05 -0.18,-0.09 -0.26,-0.11 -0.07,-0.03 -0.13,-0.04 -0.19,-0.04 -0.05,0.01 -0.1,0.02 -0.13,0.04 -0.04,0.02 -0.07,0.05 -0.09,0.09 l -2.92,5.05 c -0.02,0.04 -0.03,0.07 -0.03,0.11 0,0.04 0.02,0.09 0.04,0.14 0.02,0.05 0.06,0.1 0.12,0.15 0.06,0.06 0.13,0.11 0.23,0.16 0.09,0.06 0.17,0.09 0.24,0.12 0.08,0.02 0.14,0.03 0.2,0.03 0.05,0.01 0.1,0 0.14,-0.02 0.04,-0.02 0.07,-0.05 0.1,-0.09 l 1.16,-2.02 7.36,4.25 -2.19,1.22 c -0.11,0.07 -0.18,0.13 -0.22,0.18 -0.05,0.05 -0.06,0.1 -0.05,0.16 0.01,0.05 0.05,0.11 0.12,0.16 0.07,0.06 0.16,0.12 0.27,0.18 0.09,0.05 0.16,0.09 0.23,0.12 0.06,0.03 0.12,0.04 0.17,0.05 0.04,0.01 0.09,0.01 0.14,0 0.04,-0.01 0.09,-0.03 0.15,-0.06 l 2.71,-1.4 c 0.03,-0.01 0.06,-0.03 0.08,-0.06 0.03,-0.02 0.06,-0.05 0.1,-0.09 0.04,-0.04 0.07,-0.09 0.11,-0.15 0.04,-0.06 0.08,-0.13 0.13,-0.22 0.07,-0.12 0.12,-0.22 0.16,-0.31 0.04,-0.08 0.06,-0.15 0.07,-0.21 0.01,-0.05 0,-0.1 -0.02,-0.13 -0.02,-0.03 -0.04,-0.05 -0.07,-0.07 l -8.51,-4.91 1.02,-1.75 c 0.02,-0.04 0.03,-0.08 0.03,-0.13 -0.01,-0.05 -0.02,-0.09 -0.05,-0.14 -0.03,-0.05 -0.07,-0.1 -0.13,-0.15 -0.06,-0.05 -0.13,-0.1 -0.22,-0.15 z m 6.51,-6.72 c -0.42,-0.24 -0.84,-0.38 -1.25,-0.42 -0.41,-0.04 -0.81,0.02 -1.2,0.17 -0.39,0.15 -0.76,0.4 -1.11,0.75 -0.35,0.35 -0.68,0.79 -0.99,1.32 -0.29,0.5 -0.49,0.98 -0.62,1.43 -0.12,0.45 -0.16,0.88 -0.11,1.27 0.04,0.39 0.17,0.75 0.39,1.06 0.22,0.32 0.52,0.59 0.9,0.81 0.3,0.18 0.61,0.29 0.92,0.34 0.32,0.04 0.63,0.04 0.96,-0.03 0.32,-0.06 0.65,-0.18 1,-0.34 0.34,-0.17 0.7,-0.37 1.07,-0.62 -0.02,0.39 -0.01,0.75 0.03,1.08 0.04,0.32 0.11,0.63 0.22,0.9 0.11,0.28 0.26,0.52 0.44,0.74 0.18,0.21 0.41,0.4 0.68,0.55 0.34,0.2 0.69,0.32 1.06,0.37 0.36,0.05 0.73,0.01 1.09,-0.11 0.36,-0.12 0.72,-0.33 1.06,-0.64 0.35,-0.31 0.67,-0.71 0.97,-1.22 0.28,-0.49 0.46,-0.95 0.55,-1.37 0.09,-0.43 0.1,-0.81 0.03,-1.16 -0.07,-0.35 -0.21,-0.66 -0.42,-0.93 -0.21,-0.26 -0.47,-0.49 -0.78,-0.67 -0.26,-0.15 -0.53,-0.25 -0.81,-0.3 -0.28,-0.05 -0.57,-0.06 -0.87,-0.02 -0.3,0.04 -0.61,0.12 -0.93,0.25 -0.31,0.12 -0.64,0.29 -0.97,0.5 0.03,-0.46 0.03,-0.88 0.01,-1.26 -0.03,-0.38 -0.09,-0.73 -0.2,-1.04 -0.1,-0.31 -0.24,-0.58 -0.42,-0.81 -0.18,-0.24 -0.42,-0.44 -0.7,-0.6 z m 4.03,4.48 c 0.21,0.12 0.38,0.27 0.51,0.44 0.13,0.17 0.21,0.36 0.25,0.57 0.04,0.21 0.03,0.43 -0.03,0.68 -0.06,0.24 -0.16,0.49 -0.31,0.76 -0.31,0.53 -0.67,0.87 -1.08,1.01 -0.4,0.13 -0.81,0.08 -1.24,-0.17 -0.19,-0.11 -0.35,-0.25 -0.48,-0.41 -0.13,-0.16 -0.23,-0.36 -0.29,-0.59 -0.07,-0.23 -0.11,-0.49 -0.13,-0.79 -0.02,-0.3 -0.02,-0.64 0,-1.03 0.55,-0.35 1.06,-0.58 1.53,-0.66 0.47,-0.09 0.89,-0.03 1.27,0.19 z m -4.92,-3.26 c 0.23,0.14 0.42,0.3 0.55,0.49 0.14,0.19 0.24,0.42 0.31,0.69 0.06,0.26 0.09,0.57 0.1,0.91 0,0.35 -0.01,0.74 -0.05,1.17 -0.33,0.23 -0.64,0.41 -0.94,0.56 -0.29,0.15 -0.56,0.25 -0.81,0.31 -0.25,0.06 -0.49,0.07 -0.72,0.04 -0.23,-0.03 -0.45,-0.1 -0.67,-0.23 -0.48,-0.28 -0.76,-0.66 -0.83,-1.14 -0.08,-0.49 0.08,-1.06 0.46,-1.72 0.37,-0.64 0.78,-1.04 1.23,-1.21 0.46,-0.18 0.91,-0.13 1.37,0.13 z m 7.92,-7.91 c -0.74,-0.43 -1.45,-0.76 -2.13,-1 -0.68,-0.23 -1.32,-0.34 -1.92,-0.33 -0.6,0.02 -1.15,0.18 -1.64,0.48 -0.5,0.3 -0.93,0.77 -1.3,1.41 -0.35,0.61 -0.54,1.18 -0.56,1.73 -0.03,0.54 0.1,1.06 0.37,1.55 0.28,0.5 0.69,0.98 1.25,1.44 0.55,0.47 1.23,0.93 2.02,1.39 0.74,0.43 1.45,0.76 2.14,0.99 0.68,0.24 1.32,0.35 1.92,0.33 0.6,-0.01 1.14,-0.17 1.64,-0.47 0.49,-0.3 0.92,-0.76 1.29,-1.4 0.36,-0.62 0.55,-1.19 0.57,-1.73 0.02,-0.55 -0.1,-1.07 -0.38,-1.56 -0.27,-0.5 -0.69,-0.98 -1.24,-1.44 -0.55,-0.47 -1.23,-0.93 -2.03,-1.39 z m -0.85,1.27 c 0.49,0.28 0.91,0.54 1.27,0.8 0.37,0.26 0.68,0.5 0.93,0.74 0.26,0.24 0.46,0.47 0.61,0.7 0.15,0.23 0.25,0.46 0.3,0.69 0.05,0.23 0.05,0.45 0,0.68 -0.04,0.23 -0.14,0.46 -0.28,0.7 -0.24,0.43 -0.54,0.71 -0.89,0.86 -0.35,0.15 -0.75,0.2 -1.18,0.15 -0.44,-0.05 -0.91,-0.18 -1.41,-0.4 -0.5,-0.21 -1.02,-0.47 -1.56,-0.79 -0.72,-0.41 -1.31,-0.8 -1.78,-1.17 -0.46,-0.37 -0.8,-0.73 -1.03,-1.07 -0.22,-0.35 -0.34,-0.69 -0.34,-1.02 0,-0.34 0.11,-0.69 0.32,-1.05 0.16,-0.27 0.34,-0.49 0.56,-0.65 0.21,-0.16 0.44,-0.27 0.7,-0.33 0.25,-0.05 0.52,-0.06 0.82,-0.03 0.29,0.04 0.59,0.11 0.91,0.21 0.32,0.11 0.65,0.24 1,0.41 0.34,0.17 0.69,0.36 1.05,0.57 z m 7.26,-4.03 c -0.24,-0.14 -0.5,-0.23 -0.77,-0.26 -0.26,-0.03 -0.53,-0.01 -0.78,0.07 -0.26,0.07 -0.5,0.19 -0.72,0.37 -0.22,0.17 -0.41,0.39 -0.56,0.66 -0.16,0.26 -0.25,0.53 -0.3,0.79 -0.04,0.26 -0.03,0.52 0.03,0.77 0.05,0.24 0.16,0.47 0.32,0.68 0.16,0.21 0.36,0.39 0.62,0.54 0.25,0.14 0.51,0.23 0.78,0.26 0.28,0.03 0.54,0.01 0.79,-0.07 0.25,-0.08 0.48,-0.2 0.7,-0.37 0.22,-0.18 0.41,-0.4 0.56,-0.66 0.15,-0.26 0.25,-0.52 0.29,-0.79 0.04,-0.27 0.03,-0.53 -0.02,-0.77 -0.06,-0.24 -0.16,-0.47 -0.32,-0.68 -0.16,-0.21 -0.36,-0.39 -0.62,-0.54 z m -0.57,0.93 c 0.13,0.07 0.25,0.17 0.34,0.28 0.09,0.11 0.15,0.23 0.19,0.36 0.04,0.13 0.05,0.26 0.04,0.4 -0.02,0.14 -0.06,0.27 -0.14,0.4 -0.07,0.13 -0.16,0.23 -0.27,0.31 -0.11,0.08 -0.23,0.13 -0.36,0.16 -0.13,0.04 -0.27,0.04 -0.41,0.02 -0.14,-0.02 -0.27,-0.07 -0.4,-0.15 -0.15,-0.08 -0.27,-0.18 -0.36,-0.29 -0.1,-0.12 -0.16,-0.24 -0.2,-0.37 -0.04,-0.13 -0.05,-0.27 -0.03,-0.41 0.02,-0.13 0.07,-0.27 0.14,-0.4 0.07,-0.12 0.16,-0.22 0.27,-0.3 0.11,-0.07 0.24,-0.13 0.37,-0.15 0.13,-0.03 0.27,-0.03 0.41,-0.01 0.14,0.02 0.27,0.07 0.41,0.15 z"
           style="fill:#595959;fill-opacity:1;fill-rule:nonzero;stroke:none"
           id="path314" /></g></g><g
       id="g316"><g
         id="g318"
         clip-path="url(#clipPath322)"><path
           d="m 510.9,166.36 c -0.09,-0.05 -0.17,-0.09 -0.25,-0.12 -0.08,-0.03 -0.14,-0.04 -0.2,-0.05 -0.07,0 -0.12,0.01 -0.16,0.03 -0.05,0.02 -0.08,0.06 -0.11,0.1 l -3.08,5.35 c -0.04,0.07 -0.07,0.14 -0.08,0.2 -0.02,0.06 -0.01,0.12 0.01,0.18 0.01,0.06 0.05,0.12 0.12,0.19 0.06,0.06 0.15,0.12 0.26,0.18 0.1,0.06 0.19,0.11 0.27,0.14 0.08,0.04 0.15,0.06 0.23,0.07 0.07,0 0.14,0 0.22,0 0.08,-0.01 0.17,-0.02 0.27,-0.05 l 3.11,-0.78 c 0.72,-0.18 1.34,-0.31 1.86,-0.36 0.52,-0.06 0.97,-0.08 1.35,-0.05 0.38,0.02 0.71,0.08 0.98,0.18 0.27,0.09 0.52,0.2 0.73,0.32 0.21,0.13 0.4,0.28 0.55,0.46 0.15,0.19 0.26,0.39 0.32,0.61 0.07,0.22 0.08,0.46 0.05,0.71 -0.03,0.26 -0.13,0.52 -0.28,0.78 -0.18,0.32 -0.39,0.57 -0.62,0.78 -0.23,0.2 -0.45,0.36 -0.65,0.49 -0.21,0.13 -0.39,0.24 -0.55,0.31 -0.16,0.08 -0.26,0.15 -0.29,0.21 -0.02,0.04 -0.03,0.07 -0.03,0.11 0.01,0.04 0.03,0.09 0.06,0.13 0.03,0.04 0.09,0.09 0.15,0.15 0.07,0.05 0.16,0.11 0.27,0.17 0.07,0.04 0.14,0.08 0.19,0.1 0.06,0.03 0.11,0.05 0.16,0.06 0.05,0.01 0.09,0.01 0.14,0.01 0.05,0 0.11,-0.01 0.2,-0.04 0.09,-0.03 0.22,-0.09 0.39,-0.19 0.18,-0.09 0.37,-0.23 0.59,-0.4 0.21,-0.17 0.43,-0.37 0.64,-0.6 0.22,-0.24 0.41,-0.5 0.58,-0.79 0.27,-0.47 0.44,-0.92 0.51,-1.35 0.07,-0.43 0.06,-0.82 -0.04,-1.19 -0.09,-0.36 -0.26,-0.69 -0.5,-0.98 -0.24,-0.29 -0.53,-0.53 -0.87,-0.73 -0.31,-0.18 -0.63,-0.33 -0.97,-0.45 -0.34,-0.12 -0.74,-0.2 -1.2,-0.23 -0.46,-0.03 -1,0 -1.63,0.08 -0.63,0.08 -1.39,0.24 -2.27,0.46 l -2.49,0.61 2.43,-4.21 c 0.02,-0.04 0.04,-0.08 0.03,-0.13 0,-0.05 -0.01,-0.11 -0.04,-0.16 -0.03,-0.05 -0.07,-0.1 -0.13,-0.16 -0.06,-0.05 -0.14,-0.1 -0.23,-0.15 z m 4.42,-7.66 c -0.09,-0.05 -0.17,-0.09 -0.25,-0.12 -0.07,-0.03 -0.14,-0.04 -0.2,-0.05 -0.06,0 -0.12,0.01 -0.16,0.03 -0.04,0.03 -0.08,0.06 -0.1,0.11 l -3.09,5.34 c -0.04,0.07 -0.07,0.14 -0.08,0.2 -0.01,0.06 -0.01,0.13 0.01,0.19 0.02,0.06 0.06,0.12 0.12,0.18 0.07,0.06 0.15,0.12 0.26,0.18 0.1,0.06 0.19,0.11 0.27,0.14 0.08,0.04 0.16,0.06 0.23,0.07 0.07,0 0.15,0.01 0.23,0 0.08,-0.01 0.17,-0.02 0.27,-0.04 l 3.1,-0.79 c 0.72,-0.18 1.34,-0.3 1.86,-0.36 0.52,-0.06 0.97,-0.08 1.35,-0.05 0.39,0.02 0.71,0.08 0.98,0.18 0.28,0.09 0.52,0.2 0.73,0.33 0.22,0.12 0.4,0.27 0.55,0.46 0.15,0.18 0.26,0.38 0.32,0.6 0.07,0.22 0.09,0.46 0.05,0.71 -0.03,0.26 -0.13,0.52 -0.28,0.79 -0.18,0.31 -0.39,0.57 -0.62,0.77 -0.23,0.2 -0.44,0.36 -0.65,0.49 -0.21,0.13 -0.39,0.24 -0.55,0.31 -0.16,0.08 -0.25,0.15 -0.29,0.21 -0.02,0.04 -0.03,0.08 -0.03,0.12 0.01,0.04 0.03,0.08 0.06,0.12 0.04,0.05 0.09,0.09 0.16,0.15 0.07,0.05 0.15,0.11 0.26,0.17 0.07,0.04 0.14,0.08 0.2,0.1 0.05,0.03 0.11,0.05 0.15,0.06 0.05,0.01 0.1,0.02 0.14,0.02 0.05,0 0.12,-0.02 0.2,-0.05 0.09,-0.03 0.22,-0.09 0.4,-0.19 0.17,-0.09 0.36,-0.22 0.58,-0.4 0.22,-0.17 0.43,-0.37 0.64,-0.6 0.22,-0.23 0.41,-0.5 0.58,-0.79 0.27,-0.47 0.44,-0.92 0.51,-1.35 0.07,-0.42 0.06,-0.82 -0.04,-1.18 -0.09,-0.37 -0.26,-0.7 -0.5,-0.99 -0.23,-0.29 -0.52,-0.53 -0.87,-0.73 -0.31,-0.18 -0.63,-0.33 -0.97,-0.45 -0.34,-0.12 -0.74,-0.2 -1.2,-0.23 -0.45,-0.03 -1,0 -1.63,0.08 -0.63,0.09 -1.38,0.24 -2.27,0.46 l -2.49,0.61 2.43,-4.21 c 0.03,-0.04 0.04,-0.08 0.04,-0.13 0,-0.05 -0.02,-0.1 -0.05,-0.16 -0.03,-0.05 -0.07,-0.1 -0.13,-0.15 -0.06,-0.06 -0.14,-0.11 -0.23,-0.16 z m 7.13,-6.44 c -0.52,-0.3 -1.03,-0.48 -1.53,-0.54 -0.51,-0.06 -0.99,-0.01 -1.45,0.15 -0.46,0.16 -0.89,0.42 -1.29,0.78 -0.4,0.36 -0.75,0.8 -1.07,1.34 -0.17,0.3 -0.31,0.6 -0.42,0.89 -0.12,0.29 -0.2,0.56 -0.26,0.81 -0.06,0.25 -0.1,0.45 -0.12,0.62 -0.01,0.17 -0.02,0.28 0,0.34 0.01,0.06 0.03,0.1 0.05,0.14 0.02,0.03 0.05,0.06 0.08,0.1 0.04,0.04 0.09,0.08 0.15,0.12 0.06,0.04 0.14,0.09 0.23,0.14 0.08,0.05 0.16,0.09 0.23,0.12 0.07,0.03 0.14,0.05 0.19,0.05 0.05,0.01 0.1,0 0.13,-0.01 0.04,-0.02 0.07,-0.04 0.09,-0.08 0.03,-0.05 0.04,-0.14 0.04,-0.28 0,-0.15 0.01,-0.32 0.04,-0.54 0.03,-0.22 0.09,-0.48 0.17,-0.78 0.09,-0.3 0.24,-0.63 0.44,-0.99 0.2,-0.33 0.41,-0.62 0.66,-0.85 0.24,-0.23 0.5,-0.4 0.79,-0.5 0.28,-0.11 0.59,-0.14 0.91,-0.11 0.32,0.03 0.67,0.16 1.04,0.37 0.31,0.18 0.55,0.38 0.73,0.62 0.18,0.23 0.29,0.5 0.33,0.79 0.04,0.29 0.01,0.61 -0.09,0.97 -0.1,0.35 -0.27,0.74 -0.52,1.17 -0.18,0.31 -0.34,0.56 -0.5,0.76 -0.16,0.2 -0.29,0.4 -0.4,0.59 -0.08,0.14 -0.1,0.26 -0.07,0.35 0.03,0.1 0.13,0.2 0.32,0.31 l 3.94,2.27 c 0.17,0.1 0.31,0.13 0.43,0.1 0.13,-0.03 0.23,-0.12 0.32,-0.26 l 2.47,-4.29 c 0.02,-0.04 0.03,-0.08 0.03,-0.13 0,-0.05 -0.01,-0.1 -0.04,-0.16 -0.03,-0.05 -0.08,-0.1 -0.14,-0.15 -0.07,-0.05 -0.14,-0.11 -0.24,-0.16 -0.18,-0.11 -0.33,-0.16 -0.46,-0.17 -0.13,-0.01 -0.22,0.03 -0.26,0.11 l -2,3.46 -2.72,-1.57 c 0.12,-0.15 0.24,-0.31 0.35,-0.49 0.1,-0.17 0.22,-0.37 0.35,-0.6 0.31,-0.53 0.51,-1.04 0.61,-1.51 0.1,-0.48 0.11,-0.92 0.02,-1.32 -0.09,-0.41 -0.27,-0.78 -0.53,-1.12 -0.27,-0.33 -0.61,-0.62 -1.03,-0.86 z m 8.37,-2.12 c -0.24,-0.14 -0.5,-0.23 -0.76,-0.26 -0.27,-0.03 -0.53,-0.01 -0.79,0.07 -0.26,0.07 -0.5,0.19 -0.72,0.37 -0.22,0.17 -0.41,0.39 -0.56,0.66 -0.15,0.26 -0.25,0.53 -0.29,0.79 -0.05,0.26 -0.04,0.52 0.02,0.77 0.06,0.24 0.16,0.47 0.32,0.68 0.16,0.21 0.36,0.39 0.62,0.54 0.25,0.14 0.52,0.23 0.79,0.26 0.27,0.03 0.53,0.01 0.78,-0.07 0.25,-0.08 0.49,-0.2 0.71,-0.37 0.22,-0.18 0.4,-0.4 0.55,-0.66 0.15,-0.26 0.25,-0.52 0.29,-0.79 0.04,-0.27 0.04,-0.53 -0.02,-0.77 -0.05,-0.24 -0.16,-0.47 -0.32,-0.68 -0.15,-0.21 -0.36,-0.39 -0.62,-0.54 z m -0.57,0.93 c 0.14,0.07 0.25,0.17 0.34,0.28 0.09,0.11 0.16,0.23 0.19,0.36 0.04,0.13 0.05,0.26 0.04,0.4 -0.02,0.14 -0.06,0.27 -0.14,0.4 -0.07,0.13 -0.16,0.23 -0.27,0.31 -0.11,0.08 -0.23,0.13 -0.36,0.16 -0.13,0.04 -0.27,0.04 -0.41,0.02 -0.14,-0.02 -0.27,-0.07 -0.4,-0.15 -0.15,-0.08 -0.27,-0.18 -0.36,-0.29 -0.09,-0.12 -0.16,-0.24 -0.2,-0.37 -0.03,-0.13 -0.04,-0.27 -0.03,-0.41 0.02,-0.13 0.07,-0.27 0.14,-0.4 0.07,-0.12 0.16,-0.22 0.27,-0.3 0.12,-0.07 0.24,-0.13 0.37,-0.15 0.13,-0.03 0.27,-0.03 0.41,-0.01 0.14,0.02 0.28,0.07 0.41,0.15 z"
           style="fill:#595959;fill-opacity:1;fill-rule:nonzero;stroke:none"
           id="path324" /></g></g><g
       id="g326"><g
         id="g328"
         clip-path="url(#clipPath332)"><path
           d="m 584.74,166.36 c -0.09,-0.05 -0.17,-0.09 -0.25,-0.12 -0.07,-0.03 -0.14,-0.04 -0.2,-0.05 -0.06,0 -0.11,0.01 -0.16,0.03 -0.04,0.02 -0.08,0.06 -0.1,0.1 l -3.09,5.35 c -0.04,0.07 -0.07,0.14 -0.08,0.2 -0.01,0.06 -0.01,0.12 0.01,0.18 0.02,0.06 0.06,0.12 0.12,0.19 0.07,0.06 0.15,0.12 0.26,0.18 0.1,0.06 0.19,0.11 0.27,0.14 0.08,0.04 0.16,0.06 0.23,0.07 0.07,0 0.15,0 0.23,0 0.08,-0.01 0.17,-0.02 0.27,-0.05 l 3.1,-0.78 c 0.72,-0.18 1.34,-0.31 1.86,-0.36 0.52,-0.06 0.97,-0.08 1.35,-0.05 0.39,0.02 0.71,0.08 0.98,0.18 0.28,0.09 0.52,0.2 0.73,0.32 0.22,0.13 0.4,0.28 0.55,0.46 0.15,0.19 0.26,0.39 0.32,0.61 0.07,0.22 0.09,0.46 0.05,0.71 -0.03,0.26 -0.13,0.52 -0.28,0.78 -0.18,0.32 -0.39,0.57 -0.62,0.78 -0.22,0.2 -0.44,0.36 -0.65,0.49 -0.21,0.13 -0.39,0.24 -0.55,0.31 -0.16,0.08 -0.25,0.15 -0.29,0.21 -0.02,0.04 -0.03,0.07 -0.02,0.11 0,0.04 0.02,0.09 0.05,0.13 0.04,0.04 0.09,0.09 0.16,0.15 0.07,0.05 0.15,0.11 0.26,0.17 0.07,0.04 0.14,0.08 0.2,0.1 0.05,0.03 0.11,0.05 0.15,0.06 0.05,0.01 0.1,0.01 0.14,0.01 0.05,0 0.12,-0.01 0.2,-0.04 0.09,-0.03 0.22,-0.09 0.4,-0.19 0.17,-0.09 0.37,-0.23 0.58,-0.4 0.22,-0.17 0.43,-0.37 0.64,-0.6 0.22,-0.24 0.41,-0.5 0.58,-0.79 0.27,-0.47 0.44,-0.92 0.51,-1.35 0.07,-0.43 0.06,-0.82 -0.03,-1.19 -0.1,-0.36 -0.27,-0.69 -0.5,-0.98 -0.24,-0.29 -0.53,-0.53 -0.88,-0.73 -0.31,-0.18 -0.63,-0.33 -0.97,-0.45 -0.34,-0.12 -0.74,-0.2 -1.19,-0.23 -0.46,-0.03 -1.01,0 -1.64,0.08 -0.62,0.08 -1.38,0.24 -2.27,0.46 l -2.49,0.61 2.43,-4.21 c 0.03,-0.04 0.04,-0.08 0.04,-0.13 0,-0.05 -0.02,-0.11 -0.05,-0.16 -0.03,-0.05 -0.07,-0.1 -0.13,-0.16 -0.06,-0.05 -0.14,-0.1 -0.23,-0.15 z m 13.08,-2.85 c -0.09,-0.05 -0.17,-0.1 -0.25,-0.13 -0.08,-0.04 -0.15,-0.07 -0.23,-0.09 -0.07,-0.03 -0.15,-0.05 -0.22,-0.06 -0.08,-0.02 -0.16,-0.03 -0.25,-0.04 l -10.04,-1.15 c -0.07,-0.01 -0.14,-0.01 -0.2,0.01 -0.06,0.01 -0.12,0.04 -0.17,0.09 -0.06,0.04 -0.12,0.11 -0.17,0.19 -0.06,0.09 -0.13,0.2 -0.21,0.33 -0.09,0.17 -0.16,0.3 -0.2,0.41 -0.04,0.1 -0.06,0.18 -0.05,0.24 0.01,0.06 0.04,0.1 0.09,0.13 0.05,0.02 0.11,0.03 0.2,0.04 l 10.32,1.08 -2.68,4.64 c -0.05,0.1 -0.04,0.2 0.03,0.3 0.07,0.11 0.2,0.21 0.38,0.31 0.09,0.06 0.18,0.1 0.25,0.13 0.08,0.03 0.15,0.04 0.21,0.04 0.06,0.01 0.12,0 0.16,-0.03 0.04,-0.02 0.08,-0.05 0.1,-0.1 l 3.26,-5.63 c 0.04,-0.07 0.07,-0.14 0.08,-0.2 0.02,-0.06 0.01,-0.12 -0.02,-0.17 -0.03,-0.06 -0.07,-0.11 -0.14,-0.17 -0.06,-0.05 -0.14,-0.11 -0.25,-0.17 z m 0.44,-10.61 c -0.75,-0.43 -1.46,-0.76 -2.14,-1 -0.68,-0.23 -1.32,-0.34 -1.92,-0.33 -0.6,0.02 -1.14,0.18 -1.64,0.48 -0.49,0.3 -0.93,0.77 -1.3,1.41 -0.35,0.61 -0.54,1.18 -0.56,1.73 -0.02,0.54 0.1,1.06 0.38,1.55 0.27,0.5 0.69,0.98 1.24,1.44 0.55,0.47 1.23,0.93 2.03,1.39 0.74,0.43 1.45,0.76 2.13,0.99 0.69,0.24 1.33,0.35 1.92,0.33 0.6,-0.01 1.15,-0.17 1.64,-0.47 0.5,-0.3 0.93,-0.76 1.3,-1.4 0.35,-0.62 0.54,-1.19 0.56,-1.73 0.03,-0.55 -0.1,-1.07 -0.37,-1.56 -0.28,-0.5 -0.69,-0.98 -1.25,-1.44 -0.55,-0.47 -1.23,-0.93 -2.02,-1.39 z m -0.85,1.27 c 0.48,0.28 0.9,0.54 1.27,0.8 0.36,0.26 0.67,0.5 0.93,0.74 0.25,0.24 0.46,0.47 0.61,0.7 0.15,0.23 0.25,0.46 0.3,0.69 0.05,0.23 0.05,0.45 0,0.68 -0.05,0.23 -0.14,0.46 -0.28,0.7 -0.24,0.43 -0.54,0.71 -0.9,0.86 -0.35,0.15 -0.74,0.2 -1.18,0.15 -0.44,-0.05 -0.9,-0.18 -1.4,-0.4 -0.5,-0.21 -1.02,-0.47 -1.56,-0.79 -0.73,-0.41 -1.32,-0.8 -1.78,-1.17 -0.46,-0.37 -0.81,-0.73 -1.03,-1.07 -0.23,-0.35 -0.34,-0.69 -0.34,-1.02 0,-0.34 0.1,-0.69 0.31,-1.05 0.16,-0.27 0.35,-0.49 0.56,-0.65 0.21,-0.16 0.45,-0.27 0.7,-0.33 0.26,-0.05 0.53,-0.06 0.82,-0.03 0.29,0.04 0.6,0.11 0.92,0.21 0.32,0.11 0.65,0.24 0.99,0.41 0.35,0.17 0.7,0.36 1.06,0.57 z m 7.26,-4.03 c -0.25,-0.14 -0.5,-0.23 -0.77,-0.26 -0.27,-0.03 -0.53,-0.01 -0.79,0.07 -0.26,0.07 -0.5,0.19 -0.72,0.37 -0.22,0.17 -0.41,0.39 -0.56,0.66 -0.15,0.26 -0.25,0.53 -0.29,0.79 -0.04,0.26 -0.04,0.52 0.02,0.77 0.06,0.24 0.17,0.47 0.32,0.68 0.16,0.21 0.37,0.39 0.62,0.54 0.25,0.14 0.52,0.23 0.79,0.26 0.27,0.03 0.53,0.01 0.78,-0.07 0.25,-0.08 0.49,-0.2 0.71,-0.37 0.22,-0.18 0.4,-0.4 0.56,-0.66 0.15,-0.26 0.24,-0.52 0.28,-0.79 0.05,-0.27 0.04,-0.53 -0.02,-0.77 -0.05,-0.24 -0.16,-0.47 -0.31,-0.68 -0.16,-0.21 -0.37,-0.39 -0.62,-0.54 z m -0.58,0.93 c 0.14,0.07 0.25,0.17 0.34,0.28 0.09,0.11 0.16,0.23 0.2,0.36 0.04,0.13 0.05,0.26 0.03,0.4 -0.01,0.14 -0.06,0.27 -0.13,0.4 -0.08,0.13 -0.17,0.23 -0.28,0.31 -0.11,0.08 -0.23,0.13 -0.36,0.16 -0.13,0.04 -0.26,0.04 -0.4,0.02 -0.14,-0.02 -0.28,-0.07 -0.41,-0.15 -0.14,-0.08 -0.26,-0.18 -0.36,-0.29 -0.09,-0.12 -0.16,-0.24 -0.19,-0.37 -0.04,-0.13 -0.05,-0.27 -0.03,-0.41 0.01,-0.13 0.06,-0.27 0.14,-0.4 0.06,-0.12 0.15,-0.22 0.27,-0.3 0.11,-0.07 0.23,-0.13 0.36,-0.15 0.13,-0.03 0.27,-0.03 0.41,-0.01 0.14,0.02 0.28,0.07 0.41,0.15 z"
           style="fill:#595959;fill-opacity:1;fill-rule:nonzero;stroke:none"
           id="path334" /></g></g><g
       id="g336"><g
         id="g338"
         clip-path="url(#clipPath342)"><path
           d="m 660.76,167.71 c -0.45,-0.25 -0.89,-0.41 -1.34,-0.46 -0.44,-0.05 -0.88,0 -1.3,0.14 -0.42,0.14 -0.82,0.38 -1.2,0.73 -0.38,0.34 -0.73,0.78 -1.04,1.32 -0.18,0.32 -0.33,0.64 -0.44,0.95 -0.11,0.31 -0.2,0.6 -0.25,0.86 -0.05,0.26 -0.08,0.49 -0.09,0.67 -0.01,0.19 0,0.32 0.01,0.37 0.01,0.06 0.03,0.11 0.05,0.15 0.03,0.04 0.06,0.08 0.1,0.13 0.04,0.04 0.1,0.09 0.17,0.14 0.06,0.05 0.15,0.1 0.25,0.16 0.18,0.1 0.32,0.16 0.41,0.16 0.09,0.01 0.15,-0.02 0.19,-0.09 0.03,-0.05 0.04,-0.16 0.04,-0.34 0,-0.18 0.01,-0.41 0.04,-0.67 0.03,-0.27 0.09,-0.57 0.18,-0.9 0.08,-0.33 0.22,-0.66 0.42,-1.01 0.2,-0.34 0.41,-0.61 0.64,-0.82 0.24,-0.21 0.48,-0.35 0.73,-0.44 0.26,-0.08 0.52,-0.11 0.78,-0.07 0.26,0.04 0.52,0.13 0.77,0.27 0.27,0.16 0.49,0.36 0.64,0.59 0.16,0.24 0.25,0.51 0.29,0.82 0.04,0.3 0.01,0.64 -0.09,1 -0.09,0.36 -0.26,0.74 -0.49,1.13 l -0.54,0.95 c -0.03,0.04 -0.04,0.09 -0.05,0.14 0,0.05 0.01,0.1 0.03,0.15 0.02,0.05 0.06,0.1 0.12,0.16 0.05,0.05 0.13,0.11 0.24,0.17 0.09,0.06 0.17,0.09 0.25,0.11 0.07,0.03 0.13,0.03 0.18,0.03 0.06,-0.01 0.1,-0.02 0.14,-0.05 0.04,-0.02 0.07,-0.06 0.09,-0.1 l 0.49,-0.85 c 0.19,-0.33 0.4,-0.6 0.64,-0.81 0.24,-0.21 0.49,-0.36 0.75,-0.45 0.27,-0.09 0.54,-0.12 0.81,-0.09 0.28,0.03 0.56,0.12 0.83,0.28 0.2,0.12 0.37,0.26 0.52,0.43 0.14,0.17 0.25,0.36 0.31,0.56 0.06,0.21 0.07,0.44 0.03,0.68 -0.04,0.25 -0.14,0.51 -0.29,0.77 -0.17,0.29 -0.37,0.53 -0.59,0.72 -0.23,0.19 -0.45,0.36 -0.66,0.49 -0.21,0.13 -0.39,0.23 -0.55,0.31 -0.16,0.07 -0.25,0.13 -0.28,0.18 -0.02,0.04 -0.03,0.07 -0.04,0.11 0,0.03 0.01,0.07 0.04,0.11 0.03,0.04 0.07,0.08 0.14,0.13 0.06,0.04 0.14,0.1 0.25,0.16 0.08,0.04 0.15,0.08 0.21,0.11 0.06,0.02 0.11,0.04 0.16,0.05 0.05,0.01 0.1,0.02 0.15,0.02 0.05,0 0.11,-0.01 0.18,-0.03 0.08,-0.02 0.2,-0.08 0.37,-0.17 0.18,-0.09 0.37,-0.22 0.58,-0.38 0.21,-0.16 0.42,-0.37 0.64,-0.61 0.22,-0.24 0.42,-0.52 0.61,-0.84 0.26,-0.45 0.43,-0.88 0.51,-1.28 0.08,-0.41 0.08,-0.78 0,-1.13 -0.08,-0.35 -0.23,-0.66 -0.46,-0.94 -0.22,-0.28 -0.51,-0.53 -0.87,-0.73 -0.3,-0.18 -0.61,-0.3 -0.92,-0.37 -0.3,-0.07 -0.6,-0.09 -0.89,-0.05 -0.3,0.04 -0.58,0.13 -0.85,0.27 -0.27,0.14 -0.52,0.34 -0.74,0.61 l -0.02,-0.01 c 0.16,-0.36 0.25,-0.71 0.28,-1.06 0.03,-0.36 0,-0.69 -0.08,-1 -0.09,-0.32 -0.23,-0.61 -0.43,-0.88 -0.21,-0.26 -0.46,-0.48 -0.76,-0.66 z m 2.22,-9.06 c -0.1,-0.05 -0.18,-0.09 -0.26,-0.11 -0.07,-0.03 -0.13,-0.04 -0.19,-0.03 -0.05,0 -0.1,0.01 -0.13,0.03 -0.04,0.02 -0.07,0.05 -0.09,0.09 l -2.92,5.05 c -0.02,0.04 -0.03,0.08 -0.03,0.12 0,0.04 0.02,0.08 0.04,0.13 0.02,0.05 0.06,0.1 0.12,0.16 0.06,0.05 0.13,0.1 0.23,0.16 0.09,0.05 0.17,0.09 0.24,0.11 0.07,0.02 0.14,0.03 0.19,0.03 0.06,0.01 0.11,0 0.15,-0.02 0.04,-0.02 0.07,-0.05 0.1,-0.09 l 1.16,-2.02 7.36,4.25 -2.19,1.23 c -0.11,0.06 -0.18,0.12 -0.23,0.17 -0.04,0.05 -0.05,0.11 -0.04,0.16 0.01,0.05 0.05,0.11 0.12,0.16 0.07,0.06 0.16,0.12 0.27,0.19 0.09,0.05 0.16,0.08 0.23,0.11 0.06,0.03 0.12,0.04 0.16,0.05 0.05,0.01 0.1,0.01 0.15,0 0.04,-0.01 0.09,-0.03 0.15,-0.06 l 2.71,-1.4 c 0.03,-0.01 0.06,-0.03 0.08,-0.05 0.03,-0.03 0.06,-0.06 0.1,-0.1 0.03,-0.04 0.07,-0.09 0.11,-0.15 0.03,-0.05 0.08,-0.13 0.13,-0.22 0.07,-0.12 0.12,-0.22 0.16,-0.31 0.03,-0.08 0.06,-0.15 0.07,-0.21 0,-0.05 0,-0.09 -0.02,-0.12 -0.02,-0.04 -0.04,-0.06 -0.07,-0.08 l -8.51,-4.91 1.01,-1.75 c 0.03,-0.04 0.04,-0.08 0.04,-0.13 -0.01,-0.05 -0.02,-0.09 -0.05,-0.14 -0.03,-0.05 -0.08,-0.1 -0.13,-0.14 -0.06,-0.05 -0.13,-0.11 -0.22,-0.16 z m 7.16,-6.39 c -0.52,-0.3 -1.03,-0.48 -1.54,-0.54 -0.5,-0.06 -0.98,-0.01 -1.44,0.15 -0.47,0.16 -0.9,0.42 -1.3,0.78 -0.39,0.36 -0.75,0.8 -1.06,1.34 -0.17,0.3 -0.32,0.6 -0.43,0.89 -0.11,0.29 -0.2,0.56 -0.26,0.81 -0.06,0.25 -0.09,0.45 -0.11,0.62 -0.02,0.17 -0.02,0.28 -0.01,0.34 0.01,0.06 0.03,0.1 0.05,0.14 0.02,0.03 0.05,0.06 0.09,0.1 0.03,0.04 0.08,0.08 0.14,0.12 0.07,0.04 0.14,0.09 0.23,0.14 0.09,0.05 0.16,0.09 0.24,0.12 0.07,0.03 0.13,0.05 0.18,0.05 0.06,0.01 0.1,0 0.14,-0.01 0.03,-0.02 0.06,-0.04 0.08,-0.08 0.03,-0.05 0.04,-0.14 0.04,-0.28 0,-0.15 0.02,-0.32 0.05,-0.54 0.02,-0.22 0.08,-0.48 0.17,-0.78 0.09,-0.3 0.23,-0.63 0.44,-0.99 0.19,-0.33 0.41,-0.62 0.65,-0.85 0.24,-0.23 0.51,-0.4 0.79,-0.5 0.29,-0.11 0.59,-0.14 0.91,-0.11 0.33,0.03 0.67,0.16 1.04,0.37 0.31,0.18 0.56,0.38 0.74,0.62 0.18,0.23 0.29,0.5 0.33,0.79 0.04,0.29 0.01,0.61 -0.09,0.97 -0.1,0.35 -0.28,0.74 -0.53,1.17 -0.17,0.31 -0.34,0.56 -0.49,0.76 -0.16,0.2 -0.29,0.4 -0.4,0.59 -0.08,0.14 -0.11,0.26 -0.08,0.35 0.03,0.1 0.14,0.2 0.32,0.31 l 3.95,2.27 c 0.16,0.1 0.3,0.13 0.43,0.1 0.12,-0.03 0.23,-0.12 0.31,-0.26 l 2.48,-4.29 c 0.02,-0.04 0.03,-0.08 0.03,-0.13 0,-0.05 -0.02,-0.1 -0.05,-0.16 -0.03,-0.05 -0.08,-0.1 -0.14,-0.15 -0.06,-0.05 -0.14,-0.11 -0.23,-0.16 -0.18,-0.11 -0.34,-0.16 -0.46,-0.17 -0.13,-0.01 -0.22,0.03 -0.27,0.11 l -2,3.46 -2.71,-1.57 c 0.12,-0.15 0.23,-0.31 0.34,-0.49 0.11,-0.17 0.23,-0.37 0.36,-0.6 0.31,-0.53 0.51,-1.04 0.61,-1.51 0.1,-0.48 0.1,-0.92 0.01,-1.32 -0.08,-0.41 -0.26,-0.78 -0.53,-1.12 -0.26,-0.33 -0.6,-0.62 -1.02,-0.86 z m 8.37,-2.12 c -0.24,-0.14 -0.5,-0.23 -0.77,-0.26 -0.27,-0.03 -0.53,-0.01 -0.79,0.07 -0.26,0.07 -0.5,0.19 -0.72,0.37 -0.22,0.17 -0.4,0.39 -0.56,0.66 -0.15,0.26 -0.25,0.53 -0.29,0.79 -0.04,0.26 -0.03,0.52 0.02,0.77 0.06,0.24 0.17,0.47 0.33,0.68 0.15,0.21 0.36,0.39 0.61,0.54 0.26,0.14 0.52,0.23 0.79,0.26 0.27,0.03 0.53,0.01 0.79,-0.07 0.25,-0.08 0.48,-0.2 0.7,-0.37 0.22,-0.18 0.41,-0.4 0.56,-0.66 0.15,-0.26 0.24,-0.52 0.29,-0.79 0.04,-0.27 0.03,-0.53 -0.02,-0.77 -0.06,-0.24 -0.16,-0.47 -0.32,-0.68 -0.16,-0.21 -0.37,-0.39 -0.62,-0.54 z m -0.57,0.93 c 0.13,0.07 0.24,0.17 0.33,0.28 0.1,0.11 0.16,0.23 0.2,0.36 0.04,0.13 0.05,0.26 0.03,0.4 -0.01,0.14 -0.06,0.27 -0.13,0.4 -0.07,0.13 -0.16,0.23 -0.27,0.31 -0.11,0.08 -0.23,0.13 -0.36,0.16 -0.14,0.04 -0.27,0.04 -0.41,0.02 -0.14,-0.02 -0.28,-0.07 -0.41,-0.15 -0.14,-0.08 -0.26,-0.18 -0.35,-0.29 -0.1,-0.12 -0.16,-0.24 -0.2,-0.37 -0.04,-0.13 -0.05,-0.27 -0.03,-0.41 0.02,-0.13 0.06,-0.27 0.14,-0.4 0.07,-0.12 0.16,-0.22 0.27,-0.3 0.11,-0.07 0.23,-0.13 0.36,-0.15 0.14,-0.03 0.27,-0.03 0.41,-0.01 0.14,0.02 0.28,0.07 0.42,0.15 z"
           style="fill:#595959;fill-opacity:1;fill-rule:nonzero;stroke:none"
           id="path344" /></g></g><g
       id="g346"><g
         id="g348"
         clip-path="url(#clipPath352)"><path
           d="m 734.6,167.71 c -0.44,-0.25 -0.89,-0.41 -1.33,-0.46 -0.45,-0.05 -0.88,0 -1.31,0.14 -0.42,0.14 -0.82,0.38 -1.2,0.73 -0.38,0.34 -0.73,0.78 -1.03,1.32 -0.19,0.32 -0.34,0.64 -0.45,0.95 -0.11,0.31 -0.19,0.6 -0.25,0.86 -0.05,0.26 -0.08,0.49 -0.09,0.67 0,0.19 0,0.32 0.01,0.37 0.02,0.06 0.03,0.11 0.06,0.15 0.02,0.04 0.05,0.08 0.09,0.13 0.05,0.04 0.1,0.09 0.17,0.14 0.07,0.05 0.15,0.1 0.26,0.16 0.18,0.1 0.31,0.16 0.4,0.16 0.09,0.01 0.16,-0.02 0.2,-0.09 0.02,-0.05 0.03,-0.16 0.03,-0.34 0,-0.18 0.02,-0.41 0.05,-0.67 0.03,-0.27 0.08,-0.57 0.17,-0.9 0.08,-0.33 0.22,-0.66 0.43,-1.01 0.19,-0.34 0.4,-0.61 0.64,-0.82 0.23,-0.21 0.47,-0.35 0.73,-0.44 0.25,-0.08 0.51,-0.11 0.77,-0.07 0.26,0.04 0.52,0.13 0.77,0.27 0.27,0.16 0.49,0.36 0.64,0.59 0.16,0.24 0.26,0.51 0.29,0.82 0.04,0.3 0.01,0.64 -0.09,1 -0.09,0.36 -0.25,0.74 -0.48,1.13 l -0.55,0.95 c -0.03,0.04 -0.04,0.09 -0.04,0.14 -0.01,0.05 0,0.1 0.02,0.15 0.03,0.05 0.07,0.1 0.12,0.16 0.06,0.05 0.13,0.11 0.24,0.17 0.09,0.06 0.18,0.09 0.25,0.11 0.07,0.03 0.13,0.03 0.18,0.03 0.06,-0.01 0.1,-0.02 0.14,-0.05 0.04,-0.02 0.07,-0.06 0.1,-0.1 l 0.48,-0.85 c 0.19,-0.33 0.41,-0.6 0.64,-0.81 0.24,-0.21 0.49,-0.36 0.75,-0.45 0.27,-0.09 0.54,-0.12 0.82,-0.09 0.28,0.03 0.55,0.12 0.83,0.28 0.19,0.12 0.37,0.26 0.51,0.43 0.15,0.17 0.25,0.36 0.31,0.56 0.06,0.21 0.07,0.44 0.03,0.68 -0.04,0.25 -0.14,0.51 -0.29,0.77 -0.17,0.29 -0.36,0.53 -0.59,0.72 -0.23,0.19 -0.44,0.36 -0.65,0.49 -0.21,0.13 -0.4,0.23 -0.56,0.31 -0.16,0.07 -0.25,0.13 -0.28,0.18 -0.02,0.04 -0.03,0.07 -0.03,0.11 -0.01,0.03 0.01,0.07 0.03,0.11 0.03,0.04 0.07,0.08 0.14,0.13 0.06,0.04 0.15,0.1 0.26,0.16 0.07,0.04 0.14,0.08 0.2,0.11 0.06,0.02 0.12,0.04 0.17,0.05 0.05,0.01 0.1,0.02 0.14,0.02 0.05,0 0.11,-0.01 0.18,-0.03 0.08,-0.02 0.2,-0.08 0.38,-0.17 0.17,-0.09 0.36,-0.22 0.57,-0.38 0.21,-0.16 0.42,-0.37 0.64,-0.61 0.22,-0.24 0.43,-0.52 0.61,-0.84 0.26,-0.45 0.43,-0.88 0.51,-1.28 0.08,-0.41 0.08,-0.78 0,-1.13 -0.07,-0.35 -0.23,-0.66 -0.45,-0.94 -0.23,-0.28 -0.52,-0.53 -0.88,-0.73 -0.3,-0.18 -0.61,-0.3 -0.91,-0.37 -0.31,-0.07 -0.61,-0.09 -0.9,-0.05 -0.29,0.04 -0.57,0.13 -0.85,0.27 -0.27,0.14 -0.52,0.34 -0.74,0.61 l -0.02,-0.01 c 0.16,-0.36 0.26,-0.71 0.28,-1.06 0.03,-0.36 0,-0.69 -0.08,-1 -0.09,-0.32 -0.23,-0.61 -0.43,-0.88 -0.2,-0.26 -0.46,-0.48 -0.76,-0.66 z m 4.97,-7.77 c -0.42,-0.24 -0.87,-0.41 -1.34,-0.51 -0.47,-0.1 -0.93,-0.1 -1.39,-0.01 -0.46,0.1 -0.9,0.3 -1.32,0.61 -0.42,0.31 -0.79,0.74 -1.12,1.31 -0.23,0.4 -0.39,0.78 -0.47,1.15 -0.07,0.37 -0.09,0.72 -0.04,1.06 0.06,0.33 0.17,0.65 0.35,0.96 0.19,0.31 0.42,0.61 0.71,0.9 0.29,0.29 0.63,0.57 1.02,0.85 0.38,0.27 0.81,0.55 1.28,0.82 0.41,0.24 0.84,0.46 1.29,0.66 0.45,0.2 0.91,0.35 1.37,0.46 0.46,0.12 0.92,0.18 1.38,0.18 0.46,0 0.9,-0.07 1.33,-0.22 0.43,-0.15 0.84,-0.39 1.23,-0.71 0.39,-0.33 0.74,-0.77 1.05,-1.32 0.11,-0.18 0.21,-0.37 0.29,-0.58 0.09,-0.2 0.16,-0.39 0.22,-0.57 0.05,-0.18 0.09,-0.34 0.11,-0.48 0.02,-0.13 0.02,-0.23 0.01,-0.28 0,-0.05 -0.02,-0.09 -0.04,-0.13 -0.02,-0.03 -0.05,-0.07 -0.08,-0.1 -0.03,-0.03 -0.07,-0.06 -0.12,-0.1 -0.04,-0.03 -0.1,-0.06 -0.17,-0.1 -0.09,-0.06 -0.17,-0.1 -0.23,-0.13 -0.07,-0.04 -0.13,-0.06 -0.18,-0.06 -0.05,-0.01 -0.09,-0.01 -0.12,0.01 -0.04,0.02 -0.07,0.05 -0.1,0.09 -0.03,0.06 -0.05,0.14 -0.07,0.26 -0.02,0.11 -0.05,0.25 -0.09,0.41 -0.03,0.16 -0.09,0.34 -0.16,0.55 -0.08,0.22 -0.19,0.45 -0.34,0.7 -0.27,0.47 -0.59,0.81 -0.97,1.04 -0.39,0.22 -0.8,0.35 -1.24,0.37 -0.44,0.03 -0.9,-0.02 -1.38,-0.17 -0.48,-0.14 -0.96,-0.33 -1.42,-0.58 0.15,-0.09 0.31,-0.19 0.47,-0.31 0.17,-0.12 0.34,-0.26 0.51,-0.41 0.17,-0.16 0.34,-0.34 0.5,-0.53 0.16,-0.19 0.31,-0.41 0.45,-0.66 0.31,-0.52 0.49,-1 0.56,-1.44 0.06,-0.44 0.03,-0.85 -0.09,-1.21 -0.13,-0.37 -0.33,-0.7 -0.62,-0.99 -0.29,-0.29 -0.63,-0.56 -1.03,-0.79 z m -0.87,1.24 c 0.29,0.16 0.54,0.34 0.74,0.54 0.21,0.19 0.35,0.4 0.44,0.63 0.08,0.23 0.11,0.49 0.07,0.76 -0.04,0.28 -0.16,0.58 -0.35,0.91 -0.1,0.18 -0.23,0.36 -0.37,0.52 -0.13,0.17 -0.28,0.32 -0.44,0.46 -0.16,0.14 -0.32,0.27 -0.49,0.38 -0.16,0.11 -0.33,0.21 -0.49,0.28 -0.65,-0.37 -1.16,-0.72 -1.55,-1.05 -0.38,-0.33 -0.66,-0.65 -0.83,-0.96 -0.18,-0.31 -0.25,-0.61 -0.23,-0.91 0.03,-0.3 0.13,-0.61 0.31,-0.92 0.18,-0.32 0.4,-0.57 0.66,-0.73 0.25,-0.17 0.53,-0.27 0.82,-0.31 0.29,-0.03 0.58,-0.02 0.88,0.06 0.29,0.07 0.57,0.18 0.83,0.34 z m 7.24,-8.28 c -0.74,-0.43 -1.45,-0.76 -2.13,-1 -0.68,-0.23 -1.32,-0.34 -1.92,-0.33 -0.6,0.02 -1.15,0.18 -1.64,0.48 -0.5,0.3 -0.93,0.77 -1.3,1.41 -0.35,0.61 -0.54,1.18 -0.56,1.73 -0.03,0.54 0.1,1.06 0.37,1.55 0.28,0.5 0.69,0.98 1.25,1.44 0.55,0.47 1.22,0.93 2.02,1.39 0.74,0.43 1.45,0.76 2.14,0.99 0.68,0.24 1.32,0.35 1.92,0.33 0.6,-0.01 1.14,-0.17 1.64,-0.47 0.49,-0.3 0.92,-0.76 1.29,-1.4 0.36,-0.62 0.55,-1.19 0.57,-1.73 0.02,-0.55 -0.1,-1.07 -0.38,-1.56 -0.27,-0.5 -0.69,-0.98 -1.24,-1.44 -0.55,-0.47 -1.23,-0.93 -2.03,-1.39 z m -0.85,1.27 c 0.49,0.28 0.91,0.54 1.27,0.8 0.37,0.26 0.68,0.5 0.93,0.74 0.26,0.24 0.46,0.47 0.61,0.7 0.15,0.23 0.25,0.46 0.3,0.69 0.05,0.23 0.05,0.45 0,0.68 -0.04,0.23 -0.14,0.46 -0.28,0.7 -0.24,0.43 -0.54,0.71 -0.89,0.86 -0.35,0.15 -0.75,0.2 -1.18,0.15 -0.44,-0.05 -0.91,-0.18 -1.41,-0.4 -0.5,-0.21 -1.02,-0.47 -1.56,-0.79 -0.72,-0.41 -1.31,-0.8 -1.78,-1.17 -0.46,-0.37 -0.8,-0.73 -1.03,-1.07 -0.22,-0.35 -0.34,-0.69 -0.34,-1.02 0,-0.34 0.11,-0.69 0.32,-1.05 0.16,-0.27 0.34,-0.49 0.56,-0.65 0.21,-0.16 0.44,-0.27 0.7,-0.33 0.25,-0.05 0.52,-0.06 0.82,-0.03 0.29,0.04 0.59,0.11 0.91,0.21 0.32,0.11 0.65,0.24 1,0.41 0.34,0.17 0.69,0.36 1.05,0.57 z m 7.26,-4.03 c -0.24,-0.14 -0.5,-0.23 -0.77,-0.26 -0.26,-0.03 -0.53,-0.01 -0.78,0.07 -0.26,0.07 -0.5,0.19 -0.72,0.37 -0.22,0.17 -0.41,0.39 -0.56,0.66 -0.16,0.26 -0.25,0.53 -0.3,0.79 -0.04,0.26 -0.03,0.52 0.03,0.77 0.05,0.24 0.16,0.47 0.32,0.68 0.16,0.21 0.36,0.39 0.62,0.54 0.25,0.14 0.51,0.23 0.78,0.26 0.28,0.03 0.54,0.01 0.79,-0.07 0.25,-0.08 0.48,-0.2 0.7,-0.37 0.22,-0.18 0.41,-0.4 0.56,-0.66 0.15,-0.26 0.25,-0.52 0.29,-0.79 0.04,-0.27 0.03,-0.53 -0.02,-0.77 -0.06,-0.24 -0.16,-0.47 -0.32,-0.68 -0.16,-0.21 -0.36,-0.39 -0.62,-0.54 z m -0.57,0.93 c 0.13,0.07 0.25,0.17 0.34,0.28 0.09,0.11 0.15,0.23 0.19,0.36 0.04,0.13 0.05,0.26 0.04,0.4 -0.02,0.14 -0.07,0.27 -0.14,0.4 -0.07,0.13 -0.16,0.23 -0.27,0.31 -0.11,0.08 -0.23,0.13 -0.36,0.16 -0.13,0.04 -0.27,0.04 -0.41,0.02 -0.14,-0.02 -0.27,-0.07 -0.4,-0.15 -0.15,-0.08 -0.27,-0.18 -0.36,-0.29 -0.1,-0.12 -0.16,-0.24 -0.2,-0.37 -0.04,-0.13 -0.05,-0.27 -0.03,-0.41 0.02,-0.13 0.07,-0.27 0.14,-0.4 0.07,-0.12 0.16,-0.22 0.27,-0.3 0.11,-0.07 0.24,-0.13 0.37,-0.15 0.13,-0.03 0.27,-0.03 0.41,-0.01 0.14,0.02 0.27,0.07 0.41,0.15 z"
           style="fill:#595959;fill-opacity:1;fill-rule:nonzero;stroke:none"
           id="path354" /></g></g><g
       id="g356"><g
         id="g358"
         clip-path="url(#clipPath362)"><text
           transform="matrix(1,0,0,-1,390.27,120.13)"
           style="font-variant:normal;font-weight:normal;font-size:19.475px;font-family:Calibri;-inkscape-font-specification:Calibri;writing-mode:lr-tb;fill:#595959;fill-opacity:1;fill-rule:nonzero;stroke:none"
           id="text366"><tspan
             x="0 8.84165 18.03385 25.823851 35.3666 39.943226 49.485973 59.71035 64.345398 73.518127 80.314903 89.468147 99.692528 109.9948"
             y="0"
             sodipodi:role="line"
             id="tspan364">Fase en grados</tspan></text></g></g><path
       d="m 556.22,419.32 h 210.46 v 60.285 H 556.22 Z"
       style="fill:#ffffff;fill-opacity:1;fill-rule:evenodd;stroke:none"
       id="path368" /><path
       d="m 556.22,419.32 h 210.46 v 60.285 H 556.22 Z"
       style="fill:none;stroke:#000000;stroke-width:1.3265;stroke-linecap:butt;stroke-linejoin:round;stroke-miterlimit:10;stroke-dasharray:none;stroke-opacity:1"
       id="path370" /><path
       d="m 572.32,469.56 h 33.95"
       style="fill:none;stroke:#4472c4;stroke-width:3.9794;stroke-linecap:round;stroke-linejoin:round;stroke-miterlimit:10;stroke-dasharray:none;stroke-opacity:1"
       id="path372" /><path
       d="m 593.54,469.81 c 0,-2.44 -1.98,-4.42 -4.42,-4.42 -2.44,0 -4.42,1.98 -4.42,4.42 0,2.44 1.98,4.42 4.42,4.42 2.44,0 4.42,-1.98 4.42,-4.42 z"
       style="fill:#4472c4;fill-opacity:1;fill-rule:nonzero;stroke:none"
       id="path374" /><path
       d="m 593.54,469.81 c 0,-2.44 -1.98,-4.42 -4.42,-4.42 -2.44,0 -4.42,1.98 -4.42,4.42 0,2.44 1.98,4.42 4.42,4.42 2.44,0 4.42,-1.98 4.42,-4.42 z"
       style="fill:none;stroke:#4472c4;stroke-width:1.3265;stroke-linecap:butt;stroke-linejoin:round;stroke-miterlimit:10;stroke-dasharray:none;stroke-opacity:1"
       id="path376" /><g
       id="g378"><g
         id="g380"
         clip-path="url(#clipPath384)"><text
           transform="matrix(1,0,0,-1,610,464.3)"
           style="font-variant:normal;font-weight:normal;font-size:17.675px;font-family:Calibri;-inkscape-font-specification:Calibri;writing-mode:lr-tb;fill:#595959;fill-opacity:1;fill-rule:nonzero;stroke:none"
           id="text388"><tspan
             x="0 15.2005 23.313326 31.850349 35.756523 40.334351 49.543026 59.069851 68.278526 74.288025 79.590523 91.291374 100.4647 106.4742 115.68288 125.2097"
             y="0"
             sodipodi:role="line"
             id="tspan386">MSE Input-Output</tspan></text></g></g><path
       d="m 572.32,449.46 h 33.95"
       style="fill:none;stroke:#ed7d31;stroke-width:3.9794;stroke-linecap:round;stroke-linejoin:round;stroke-miterlimit:10;stroke-dasharray:none;stroke-opacity:1"
       id="path390" /><path
       d="m 584.7,445.23 h 8.843 v 8.843 H 584.7 Z"
       style="fill:#ed7d31;fill-opacity:1;fill-rule:nonzero;stroke:none"
       id="path392" /><path
       d="m 584.7,445.23 h 8.843 v 8.843 H 584.7 Z"
       style="fill:none;stroke:#ed7d31;stroke-width:1.3265;stroke-linecap:butt;stroke-linejoin:round;stroke-miterlimit:10;stroke-dasharray:none;stroke-opacity:1"
       id="path394" /><g
       id="g396"><g
         id="g398"
         clip-path="url(#clipPath402)"><text
           transform="matrix(1,0,0,-1,610,444.2)"
           style="font-variant:normal;font-weight:normal;font-size:17.7px;font-family:Calibri;-inkscape-font-specification:Calibri;writing-mode:lr-tb;fill:#595959;fill-opacity:1;fill-rule:nonzero;stroke:none"
           id="text406"><tspan
             x="0 8.4960003 18.036301 26.850901 32.904301 41.382599 45.2766 53.754902 57.684299 65.808601 74.286903 78.570297 82.464302 91.668297 100.1466 104.3946 114.6429 123.8469 132.6615"
             y="0"
             sodipodi:role="line"
             id="tspan404">Energia Salida AC=2</tspan></text></g></g><path
       d="m 572.32,429.37 h 33.95"
       style="fill:none;stroke:#70ad47;stroke-width:3.9794;stroke-linecap:round;stroke-linejoin:round;stroke-miterlimit:10;stroke-dasharray:none;stroke-opacity:1"
       id="path408" /><path
       d="m 589.29,433.91 4.25,-8.49 h -8.49 z"
       style="fill:#70ad47;fill-opacity:1;fill-rule:nonzero;stroke:none"
       id="path410" /><path
       d="m 589.29,433.91 4.25,-8.49 h -8.49 z"
       style="fill:none;stroke:#a5a5a5;stroke-width:1.3265;stroke-linecap:butt;stroke-linejoin:round;stroke-miterlimit:10;stroke-dasharray:none;stroke-opacity:1"
       id="path412" /><g
       id="g414"><g
         id="g416"
         clip-path="url(#clipPath420)"><text
           transform="matrix(1,0,0,-1,610,424.1)"
           style="font-variant:normal;font-weight:normal;font-size:17.7px;font-family:Calibri;-inkscape-font-specification:Calibri;writing-mode:lr-tb;fill:#595959;fill-opacity:1;fill-rule:nonzero;stroke:none"
           id="text424"><tspan
             x="0 8.4960003 18.036301 26.850901 32.904301 41.382599 45.2766 53.754902 57.684299 66.516602 75.720596 81.720901 87.738899 96.217201 105.4389"
             y="0"
             sodipodi:role="line"
             id="tspan422">Energia Entrada</tspan></text></g></g><g
       id="g426"><g
         id="g428"
         clip-path="url(#clipPath432)"><path
           d="m 50.931,95.042 h 739.98 v 405.01 H 50.931 Z"
           style="fill:none;stroke:#d9d9d9;stroke-width:1.3265;stroke-linecap:butt;stroke-linejoin:round;stroke-miterlimit:10;stroke-dasharray:none;stroke-opacity:1"
           id="path434" /></g></g></g></svg>
