<?xml version="1.0" encoding="UTF-8" standalone="no"?>
<!-- Created with Inkscape (http://www.inkscape.org/) -->

<svg
   version="1.1"
   id="svg2"
   xml:space="preserve"
   width="1122.4"
   height="793.59998"
   viewBox="0 0 1122.4 793.59998"
   sodipodi:docname="ErroresFrecuencia.svg"
   inkscape:version="1.1 (ce6663b3b7, 2021-05-25)"
   xmlns:inkscape="http://www.inkscape.org/namespaces/inkscape"
   xmlns:sodipodi="http://sodipodi.sourceforge.net/DTD/sodipodi-0.dtd"
   xmlns="http://www.w3.org/2000/svg"
   xmlns:svg="http://www.w3.org/2000/svg"><defs
     id="defs6"><clipPath
       clipPathUnits="userSpaceOnUse"
       id="clipPath164"><path
         d="M 119.62,232.59 207.63,80.151 187.62,68.599 h -0.16 L 99.489,220.96 Z"
         clip-rule="evenodd"
         id="path162" /></clipPath><clipPath
       clipPathUnits="userSpaceOnUse"
       id="clipPath174"><path
         d="M 119.62,232.59 207.63,80.151 187.62,68.599 h -0.16 L 99.489,220.96 Z"
         clip-rule="evenodd"
         id="path172" /></clipPath><clipPath
       clipPathUnits="userSpaceOnUse"
       id="clipPath184"><path
         d="m 193.4,207.49 54.21,-93.88 -20.14,-11.63 -54.2,93.89 z"
         clip-rule="evenodd"
         id="path182" /></clipPath><clipPath
       clipPathUnits="userSpaceOnUse"
       id="clipPath194"><path
         d="m 193.4,207.49 54.21,-93.88 -20.14,-11.63 -54.2,93.89 z"
         clip-rule="evenodd"
         id="path192" /></clipPath><clipPath
       clipPathUnits="userSpaceOnUse"
       id="clipPath204"><path
         d="M 231.08,244.93 332.89,68.599 h -26.85 l -95.1,164.711 z"
         clip-rule="evenodd"
         id="path202" /></clipPath><clipPath
       clipPathUnits="userSpaceOnUse"
       id="clipPath214"><path
         d="M 231.08,244.93 332.89,68.599 h -26.85 l -95.1,164.711 z"
         clip-rule="evenodd"
         id="path212" /></clipPath><clipPath
       clipPathUnits="userSpaceOnUse"
       id="clipPath224"><path
         d="M 290.37,244.93 392.18,68.599 H 365.33 L 270.24,233.31 Z"
         clip-rule="evenodd"
         id="path222" /></clipPath><clipPath
       clipPathUnits="userSpaceOnUse"
       id="clipPath234"><path
         d="M 290.37,244.93 392.18,68.599 H 365.33 L 270.24,233.31 Z"
         clip-rule="evenodd"
         id="path232" /></clipPath><clipPath
       clipPathUnits="userSpaceOnUse"
       id="clipPath244"><path
         d="M 335.18,270.03 451.47,68.599 H 424.62 L 315.04,258.4 Z"
         clip-rule="evenodd"
         id="path242" /></clipPath><clipPath
       clipPathUnits="userSpaceOnUse"
       id="clipPath254"><path
         d="M 335.18,270.03 451.47,68.599 H 424.62 L 315.04,258.4 Z"
         clip-rule="evenodd"
         id="path252" /></clipPath><clipPath
       clipPathUnits="userSpaceOnUse"
       id="clipPath264"><path
         d="m 439.32,192.35 33.8,-58.55 -20.14,-11.63 -33.8,58.55 z"
         clip-rule="evenodd"
         id="path262" /></clipPath><clipPath
       clipPathUnits="userSpaceOnUse"
       id="clipPath274"><path
         d="M 462.5,254.88 570.05,68.599 H 543.21 L 442.37,243.26 Z"
         clip-rule="evenodd"
         id="path272" /></clipPath><clipPath
       clipPathUnits="userSpaceOnUse"
       id="clipPath284"><path
         d="M 536.28,229.79 620.52,83.879 600.39,72.254 516.15,218.16 Z"
         clip-rule="evenodd"
         id="path282" /></clipPath><clipPath
       clipPathUnits="userSpaceOnUse"
       id="clipPath294"><path
         d="M 595.58,229.79 679.82,83.879 659.68,72.254 575.44,218.16 Z"
         clip-rule="evenodd"
         id="path292" /></clipPath><clipPath
       clipPathUnits="userSpaceOnUse"
       id="clipPath304"><path
         d="m 676.48,192.35 33.81,-58.55 -20.14,-11.63 -33.8,58.55 z"
         clip-rule="evenodd"
         id="path302" /></clipPath><clipPath
       clipPathUnits="userSpaceOnUse"
       id="clipPath314"><path
         d="M 721.29,217.44 788.89,100.34 768.76,88.719 701.15,205.82 Z"
         clip-rule="evenodd"
         id="path312" /></clipPath><clipPath
       clipPathUnits="userSpaceOnUse"
       id="clipPath324"><path
         d="M 51.2,68.6 H 790.6 V 526.4 H 51.2 Z"
         clip-rule="evenodd"
         id="path322" /></clipPath><clipPath
       clipPathUnits="userSpaceOnUse"
       id="clipPath336"><path
         d="M 51.2,68.6 H 790.6 V 526.4 H 51.2 Z"
         clip-rule="evenodd"
         id="path334" /></clipPath><clipPath
       clipPathUnits="userSpaceOnUse"
       id="clipPath348"><path
         d="M 51.2,68.6 H 790.6 V 526.4 H 51.2 Z"
         clip-rule="evenodd"
         id="path346" /></clipPath><clipPath
       clipPathUnits="userSpaceOnUse"
       id="clipPath360"><path
         d="M 51.2,68.6 H 790.6 V 526.4 H 51.2 Z"
         clip-rule="evenodd"
         id="path358" /></clipPath><clipPath
       clipPathUnits="userSpaceOnUse"
       id="clipPath372"><path
         d="M 51.2,68.6 H 790.6 V 526.4 H 51.2 Z"
         clip-rule="evenodd"
         id="path370" /></clipPath><clipPath
       clipPathUnits="userSpaceOnUse"
       id="clipPath384"><path
         d="M 51.2,68.6 H 790.6 V 526.4 H 51.2 Z"
         clip-rule="evenodd"
         id="path382" /></clipPath><clipPath
       clipPathUnits="userSpaceOnUse"
       id="clipPath396"><path
         d="M 51.2,68.6 H 790.6 V 526.4 H 51.2 Z"
         clip-rule="evenodd"
         id="path394" /></clipPath><clipPath
       clipPathUnits="userSpaceOnUse"
       id="clipPath408"><path
         d="M 51.2,68.6 H 790.6 V 526.4 H 51.2 Z"
         clip-rule="evenodd"
         id="path406" /></clipPath><clipPath
       clipPathUnits="userSpaceOnUse"
       id="clipPath420"><path
         d="M 51.2,68.6 H 790.6 V 526.4 H 51.2 Z"
         clip-rule="evenodd"
         id="path418" /></clipPath><clipPath
       clipPathUnits="userSpaceOnUse"
       id="clipPath432"><path
         d="M 51.2,68.6 H 790.6 V 526.4 H 51.2 Z"
         clip-rule="evenodd"
         id="path430" /></clipPath><clipPath
       clipPathUnits="userSpaceOnUse"
       id="clipPath444"><path
         d="M 51.2,68.6 H 790.6 V 526.4 H 51.2 Z"
         clip-rule="evenodd"
         id="path442" /></clipPath><clipPath
       clipPathUnits="userSpaceOnUse"
       id="clipPath456"><path
         d="M 51.2,68.6 H 790.6 V 526.4 H 51.2 Z"
         clip-rule="evenodd"
         id="path454" /></clipPath><clipPath
       clipPathUnits="userSpaceOnUse"
       id="clipPath468"><path
         d="M 51.2,68.6 H 790.6 V 526.4 H 51.2 Z"
         clip-rule="evenodd"
         id="path466" /></clipPath><clipPath
       clipPathUnits="userSpaceOnUse"
       id="clipPath490"><path
         d="M 51.2,68.6 H 790.6 V 526.4 H 51.2 Z"
         clip-rule="evenodd"
         id="path488" /></clipPath><clipPath
       clipPathUnits="userSpaceOnUse"
       id="clipPath502"><path
         d="M 51.2,68.6 H 790.6 V 526.4 H 51.2 Z"
         clip-rule="evenodd"
         id="path500" /></clipPath><clipPath
       clipPathUnits="userSpaceOnUse"
       id="clipPath514"><path
         d="M 51.2,68.6 H 790.6 V 526.4 H 51.2 Z"
         clip-rule="evenodd"
         id="path512" /></clipPath><clipPath
       clipPathUnits="userSpaceOnUse"
       id="clipPath532"><path
         d="M 51.2,68.6 H 790.6 V 526.4 H 51.2 Z"
         clip-rule="evenodd"
         id="path530" /></clipPath><clipPath
       clipPathUnits="userSpaceOnUse"
       id="clipPath550"><path
         d="M 51.2,68.6 H 790.6 V 526.4 H 51.2 Z"
         clip-rule="evenodd"
         id="path548" /></clipPath><clipPath
       clipPathUnits="userSpaceOnUse"
       id="clipPath562"><path
         d="M 50.2,68 H 791.6 V 527.4 H 50.2 Z"
         clip-rule="evenodd"
         id="path560" /></clipPath></defs><sodipodi:namedview
     id="namedview4"
     pagecolor="#ffffff"
     bordercolor="#666666"
     borderopacity="1.0"
     inkscape:pageshadow="2"
     inkscape:pageopacity="0.0"
     inkscape:pagecheckerboard="0"
     showgrid="false"
     inkscape:zoom="1.0597279"
     inkscape:cx="560.99309"
     inkscape:cy="321.30891"
     inkscape:window-width="1920"
     inkscape:window-height="1056"
     inkscape:window-x="1366"
     inkscape:window-y="24"
     inkscape:window-maximized="1"
     inkscape:current-layer="g8" /><g
     id="g8"
     inkscape:groupmode="layer"
     inkscape:label="ErroresFrecuencia"
     transform="matrix(1.3333333,0,0,-1.3333333,0,793.6)"><path
       d="m 51.015,68.599 h 739.78 v 457.76 H 51.015 Z"
       style="fill:#ffffff;fill-opacity:1;fill-rule:evenodd;stroke:none"
       id="path10" /><path
       d="M 117.63,508.27 V 179.35 M 147.4,508.27 V 179.35 m 29.34,328.92 V 179.35 m 29.72,328.92 V 179.35 m 29.71,328.92 V 179.35 m 29.72,328.92 V 179.35 m 29.72,328.92 V 179.35 m 29.71,328.92 V 179.35 m 29.34,328.92 V 179.35 m 29.72,328.92 V 179.35 m 29.71,328.92 V 179.35 m 29.72,328.92 V 179.35 m 29.72,328.92 V 179.35 m 29.33,328.92 V 179.35 m 29.72,328.92 V 179.35 M 562.3,508.27 V 179.35 m 29.72,328.92 V 179.35 m 29.71,328.92 V 179.35 m 29.34,328.92 V 179.35 m 29.72,328.92 V 179.35 M 710.5,508.27 V 179.35 m 29.72,328.92 V 179.35 m 29.62,328.92 V 179.35"
       style="fill:none;stroke:#f2f2f2;stroke-width:1.4291;stroke-linecap:butt;stroke-linejoin:round;stroke-miterlimit:10;stroke-dasharray:none;stroke-opacity:1"
       id="path12" /><path
       d="M 117.63,179.35 H 769.84 M 117.63,245 h 652.21 m -652.21,33.14 h 652.21 m -652.21,32.77 h 652.21 m -652.21,32.76 h 652.21 m -652.21,33.15 h 652.21 m -652.21,32.76 h 652.21 m -652.21,32.77 h 652.21 m -652.21,33.14 h 652.21 m -652.21,32.78 h 652.21"
       style="fill:none;stroke:#d9d9d9;stroke-width:1.4291;stroke-linecap:butt;stroke-linejoin:round;stroke-miterlimit:10;stroke-dasharray:none;stroke-opacity:1"
       id="path14" /><path
       d="M 117.63,179.35 H 769.84 V 508.28 H 117.63 Z"
       style="fill:none;stroke:#000000;stroke-width:1.4291;stroke-linecap:butt;stroke-linejoin:round;stroke-miterlimit:10;stroke-dasharray:none;stroke-opacity:1"
       id="path16" /><path
       d="M 117.63,212.24 H 769.84"
       style="fill:none;stroke:#d9d9d9;stroke-width:1.4291;stroke-linecap:butt;stroke-linejoin:round;stroke-miterlimit:10;stroke-dasharray:none;stroke-opacity:1"
       id="path18" /><path
       d="m 147.27,277.76 59.19,17.14 59.43,24.39 59.43,-40.77 59.06,-66.29 59.43,0.11 59.05,-0.11 59.44,66.29 59.43,41.89 59.06,-25.51 59.41,-17.14"
       style="fill:none;stroke:#ed7d31;stroke-width:4.2861;stroke-linecap:round;stroke-linejoin:round;stroke-miterlimit:10;stroke-dasharray:none;stroke-opacity:1"
       id="path20" /><path
       d="m 142.26,273.95 h 9.1437 v 9.1437 H 142.26 Z"
       style="fill:#ed7d31;fill-opacity:1;fill-rule:nonzero;stroke:none"
       id="path22" /><path
       d="m 142.26,273.95 h 9.1437 v 9.1437 H 142.26 Z"
       style="fill:none;stroke:#ed7d31;stroke-width:0.95247;stroke-linecap:butt;stroke-linejoin:round;stroke-miterlimit:10;stroke-dasharray:none;stroke-opacity:1"
       id="path24" /><path
       d="m 201.69,290.71 h 9.1437 v 9.1437 H 201.69 Z"
       style="fill:#ed7d31;fill-opacity:1;fill-rule:nonzero;stroke:none"
       id="path26" /><path
       d="m 201.69,290.71 h 9.1437 v 9.1437 H 201.69 Z"
       style="fill:none;stroke:#ed7d31;stroke-width:0.95247;stroke-linecap:butt;stroke-linejoin:round;stroke-miterlimit:10;stroke-dasharray:none;stroke-opacity:1"
       id="path28" /><path
       d="m 260.75,315.1 h 9.1437 v 9.1437 H 260.75 Z"
       style="fill:#ed7d31;fill-opacity:1;fill-rule:nonzero;stroke:none"
       id="path30" /><path
       d="m 260.75,315.1 h 9.1437 v 9.1437 H 260.75 Z"
       style="fill:none;stroke:#ed7d31;stroke-width:0.95247;stroke-linecap:butt;stroke-linejoin:round;stroke-miterlimit:10;stroke-dasharray:none;stroke-opacity:1"
       id="path32" /><path
       d="m 320.18,274.71 h 9.1437 v 9.1437 H 320.18 Z"
       style="fill:#ed7d31;fill-opacity:1;fill-rule:nonzero;stroke:none"
       id="path34" /><path
       d="m 320.18,274.71 h 9.1437 v 9.1437 H 320.18 Z"
       style="fill:none;stroke:#ed7d31;stroke-width:0.95247;stroke-linecap:butt;stroke-linejoin:round;stroke-miterlimit:10;stroke-dasharray:none;stroke-opacity:1"
       id="path36" /><path
       d="m 379.62,208.42 h 9.1437 v 9.1437 H 379.62 Z"
       style="fill:#ed7d31;fill-opacity:1;fill-rule:nonzero;stroke:none"
       id="path38" /><path
       d="m 379.62,208.42 h 9.1437 v 9.1437 H 379.62 Z"
       style="fill:none;stroke:#ed7d31;stroke-width:0.95247;stroke-linecap:butt;stroke-linejoin:round;stroke-miterlimit:10;stroke-dasharray:none;stroke-opacity:1"
       id="path40" /><path
       d="m 438.67,208.42 h 9.1437 v 9.1437 H 438.67 Z"
       style="fill:#ed7d31;fill-opacity:1;fill-rule:nonzero;stroke:none"
       id="path42" /><path
       d="m 438.67,208.42 h 9.1437 v 9.1437 H 438.67 Z"
       style="fill:none;stroke:#ed7d31;stroke-width:0.95247;stroke-linecap:butt;stroke-linejoin:round;stroke-miterlimit:10;stroke-dasharray:none;stroke-opacity:1"
       id="path44" /><path
       d="m 498.1,208.42 h 9.1437 v 9.1437 H 498.1 Z"
       style="fill:#ed7d31;fill-opacity:1;fill-rule:nonzero;stroke:none"
       id="path46" /><path
       d="m 498.1,208.42 h 9.1437 v 9.1437 H 498.1 Z"
       style="fill:none;stroke:#ed7d31;stroke-width:0.95247;stroke-linecap:butt;stroke-linejoin:round;stroke-miterlimit:10;stroke-dasharray:none;stroke-opacity:1"
       id="path48" /><path
       d="m 557.54,274.71 h 9.1437 v 9.1437 H 557.54 Z"
       style="fill:#ed7d31;fill-opacity:1;fill-rule:nonzero;stroke:none"
       id="path50" /><path
       d="m 557.54,274.71 h 9.1437 v 9.1437 H 557.54 Z"
       style="fill:none;stroke:#ed7d31;stroke-width:0.95247;stroke-linecap:butt;stroke-linejoin:round;stroke-miterlimit:10;stroke-dasharray:none;stroke-opacity:1"
       id="path52" /><path
       d="m 616.59,316.24 h 9.1437 v 9.1437 H 616.59 Z"
       style="fill:#ed7d31;fill-opacity:1;fill-rule:nonzero;stroke:none"
       id="path54" /><path
       d="m 616.59,316.24 h 9.1437 v 9.1437 H 616.59 Z"
       style="fill:none;stroke:#ed7d31;stroke-width:0.95247;stroke-linecap:butt;stroke-linejoin:round;stroke-miterlimit:10;stroke-dasharray:none;stroke-opacity:1"
       id="path56" /><path
       d="m 676.02,290.71 h 9.1437 v 9.1437 H 676.02 Z"
       style="fill:#ed7d31;fill-opacity:1;fill-rule:nonzero;stroke:none"
       id="path58" /><path
       d="m 676.02,290.71 h 9.1437 v 9.1437 H 676.02 Z"
       style="fill:none;stroke:#ed7d31;stroke-width:0.95247;stroke-linecap:butt;stroke-linejoin:round;stroke-miterlimit:10;stroke-dasharray:none;stroke-opacity:1"
       id="path60" /><path
       d="m 735.08,273.95 h 9.1437 v 9.1437 H 735.08 Z"
       style="fill:#ed7d31;fill-opacity:1;fill-rule:nonzero;stroke:none"
       id="path62" /><path
       d="m 735.08,273.95 h 9.1437 v 9.1437 H 735.08 Z"
       style="fill:none;stroke:#ed7d31;stroke-width:0.95247;stroke-linecap:butt;stroke-linejoin:round;stroke-miterlimit:10;stroke-dasharray:none;stroke-opacity:1"
       id="path64" /><path
       d="m 147.27,265.95 59.19,55.24 59.43,-0.38 59.43,-67.43 59.06,171.44 59.43,5.83 59.05,-5.83 59.44,-171.7 59.43,67.69 59.06,0.38 59.41,-55.24"
       style="fill:none;stroke:#4472c4;stroke-width:4.2861;stroke-linecap:round;stroke-linejoin:round;stroke-miterlimit:10;stroke-dasharray:none;stroke-opacity:1"
       id="path66" /><path
       d="m 151.4,266.33 c 0,-2.52 -2.04,-4.57 -4.57,-4.57 -2.52,0 -4.57,2.05 -4.57,4.57 0,2.53 2.05,4.57 4.57,4.57 2.53,0 4.57,-2.04 4.57,-4.57 z"
       style="fill:#4472c4;fill-opacity:1;fill-rule:nonzero;stroke:none"
       id="path68" /><path
       d="m 151.4,266.33 c 0,-2.52 -2.04,-4.57 -4.57,-4.57 -2.52,0 -4.57,2.05 -4.57,4.57 0,2.53 2.05,4.57 4.57,4.57 2.53,0 4.57,-2.04 4.57,-4.57 z"
       style="fill:none;stroke:#4472c4;stroke-width:0.95247;stroke-linecap:butt;stroke-linejoin:round;stroke-miterlimit:10;stroke-dasharray:none;stroke-opacity:1"
       id="path70" /><path
       d="m 210.84,321.95 c 0,-2.52 -2.05,-4.57 -4.57,-4.57 -2.53,0 -4.58,2.05 -4.58,4.57 0,2.53 2.05,4.58 4.58,4.58 2.52,0 4.57,-2.05 4.57,-4.58 z"
       style="fill:#4472c4;fill-opacity:1;fill-rule:nonzero;stroke:none"
       id="path72" /><path
       d="m 210.84,321.95 c 0,-2.52 -2.05,-4.57 -4.57,-4.57 -2.53,0 -4.58,2.05 -4.58,4.57 0,2.53 2.05,4.58 4.58,4.58 2.52,0 4.57,-2.05 4.57,-4.58 z"
       style="fill:none;stroke:#4472c4;stroke-width:0.95247;stroke-linecap:butt;stroke-linejoin:round;stroke-miterlimit:10;stroke-dasharray:none;stroke-opacity:1"
       id="path74" /><path
       d="m 269.89,321.57 c 0,-2.52 -2.05,-4.57 -4.57,-4.57 -2.53,0 -4.57,2.05 -4.57,4.57 0,2.53 2.04,4.58 4.57,4.58 2.52,0 4.57,-2.05 4.57,-4.58 z"
       style="fill:#4472c4;fill-opacity:1;fill-rule:nonzero;stroke:none"
       id="path76" /><path
       d="m 269.89,321.57 c 0,-2.52 -2.05,-4.57 -4.57,-4.57 -2.53,0 -4.57,2.05 -4.57,4.57 0,2.53 2.04,4.58 4.57,4.58 2.52,0 4.57,-2.05 4.57,-4.58 z"
       style="fill:none;stroke:#4472c4;stroke-width:0.95247;stroke-linecap:butt;stroke-linejoin:round;stroke-miterlimit:10;stroke-dasharray:none;stroke-opacity:1"
       id="path78" /><path
       d="m 329.33,253.76 c 0,-2.53 -2.05,-4.57 -4.58,-4.57 -2.52,0 -4.57,2.04 -4.57,4.57 0,2.52 2.05,4.57 4.57,4.57 2.53,0 4.58,-2.05 4.58,-4.57 z"
       style="fill:#4472c4;fill-opacity:1;fill-rule:nonzero;stroke:none"
       id="path80" /><path
       d="m 329.33,253.76 c 0,-2.53 -2.05,-4.57 -4.58,-4.57 -2.52,0 -4.57,2.04 -4.57,4.57 0,2.52 2.05,4.57 4.57,4.57 2.53,0 4.58,-2.05 4.58,-4.57 z"
       style="fill:none;stroke:#4472c4;stroke-width:0.95247;stroke-linecap:butt;stroke-linejoin:round;stroke-miterlimit:10;stroke-dasharray:none;stroke-opacity:1"
       id="path82" /><path
       d="m 388.76,425.2 c 0,-2.52 -2.05,-4.57 -4.57,-4.57 -2.53,0 -4.57,2.05 -4.57,4.57 0,2.53 2.04,4.57 4.57,4.57 2.52,0 4.57,-2.04 4.57,-4.57 z"
       style="fill:#4472c4;fill-opacity:1;fill-rule:nonzero;stroke:none"
       id="path84" /><path
       d="m 388.76,425.2 c 0,-2.52 -2.05,-4.57 -4.57,-4.57 -2.53,0 -4.57,2.05 -4.57,4.57 0,2.53 2.04,4.57 4.57,4.57 2.52,0 4.57,-2.04 4.57,-4.57 z"
       style="fill:none;stroke:#4472c4;stroke-width:0.95247;stroke-linecap:butt;stroke-linejoin:round;stroke-miterlimit:10;stroke-dasharray:none;stroke-opacity:1"
       id="path86" /><path
       d="m 447.81,431.3 c 0,-2.53 -2.04,-4.57 -4.57,-4.57 -2.52,0 -4.57,2.04 -4.57,4.57 0,2.52 2.05,4.57 4.57,4.57 2.53,0 4.57,-2.05 4.57,-4.57 z"
       style="fill:#4472c4;fill-opacity:1;fill-rule:nonzero;stroke:none"
       id="path88" /><path
       d="m 447.81,431.3 c 0,-2.53 -2.04,-4.57 -4.57,-4.57 -2.52,0 -4.57,2.04 -4.57,4.57 0,2.52 2.05,4.57 4.57,4.57 2.53,0 4.57,-2.05 4.57,-4.57 z"
       style="fill:none;stroke:#4472c4;stroke-width:0.95247;stroke-linecap:butt;stroke-linejoin:round;stroke-miterlimit:10;stroke-dasharray:none;stroke-opacity:1"
       id="path90" /><path
       d="m 507.25,425.58 c 0,-2.52 -2.05,-4.57 -4.58,-4.57 -2.52,0 -4.57,2.05 -4.57,4.57 0,2.53 2.05,4.57 4.57,4.57 2.53,0 4.58,-2.04 4.58,-4.57 z"
       style="fill:#4472c4;fill-opacity:1;fill-rule:nonzero;stroke:none"
       id="path92" /><path
       d="m 507.25,425.58 c 0,-2.52 -2.05,-4.57 -4.58,-4.57 -2.52,0 -4.57,2.05 -4.57,4.57 0,2.53 2.05,4.57 4.57,4.57 2.53,0 4.58,-2.04 4.58,-4.57 z"
       style="fill:none;stroke:#4472c4;stroke-width:0.95247;stroke-linecap:butt;stroke-linejoin:round;stroke-miterlimit:10;stroke-dasharray:none;stroke-opacity:1"
       id="path94" /><path
       d="m 566.68,253.76 c 0,-2.53 -2.05,-4.57 -4.57,-4.57 -2.53,0 -4.57,2.04 -4.57,4.57 0,2.52 2.04,4.57 4.57,4.57 2.52,0 4.57,-2.05 4.57,-4.57 z"
       style="fill:#4472c4;fill-opacity:1;fill-rule:nonzero;stroke:none"
       id="path96" /><path
       d="m 566.68,253.76 c 0,-2.53 -2.05,-4.57 -4.57,-4.57 -2.53,0 -4.57,2.04 -4.57,4.57 0,2.52 2.04,4.57 4.57,4.57 2.52,0 4.57,-2.05 4.57,-4.57 z"
       style="fill:none;stroke:#4472c4;stroke-width:0.95247;stroke-linecap:butt;stroke-linejoin:round;stroke-miterlimit:10;stroke-dasharray:none;stroke-opacity:1"
       id="path98" /><path
       d="m 625.73,321.57 c 0,-2.52 -2.04,-4.57 -4.57,-4.57 -2.52,0 -4.57,2.05 -4.57,4.57 0,2.53 2.05,4.58 4.57,4.58 2.53,0 4.57,-2.05 4.57,-4.58 z"
       style="fill:#4472c4;fill-opacity:1;fill-rule:nonzero;stroke:none"
       id="path100" /><path
       d="m 625.73,321.57 c 0,-2.52 -2.04,-4.57 -4.57,-4.57 -2.52,0 -4.57,2.05 -4.57,4.57 0,2.53 2.05,4.58 4.57,4.58 2.53,0 4.57,-2.05 4.57,-4.58 z"
       style="fill:none;stroke:#4472c4;stroke-width:0.95247;stroke-linecap:butt;stroke-linejoin:round;stroke-miterlimit:10;stroke-dasharray:none;stroke-opacity:1"
       id="path102" /><path
       d="m 685.17,321.95 c 0,-2.52 -2.05,-4.57 -4.58,-4.57 -2.52,0 -4.57,2.05 -4.57,4.57 0,2.53 2.05,4.58 4.57,4.58 2.53,0 4.58,-2.05 4.58,-4.58 z"
       style="fill:#4472c4;fill-opacity:1;fill-rule:nonzero;stroke:none"
       id="path104" /><path
       d="m 685.17,321.95 c 0,-2.52 -2.05,-4.57 -4.58,-4.57 -2.52,0 -4.57,2.05 -4.57,4.57 0,2.53 2.05,4.58 4.57,4.58 2.53,0 4.58,-2.05 4.58,-4.58 z"
       style="fill:none;stroke:#4472c4;stroke-width:0.95247;stroke-linecap:butt;stroke-linejoin:round;stroke-miterlimit:10;stroke-dasharray:none;stroke-opacity:1"
       id="path106" /><path
       d="m 744.22,266.33 c 0,-2.52 -2.05,-4.57 -4.57,-4.57 -2.53,0 -4.57,2.05 -4.57,4.57 0,2.53 2.04,4.57 4.57,4.57 2.52,0 4.57,-2.04 4.57,-4.57 z"
       style="fill:#4472c4;fill-opacity:1;fill-rule:nonzero;stroke:none"
       id="path108" /><path
       d="m 744.22,266.33 c 0,-2.52 -2.05,-4.57 -4.57,-4.57 -2.53,0 -4.57,2.05 -4.57,4.57 0,2.53 2.04,4.57 4.57,4.57 2.52,0 4.57,-2.04 4.57,-4.57 z"
       style="fill:none;stroke:#4472c4;stroke-width:0.95247;stroke-linecap:butt;stroke-linejoin:round;stroke-miterlimit:10;stroke-dasharray:none;stroke-opacity:1"
       id="path110" /><path
       d="m 147.27,431.5 h 59.19 59.43 59.43 59.06 59.43 59.05 59.44 59.43 59.06 59.41"
       style="fill:none;stroke:#70ad47;stroke-width:4.2861;stroke-linecap:round;stroke-linejoin:round;stroke-miterlimit:10;stroke-dasharray:none;stroke-opacity:1"
       id="path112" /><path
       d="m 147.21,438.16 6.48,-12.96 h -12.95 z"
       style="fill:#70ad47;fill-opacity:1;fill-rule:nonzero;stroke:none"
       id="path114" /><path
       d="m 147.21,438.16 6.48,-12.96 h -12.95 z"
       style="fill:none;stroke:#70ad47;stroke-width:0.95247;stroke-linecap:butt;stroke-linejoin:round;stroke-miterlimit:10;stroke-dasharray:none;stroke-opacity:1"
       id="path116" /><path
       d="m 206.65,438.16 6.47,-12.96 h -12.95 z"
       style="fill:#70ad47;fill-opacity:1;fill-rule:nonzero;stroke:none"
       id="path118" /><path
       d="m 206.65,438.16 6.47,-12.96 h -12.95 z"
       style="fill:none;stroke:#70ad47;stroke-width:0.95247;stroke-linecap:butt;stroke-linejoin:round;stroke-miterlimit:10;stroke-dasharray:none;stroke-opacity:1"
       id="path120" /><path
       d="m 265.7,438.16 6.48,-12.96 h -12.96 z"
       style="fill:#70ad47;fill-opacity:1;fill-rule:nonzero;stroke:none"
       id="path122" /><path
       d="m 265.7,438.16 6.48,-12.96 h -12.96 z"
       style="fill:none;stroke:#70ad47;stroke-width:0.95247;stroke-linecap:butt;stroke-linejoin:round;stroke-miterlimit:10;stroke-dasharray:none;stroke-opacity:1"
       id="path124" /><path
       d="m 325.13,438.16 6.48,-12.96 h -12.95 z"
       style="fill:#70ad47;fill-opacity:1;fill-rule:nonzero;stroke:none"
       id="path126" /><path
       d="m 325.13,438.16 6.48,-12.96 h -12.95 z"
       style="fill:none;stroke:#70ad47;stroke-width:0.95247;stroke-linecap:butt;stroke-linejoin:round;stroke-miterlimit:10;stroke-dasharray:none;stroke-opacity:1"
       id="path128" /><path
       d="m 384.57,438.16 6.48,-12.96 h -12.96 z"
       style="fill:#70ad47;fill-opacity:1;fill-rule:nonzero;stroke:none"
       id="path130" /><path
       d="m 384.57,438.16 6.48,-12.96 h -12.96 z"
       style="fill:none;stroke:#70ad47;stroke-width:0.95247;stroke-linecap:butt;stroke-linejoin:round;stroke-miterlimit:10;stroke-dasharray:none;stroke-opacity:1"
       id="path132" /><path
       d="M 443.62,438.16 450.1,425.2 H 437.14 Z"
       style="fill:#70ad47;fill-opacity:1;fill-rule:nonzero;stroke:none"
       id="path134" /><path
       d="M 443.62,438.16 450.1,425.2 H 437.14 Z"
       style="fill:none;stroke:#70ad47;stroke-width:0.95247;stroke-linecap:butt;stroke-linejoin:round;stroke-miterlimit:10;stroke-dasharray:none;stroke-opacity:1"
       id="path136" /><path
       d="m 503.06,438.16 6.47,-12.96 h -12.95 z"
       style="fill:#70ad47;fill-opacity:1;fill-rule:nonzero;stroke:none"
       id="path138" /><path
       d="m 503.06,438.16 6.47,-12.96 h -12.95 z"
       style="fill:none;stroke:#70ad47;stroke-width:0.95247;stroke-linecap:butt;stroke-linejoin:round;stroke-miterlimit:10;stroke-dasharray:none;stroke-opacity:1"
       id="path140" /><path
       d="m 562.49,438.16 6.48,-12.96 h -12.96 z"
       style="fill:#70ad47;fill-opacity:1;fill-rule:nonzero;stroke:none"
       id="path142" /><path
       d="m 562.49,438.16 6.48,-12.96 h -12.96 z"
       style="fill:none;stroke:#70ad47;stroke-width:0.95247;stroke-linecap:butt;stroke-linejoin:round;stroke-miterlimit:10;stroke-dasharray:none;stroke-opacity:1"
       id="path144" /><path
       d="m 621.54,438.16 6.48,-12.96 h -12.95 z"
       style="fill:#70ad47;fill-opacity:1;fill-rule:nonzero;stroke:none"
       id="path146" /><path
       d="m 621.54,438.16 6.48,-12.96 h -12.95 z"
       style="fill:none;stroke:#70ad47;stroke-width:0.95247;stroke-linecap:butt;stroke-linejoin:round;stroke-miterlimit:10;stroke-dasharray:none;stroke-opacity:1"
       id="path148" /><path
       d="m 680.98,438.16 6.47,-12.96 H 674.5 Z"
       style="fill:#70ad47;fill-opacity:1;fill-rule:nonzero;stroke:none"
       id="path150" /><path
       d="m 680.98,438.16 6.47,-12.96 H 674.5 Z"
       style="fill:none;stroke:#70ad47;stroke-width:0.95247;stroke-linecap:butt;stroke-linejoin:round;stroke-miterlimit:10;stroke-dasharray:none;stroke-opacity:1"
       id="path152" /><path
       d="m 740.03,438.16 6.48,-12.96 h -12.96 z"
       style="fill:#70ad47;fill-opacity:1;fill-rule:nonzero;stroke:none"
       id="path154" /><path
       d="m 740.03,438.16 6.48,-12.96 h -12.96 z"
       style="fill:none;stroke:#70ad47;stroke-width:0.95247;stroke-linecap:butt;stroke-linejoin:round;stroke-miterlimit:10;stroke-dasharray:none;stroke-opacity:1"
       id="path156" /><g
       id="g158"><g
         id="g160"
         clip-path="url(#clipPath164)"><path
           d="m 148.28,155.77 c -0.21,-0.12 -0.37,-0.18 -0.47,-0.18 -0.11,0 -0.19,0.05 -0.25,0.14 l -1.94,3.37 c -0.06,0.09 -0.06,0.19 0,0.29 0.05,0.09 0.18,0.2 0.39,0.32 0.2,0.12 0.36,0.17 0.47,0.17 0.1,0 0.19,-0.05 0.24,-0.15 l 1.95,-3.36 c 0.02,-0.05 0.04,-0.09 0.04,-0.13 0,-0.05 -0.01,-0.1 -0.04,-0.15 -0.03,-0.05 -0.08,-0.1 -0.14,-0.15 -0.06,-0.06 -0.15,-0.11 -0.25,-0.17 z"
           style="fill:#595959;fill-opacity:1;fill-rule:nonzero;stroke:none"
           id="path166" /></g></g><g
       id="g168"><g
         id="g170"
         clip-path="url(#clipPath174)"><path
           d="m 149.34,145.81 c -0.11,-0.05 -0.2,-0.1 -0.28,-0.12 -0.08,-0.02 -0.14,-0.04 -0.2,-0.03 -0.06,0 -0.11,0.01 -0.15,0.04 -0.04,0.02 -0.07,0.05 -0.09,0.09 l -3.14,5.44 c -0.03,0.04 -0.04,0.08 -0.04,0.12 0,0.05 0.02,0.1 0.04,0.15 0.03,0.06 0.07,0.11 0.13,0.17 0.06,0.05 0.14,0.11 0.25,0.17 0.09,0.06 0.18,0.1 0.26,0.12 0.08,0.02 0.15,0.04 0.21,0.04 0.06,0 0.11,-0.01 0.15,-0.03 0.05,-0.02 0.08,-0.05 0.11,-0.09 l 1.25,-2.18 7.93,4.58 -2.36,1.32 c -0.12,0.07 -0.2,0.13 -0.24,0.19 -0.05,0.05 -0.06,0.11 -0.05,0.17 0.01,0.06 0.05,0.11 0.13,0.17 0.07,0.06 0.17,0.13 0.29,0.2 0.09,0.05 0.17,0.09 0.24,0.12 0.07,0.03 0.13,0.05 0.18,0.06 0.06,0.01 0.11,0.01 0.16,0 0.05,-0.01 0.1,-0.03 0.16,-0.06 l 2.93,-1.52 c 0.02,-0.01 0.05,-0.03 0.08,-0.05 0.03,-0.03 0.07,-0.06 0.1,-0.11 0.04,-0.04 0.08,-0.09 0.12,-0.15 0.04,-0.07 0.09,-0.15 0.15,-0.24 0.07,-0.13 0.13,-0.24 0.17,-0.33 0.03,-0.1 0.06,-0.17 0.07,-0.23 0.01,-0.06 0,-0.11 -0.02,-0.14 -0.02,-0.03 -0.05,-0.06 -0.08,-0.08 l -9.16,-5.29 1.09,-1.88 c 0.03,-0.04 0.04,-0.09 0.04,-0.14 -0.01,-0.05 -0.02,-0.1 -0.06,-0.15 -0.03,-0.06 -0.07,-0.11 -0.14,-0.16 -0.06,-0.05 -0.14,-0.11 -0.23,-0.17 z m 9.63,-5.86 c -0.8,-0.46 -1.57,-0.82 -2.3,-1.08 -0.73,-0.25 -1.42,-0.37 -2.06,-0.35 -0.65,0.02 -1.24,0.19 -1.77,0.51 -0.53,0.32 -1,0.83 -1.4,1.52 -0.38,0.66 -0.58,1.28 -0.61,1.86 -0.02,0.58 0.11,1.14 0.41,1.68 0.29,0.53 0.74,1.05 1.34,1.55 0.59,0.5 1.32,1 2.18,1.49 0.8,0.46 1.56,0.82 2.3,1.07 0.74,0.26 1.43,0.37 2.07,0.36 0.64,-0.02 1.23,-0.19 1.76,-0.51 0.54,-0.32 1,-0.82 1.4,-1.51 0.38,-0.66 0.58,-1.28 0.61,-1.87 0.02,-0.58 -0.11,-1.14 -0.41,-1.68 -0.29,-0.53 -0.74,-1.05 -1.33,-1.55 -0.6,-0.5 -1.33,-0.99 -2.19,-1.49 z m -0.91,1.36 c 0.52,0.3 0.97,0.59 1.37,0.87 0.39,0.27 0.72,0.54 1,0.8 0.27,0.25 0.49,0.5 0.65,0.75 0.16,0.25 0.27,0.49 0.33,0.74 0.05,0.25 0.05,0.49 0,0.74 -0.05,0.24 -0.15,0.49 -0.3,0.75 -0.27,0.46 -0.59,0.77 -0.97,0.93 -0.38,0.16 -0.8,0.21 -1.27,0.16 -0.47,-0.05 -0.98,-0.2 -1.52,-0.43 -0.53,-0.23 -1.09,-0.52 -1.67,-0.85 -0.78,-0.45 -1.42,-0.87 -1.92,-1.27 -0.5,-0.39 -0.87,-0.78 -1.11,-1.15 -0.24,-0.37 -0.37,-0.74 -0.36,-1.1 0,-0.36 0.11,-0.74 0.33,-1.12 0.17,-0.3 0.38,-0.54 0.6,-0.71 0.23,-0.17 0.48,-0.29 0.76,-0.35 0.27,-0.06 0.57,-0.07 0.88,-0.03 0.32,0.04 0.65,0.11 0.99,0.22 0.34,0.12 0.7,0.26 1.07,0.44 0.37,0.19 0.75,0.39 1.14,0.61 z"
           style="fill:#595959;fill-opacity:1;fill-rule:nonzero;stroke:none"
           id="path176" /></g></g><g
       id="g178"><g
         id="g180"
         clip-path="url(#clipPath184)"><path
           d="m 207.45,155.99 c -0.21,-0.12 -0.37,-0.18 -0.48,-0.18 -0.11,0 -0.19,0.05 -0.24,0.14 l -1.95,3.37 c -0.05,0.1 -0.05,0.19 0,0.29 0.06,0.1 0.19,0.2 0.39,0.32 0.21,0.12 0.36,0.18 0.47,0.17 0.11,0 0.19,-0.05 0.25,-0.14 l 1.94,-3.37 c 0.03,-0.04 0.04,-0.09 0.04,-0.13 0.01,-0.05 -0.01,-0.09 -0.04,-0.14 -0.03,-0.05 -0.08,-0.11 -0.14,-0.16 -0.06,-0.05 -0.14,-0.11 -0.24,-0.17 z"
           style="fill:#595959;fill-opacity:1;fill-rule:nonzero;stroke:none"
           id="path186" /></g></g><g
       id="g188"><g
         id="g190"
         clip-path="url(#clipPath194)"><path
           d="m 208.5,146.04 c -0.1,-0.06 -0.19,-0.1 -0.27,-0.13 -0.08,-0.02 -0.15,-0.03 -0.21,-0.03 -0.06,0 -0.11,0.01 -0.15,0.04 -0.03,0.02 -0.06,0.05 -0.09,0.09 l -3.14,5.45 c -0.02,0.03 -0.03,0.07 -0.03,0.12 0,0.04 0.01,0.09 0.04,0.14 0.02,0.06 0.07,0.11 0.13,0.17 0.06,0.06 0.14,0.11 0.24,0.17 0.1,0.06 0.18,0.1 0.26,0.12 0.08,0.03 0.15,0.04 0.21,0.04 0.06,0 0.11,0 0.16,-0.03 0.04,-0.02 0.08,-0.05 0.1,-0.09 l 1.26,-2.18 7.92,4.58 -2.36,1.32 c -0.11,0.07 -0.19,0.13 -0.24,0.19 -0.04,0.06 -0.06,0.11 -0.05,0.17 0.02,0.06 0.06,0.12 0.13,0.18 0.07,0.06 0.17,0.12 0.3,0.19 0.09,0.06 0.17,0.1 0.24,0.13 0.07,0.03 0.13,0.04 0.18,0.05 0.05,0.01 0.1,0.01 0.15,0 0.05,-0.01 0.1,-0.03 0.16,-0.06 l 2.93,-1.51 c 0.03,-0.02 0.06,-0.03 0.09,-0.06 0.03,-0.03 0.06,-0.06 0.1,-0.1 0.04,-0.04 0.08,-0.1 0.12,-0.16 0.04,-0.06 0.08,-0.14 0.14,-0.24 0.07,-0.13 0.13,-0.24 0.17,-0.33 0.04,-0.09 0.06,-0.17 0.07,-0.23 0.01,-0.06 0,-0.1 -0.02,-0.14 -0.02,-0.03 -0.04,-0.06 -0.07,-0.07 l -9.16,-5.29 1.09,-1.89 c 0.02,-0.04 0.03,-0.09 0.03,-0.14 0,-0.05 -0.02,-0.1 -0.05,-0.15 -0.03,-0.05 -0.08,-0.1 -0.14,-0.16 -0.07,-0.05 -0.14,-0.11 -0.24,-0.16 z"
           style="fill:#595959;fill-opacity:1;fill-rule:nonzero;stroke:none"
           id="path196" /></g></g><g
       id="g198"><g
         id="g200"
         clip-path="url(#clipPath204)"><path
           d="m 266.91,155.69 c -0.21,-0.12 -0.36,-0.18 -0.47,-0.18 -0.11,0 -0.19,0.05 -0.24,0.14 l -1.95,3.36 c -0.05,0.1 -0.05,0.2 0,0.29 0.06,0.1 0.19,0.21 0.39,0.32 0.2,0.12 0.36,0.18 0.47,0.18 0.11,0 0.19,-0.05 0.24,-0.15 l 1.95,-3.37 c 0.02,-0.04 0.04,-0.08 0.04,-0.13 0.01,-0.04 -0.01,-0.09 -0.04,-0.14 -0.03,-0.05 -0.08,-0.1 -0.14,-0.16 -0.06,-0.05 -0.14,-0.11 -0.25,-0.16 z"
           style="fill:#595959;fill-opacity:1;fill-rule:nonzero;stroke:none"
           id="path206" /></g></g><g
       id="g208"><g
         id="g210"
         clip-path="url(#clipPath214)"><path
           d="m 272.84,148.12 c -0.8,-0.47 -1.57,-0.82 -2.3,-1.08 -0.73,-0.25 -1.42,-0.37 -2.07,-0.35 -0.64,0.01 -1.23,0.18 -1.76,0.51 -0.54,0.32 -1,0.83 -1.4,1.52 -0.38,0.65 -0.58,1.27 -0.61,1.86 -0.02,0.58 0.11,1.14 0.41,1.68 0.29,0.53 0.74,1.05 1.34,1.55 0.59,0.49 1.32,0.99 2.18,1.49 0.8,0.46 1.56,0.81 2.3,1.07 0.74,0.25 1.43,0.37 2.07,0.36 0.64,-0.02 1.23,-0.19 1.76,-0.51 0.54,-0.32 1,-0.83 1.4,-1.52 0.38,-0.66 0.58,-1.28 0.61,-1.86 0.02,-0.59 -0.11,-1.14 -0.41,-1.68 -0.29,-0.54 -0.74,-1.05 -1.34,-1.55 -0.59,-0.5 -1.32,-1 -2.18,-1.49 z m -0.91,1.36 c 0.52,0.3 0.97,0.59 1.37,0.86 0.39,0.28 0.72,0.55 1,0.8 0.27,0.26 0.49,0.51 0.65,0.76 0.16,0.24 0.27,0.49 0.32,0.74 0.06,0.24 0.06,0.49 0.01,0.73 -0.05,0.25 -0.15,0.5 -0.3,0.76 -0.27,0.46 -0.59,0.76 -0.97,0.92 -0.38,0.16 -0.8,0.22 -1.27,0.17 -0.47,-0.06 -0.98,-0.2 -1.52,-0.43 -0.53,-0.24 -1.09,-0.52 -1.67,-0.85 -0.78,-0.45 -1.42,-0.88 -1.92,-1.27 -0.5,-0.4 -0.87,-0.78 -1.11,-1.15 -0.25,-0.38 -0.37,-0.74 -0.37,-1.1 0.01,-0.37 0.12,-0.74 0.34,-1.13 0.17,-0.3 0.38,-0.53 0.6,-0.71 0.23,-0.17 0.48,-0.28 0.76,-0.34 0.27,-0.06 0.57,-0.08 0.88,-0.04 0.32,0.04 0.64,0.12 0.99,0.23 0.34,0.11 0.7,0.26 1.07,0.44 0.37,0.18 0.75,0.39 1.14,0.61 z m -1.18,-7.17 c -0.17,-0.1 -0.33,-0.18 -0.48,-0.24 -0.14,-0.06 -0.29,-0.11 -0.44,-0.15 -0.14,-0.03 -0.29,-0.05 -0.45,-0.06 -0.16,-0.01 -0.33,-0.01 -0.51,0.01 l -2.3,0.14 c -0.05,0.01 -0.1,0.02 -0.15,0.04 -0.05,0.02 -0.1,0.05 -0.15,0.09 -0.05,0.04 -0.1,0.09 -0.14,0.15 -0.05,0.06 -0.1,0.14 -0.16,0.25 -0.06,0.09 -0.1,0.17 -0.12,0.23 -0.03,0.07 -0.04,0.12 -0.04,0.16 0,0.04 0.02,0.07 0.05,0.09 0.03,0.02 0.07,0.03 0.13,0.03 l 2.83,0.21 1.03,0.6 c 0.15,0.08 0.27,0.13 0.38,0.15 0.1,0.02 0.19,0.01 0.27,-0.03 0.08,-0.04 0.16,-0.1 0.23,-0.19 0.07,-0.08 0.15,-0.2 0.23,-0.34 0.08,-0.13 0.13,-0.25 0.17,-0.36 0.04,-0.1 0.06,-0.2 0.05,-0.29 0,-0.08 -0.04,-0.17 -0.11,-0.24 -0.07,-0.08 -0.18,-0.17 -0.32,-0.25 z m 7.03,-7.09 c -0.56,-0.33 -1.11,-0.52 -1.66,-0.58 -0.54,-0.07 -1.06,-0.01 -1.56,0.16 -0.49,0.17 -0.96,0.45 -1.39,0.83 -0.43,0.39 -0.81,0.87 -1.14,1.45 -0.19,0.32 -0.34,0.64 -0.47,0.96 -0.12,0.32 -0.21,0.61 -0.27,0.87 -0.07,0.27 -0.11,0.49 -0.13,0.67 -0.02,0.18 -0.02,0.31 0,0.37 0.01,0.06 0.03,0.11 0.05,0.14 0.03,0.04 0.06,0.07 0.09,0.11 0.04,0.04 0.09,0.09 0.16,0.13 0.07,0.05 0.15,0.1 0.25,0.15 0.09,0.06 0.17,0.1 0.25,0.13 0.08,0.04 0.14,0.06 0.2,0.06 0.06,0.01 0.11,0 0.15,-0.02 0.03,-0.01 0.06,-0.04 0.09,-0.08 0.03,-0.05 0.04,-0.15 0.04,-0.31 0,-0.15 0.01,-0.34 0.04,-0.58 0.04,-0.23 0.1,-0.51 0.19,-0.83 0.1,-0.33 0.25,-0.68 0.48,-1.07 0.2,-0.36 0.44,-0.66 0.7,-0.91 0.26,-0.25 0.54,-0.44 0.85,-0.55 0.31,-0.11 0.64,-0.15 0.98,-0.11 0.35,0.03 0.72,0.17 1.12,0.4 0.33,0.19 0.6,0.41 0.79,0.66 0.2,0.25 0.32,0.54 0.36,0.85 0.04,0.32 0.01,0.67 -0.1,1.05 -0.11,0.38 -0.29,0.8 -0.56,1.26 -0.19,0.33 -0.37,0.6 -0.54,0.82 -0.17,0.22 -0.31,0.43 -0.43,0.63 -0.08,0.15 -0.11,0.28 -0.08,0.39 0.03,0.1 0.15,0.21 0.35,0.32 l 4.24,2.46 c 0.18,0.1 0.34,0.13 0.47,0.1 0.13,-0.04 0.25,-0.13 0.34,-0.29 l 2.66,-4.61 c 0.03,-0.04 0.04,-0.09 0.04,-0.15 0,-0.05 -0.02,-0.11 -0.05,-0.16 -0.04,-0.06 -0.09,-0.11 -0.15,-0.17 -0.07,-0.05 -0.16,-0.11 -0.26,-0.17 -0.19,-0.11 -0.36,-0.17 -0.49,-0.18 -0.14,-0.02 -0.24,0.03 -0.29,0.12 l -2.15,3.72 -2.93,-1.68 c 0.14,-0.17 0.26,-0.34 0.37,-0.53 0.12,-0.19 0.25,-0.4 0.39,-0.65 0.33,-0.58 0.55,-1.12 0.66,-1.63 0.1,-0.51 0.11,-0.99 0.01,-1.42 -0.09,-0.44 -0.28,-0.84 -0.57,-1.2 -0.28,-0.36 -0.65,-0.67 -1.1,-0.93 z"
           style="fill:#595959;fill-opacity:1;fill-rule:nonzero;stroke:none"
           id="path216" /></g></g><g
       id="g218"><g
         id="g220"
         clip-path="url(#clipPath224)"><path
           d="m 326.21,155.69 c -0.21,-0.12 -0.37,-0.18 -0.48,-0.18 -0.11,0 -0.19,0.05 -0.24,0.14 l -1.95,3.36 c -0.05,0.1 -0.05,0.2 0,0.29 0.06,0.1 0.19,0.21 0.39,0.32 0.21,0.12 0.36,0.18 0.47,0.18 0.11,0 0.19,-0.05 0.25,-0.15 l 1.94,-3.37 c 0.03,-0.04 0.04,-0.08 0.04,-0.13 0.01,-0.04 -0.01,-0.09 -0.04,-0.14 -0.03,-0.05 -0.08,-0.1 -0.14,-0.16 -0.06,-0.05 -0.14,-0.11 -0.24,-0.16 z"
           style="fill:#595959;fill-opacity:1;fill-rule:nonzero;stroke:none"
           id="path226" /></g></g><g
       id="g228"><g
         id="g230"
         clip-path="url(#clipPath234)"><path
           d="m 332.13,148.12 c -0.8,-0.47 -1.56,-0.82 -2.3,-1.08 -0.73,-0.25 -1.42,-0.37 -2.06,-0.35 -0.65,0.01 -1.24,0.18 -1.77,0.51 -0.53,0.32 -1,0.83 -1.4,1.52 -0.38,0.65 -0.58,1.27 -0.6,1.86 -0.03,0.58 0.1,1.14 0.4,1.68 0.3,0.53 0.74,1.05 1.34,1.55 0.6,0.49 1.32,0.99 2.18,1.49 0.8,0.46 1.56,0.81 2.3,1.07 0.74,0.25 1.43,0.37 2.07,0.36 0.64,-0.02 1.23,-0.19 1.77,-0.51 0.53,-0.32 0.99,-0.83 1.39,-1.52 0.38,-0.66 0.59,-1.28 0.61,-1.86 0.03,-0.59 -0.11,-1.14 -0.4,-1.68 -0.3,-0.54 -0.75,-1.05 -1.34,-1.55 -0.6,-0.5 -1.33,-1 -2.19,-1.49 z m -0.91,1.36 c 0.52,0.3 0.98,0.59 1.37,0.86 0.39,0.28 0.72,0.55 1,0.8 0.27,0.26 0.49,0.51 0.65,0.76 0.16,0.24 0.27,0.49 0.33,0.74 0.05,0.24 0.05,0.49 0,0.73 -0.05,0.25 -0.15,0.5 -0.3,0.76 -0.26,0.46 -0.59,0.76 -0.97,0.92 -0.37,0.16 -0.8,0.22 -1.27,0.17 -0.47,-0.06 -0.97,-0.2 -1.51,-0.43 -0.54,-0.24 -1.1,-0.52 -1.68,-0.85 -0.78,-0.45 -1.42,-0.88 -1.92,-1.27 -0.5,-0.4 -0.87,-0.78 -1.11,-1.15 -0.24,-0.38 -0.36,-0.74 -0.36,-1.1 0,-0.37 0.11,-0.74 0.33,-1.13 0.18,-0.3 0.38,-0.53 0.61,-0.71 0.22,-0.17 0.48,-0.28 0.75,-0.34 0.27,-0.06 0.57,-0.08 0.88,-0.04 0.32,0.04 0.65,0.12 0.99,0.23 0.34,0.11 0.7,0.26 1.07,0.44 0.37,0.18 0.75,0.39 1.14,0.61 z m -1.18,-7.17 c -0.17,-0.1 -0.32,-0.18 -0.47,-0.24 -0.15,-0.06 -0.3,-0.11 -0.44,-0.15 -0.15,-0.03 -0.3,-0.05 -0.46,-0.06 -0.15,-0.01 -0.33,-0.01 -0.51,0.01 l -2.3,0.14 c -0.05,0.01 -0.1,0.02 -0.15,0.04 -0.05,0.02 -0.09,0.05 -0.15,0.09 -0.05,0.04 -0.1,0.09 -0.14,0.15 -0.05,0.06 -0.1,0.14 -0.16,0.25 -0.05,0.09 -0.09,0.17 -0.12,0.23 -0.03,0.07 -0.04,0.12 -0.04,0.16 0.01,0.04 0.02,0.07 0.05,0.09 0.03,0.02 0.08,0.03 0.13,0.03 l 2.84,0.21 1.03,0.6 c 0.14,0.08 0.27,0.13 0.37,0.15 0.1,0.02 0.19,0.01 0.27,-0.03 0.08,-0.04 0.16,-0.1 0.23,-0.19 0.07,-0.08 0.15,-0.2 0.23,-0.34 0.08,-0.13 0.14,-0.25 0.18,-0.36 0.04,-0.1 0.05,-0.2 0.04,-0.29 0,-0.08 -0.04,-0.17 -0.11,-0.24 -0.07,-0.08 -0.18,-0.17 -0.32,-0.25 z m 4.27,-8.79 c -0.1,-0.05 -0.2,-0.1 -0.27,-0.12 -0.08,-0.02 -0.15,-0.04 -0.21,-0.03 -0.06,0 -0.11,0.01 -0.15,0.04 -0.04,0.02 -0.07,0.05 -0.09,0.09 l -3.14,5.44 c -0.02,0.04 -0.03,0.08 -0.03,0.12 0,0.05 0.01,0.1 0.04,0.15 0.02,0.05 0.06,0.11 0.12,0.17 0.07,0.05 0.15,0.11 0.25,0.17 0.1,0.06 0.18,0.1 0.26,0.12 0.08,0.02 0.15,0.04 0.21,0.04 0.06,0 0.11,-0.01 0.16,-0.03 0.04,-0.02 0.08,-0.05 0.1,-0.1 l 1.26,-2.17 7.92,4.58 -2.36,1.32 c -0.11,0.07 -0.19,0.13 -0.24,0.19 -0.05,0.05 -0.06,0.11 -0.05,0.17 0.01,0.05 0.06,0.11 0.13,0.17 0.07,0.06 0.17,0.13 0.29,0.2 0.1,0.05 0.18,0.09 0.24,0.12 0.07,0.03 0.13,0.05 0.19,0.06 0.05,0.01 0.1,0.01 0.15,0 0.05,-0.01 0.1,-0.03 0.16,-0.06 l 2.93,-1.52 c 0.03,-0.01 0.06,-0.03 0.08,-0.05 0.03,-0.03 0.07,-0.06 0.11,-0.11 0.04,-0.04 0.07,-0.09 0.11,-0.15 0.04,-0.07 0.09,-0.15 0.15,-0.24 0.07,-0.13 0.13,-0.24 0.17,-0.33 0.04,-0.1 0.06,-0.17 0.07,-0.23 0.01,-0.06 0,-0.11 -0.02,-0.14 -0.02,-0.03 -0.04,-0.06 -0.08,-0.08 l -9.15,-5.29 1.08,-1.88 c 0.03,-0.04 0.04,-0.09 0.04,-0.14 -0.01,-0.05 -0.02,-0.1 -0.05,-0.16 -0.04,-0.05 -0.08,-0.1 -0.14,-0.15 -0.07,-0.06 -0.15,-0.11 -0.24,-0.17 z"
           style="fill:#595959;fill-opacity:1;fill-rule:nonzero;stroke:none"
           id="path236" /></g></g><g
       id="g238"><g
         id="g240"
         clip-path="url(#clipPath244)"><path
           d="m 385.44,155.79 c -0.21,-0.12 -0.37,-0.18 -0.48,-0.18 -0.11,0.01 -0.19,0.05 -0.24,0.14 l -1.95,3.37 c -0.05,0.1 -0.05,0.19 0,0.29 0.06,0.1 0.19,0.2 0.39,0.32 0.21,0.12 0.36,0.18 0.47,0.18 0.11,-0.01 0.19,-0.05 0.25,-0.15 l 1.94,-3.37 c 0.03,-0.04 0.04,-0.09 0.04,-0.13 0.01,-0.04 -0.01,-0.09 -0.04,-0.14 -0.03,-0.05 -0.08,-0.1 -0.14,-0.16 -0.06,-0.05 -0.14,-0.11 -0.24,-0.17 z"
           style="fill:#595959;fill-opacity:1;fill-rule:nonzero;stroke:none"
           id="path246" /></g></g><g
       id="g248"><g
         id="g250"
         clip-path="url(#clipPath254)"><path
           d="m 391.36,148.22 c -0.8,-0.46 -1.56,-0.82 -2.3,-1.07 -0.73,-0.26 -1.42,-0.38 -2.06,-0.36 -0.65,0.02 -1.24,0.19 -1.77,0.51 -0.53,0.33 -1,0.83 -1.4,1.53 -0.38,0.65 -0.58,1.27 -0.6,1.85 -0.03,0.59 0.11,1.15 0.4,1.68 0.3,0.54 0.74,1.06 1.34,1.55 0.6,0.5 1.32,1 2.18,1.5 0.8,0.45 1.56,0.81 2.3,1.06 0.74,0.26 1.43,0.38 2.07,0.36 0.64,-0.01 1.23,-0.18 1.77,-0.5 0.53,-0.33 0.99,-0.83 1.39,-1.52 0.38,-0.66 0.59,-1.28 0.61,-1.86 0.03,-0.59 -0.11,-1.15 -0.4,-1.68 -0.3,-0.54 -0.75,-1.06 -1.34,-1.55 -0.6,-0.5 -1.33,-1 -2.19,-1.5 z m -0.91,1.37 c 0.52,0.3 0.98,0.59 1.37,0.86 0.39,0.28 0.72,0.54 1,0.8 0.27,0.25 0.49,0.51 0.65,0.75 0.16,0.25 0.27,0.5 0.33,0.74 0.05,0.25 0.05,0.5 0,0.74 -0.05,0.25 -0.15,0.5 -0.3,0.76 -0.26,0.45 -0.59,0.76 -0.97,0.92 -0.37,0.16 -0.8,0.22 -1.27,0.16 -0.47,-0.05 -0.97,-0.19 -1.51,-0.43 -0.54,-0.23 -1.1,-0.51 -1.68,-0.85 -0.78,-0.45 -1.42,-0.87 -1.92,-1.26 -0.5,-0.4 -0.87,-0.78 -1.11,-1.16 -0.24,-0.37 -0.36,-0.74 -0.36,-1.1 0,-0.36 0.11,-0.73 0.33,-1.12 0.18,-0.3 0.38,-0.54 0.61,-0.71 0.22,-0.17 0.48,-0.29 0.75,-0.35 0.27,-0.06 0.57,-0.07 0.88,-0.03 0.32,0.04 0.65,0.11 0.99,0.23 0.34,0.11 0.7,0.26 1.07,0.44 0.37,0.18 0.75,0.38 1.14,0.61 z m -1.18,-7.17 c -0.17,-0.1 -0.32,-0.18 -0.47,-0.24 -0.15,-0.07 -0.3,-0.12 -0.44,-0.15 -0.15,-0.03 -0.3,-0.05 -0.46,-0.06 -0.15,-0.01 -0.33,-0.01 -0.51,0.01 l -2.3,0.14 c -0.05,0.01 -0.1,0.02 -0.15,0.04 -0.05,0.02 -0.09,0.05 -0.15,0.09 -0.05,0.03 -0.1,0.08 -0.14,0.15 -0.05,0.06 -0.1,0.14 -0.16,0.24 -0.05,0.1 -0.09,0.17 -0.12,0.24 -0.03,0.07 -0.04,0.12 -0.04,0.16 0.01,0.03 0.02,0.06 0.05,0.09 0.03,0.02 0.08,0.03 0.13,0.03 l 2.84,0.21 1.03,0.59 c 0.14,0.09 0.27,0.14 0.37,0.16 0.1,0.02 0.19,0.01 0.27,-0.03 0.08,-0.04 0.16,-0.1 0.23,-0.19 0.07,-0.09 0.15,-0.2 0.23,-0.34 0.08,-0.13 0.14,-0.25 0.18,-0.36 0.04,-0.11 0.05,-0.2 0.04,-0.29 0,-0.09 -0.04,-0.17 -0.11,-0.25 -0.07,-0.08 -0.18,-0.16 -0.32,-0.24 z m 9.14,-6.4 c -0.8,-0.47 -1.57,-0.82 -2.3,-1.08 -0.73,-0.25 -1.42,-0.37 -2.07,-0.36 -0.64,0.02 -1.23,0.19 -1.76,0.52 -0.53,0.32 -1,0.83 -1.4,1.52 -0.38,0.65 -0.58,1.27 -0.61,1.86 -0.02,0.58 0.11,1.14 0.41,1.67 0.29,0.54 0.74,1.06 1.34,1.56 0.59,0.49 1.32,0.99 2.18,1.49 0.8,0.46 1.56,0.81 2.3,1.07 0.74,0.25 1.43,0.37 2.07,0.35 0.64,-0.01 1.23,-0.18 1.76,-0.5 0.54,-0.32 1,-0.83 1.4,-1.52 0.38,-0.66 0.58,-1.28 0.61,-1.86 0.02,-0.59 -0.11,-1.15 -0.41,-1.68 -0.29,-0.54 -0.74,-1.05 -1.33,-1.55 -0.6,-0.5 -1.33,-1 -2.19,-1.49 z m -0.91,1.36 c 0.52,0.3 0.97,0.59 1.37,0.86 0.39,0.28 0.72,0.55 1,0.8 0.27,0.26 0.49,0.51 0.65,0.76 0.16,0.24 0.27,0.49 0.32,0.74 0.06,0.24 0.06,0.49 0.01,0.73 -0.05,0.25 -0.15,0.5 -0.3,0.76 -0.27,0.45 -0.59,0.76 -0.97,0.92 -0.38,0.16 -0.8,0.22 -1.27,0.16 -0.47,-0.05 -0.98,-0.19 -1.52,-0.42 -0.53,-0.24 -1.09,-0.52 -1.67,-0.85 -0.78,-0.45 -1.42,-0.88 -1.92,-1.27 -0.5,-0.4 -0.87,-0.78 -1.11,-1.15 -0.24,-0.38 -0.37,-0.74 -0.37,-1.11 0.01,-0.36 0.12,-0.73 0.34,-1.12 0.17,-0.3 0.38,-0.53 0.6,-0.71 0.23,-0.17 0.48,-0.29 0.76,-0.34 0.27,-0.06 0.57,-0.08 0.88,-0.04 0.32,0.04 0.65,0.12 0.99,0.23 0.34,0.11 0.7,0.26 1.07,0.44 0.37,0.18 0.75,0.38 1.14,0.61 z m 0.8,-12 c -0.1,-0.06 -0.19,-0.1 -0.27,-0.12 -0.08,-0.03 -0.15,-0.04 -0.21,-0.04 -0.06,0.01 -0.11,0.02 -0.14,0.04 -0.04,0.03 -0.07,0.06 -0.1,0.1 l -3.14,5.44 c -0.02,0.04 -0.03,0.08 -0.03,0.12 0,0.05 0.01,0.09 0.04,0.15 0.02,0.05 0.07,0.11 0.13,0.17 0.06,0.05 0.14,0.11 0.24,0.17 0.1,0.05 0.19,0.09 0.26,0.12 0.08,0.02 0.15,0.04 0.21,0.04 0.06,0 0.11,-0.01 0.16,-0.03 0.04,-0.02 0.08,-0.05 0.1,-0.1 l 1.26,-2.17 7.92,4.58 -2.36,1.32 c -0.11,0.07 -0.19,0.13 -0.24,0.19 -0.04,0.05 -0.06,0.11 -0.05,0.17 0.02,0.05 0.06,0.11 0.13,0.17 0.08,0.06 0.17,0.13 0.3,0.2 0.09,0.05 0.17,0.09 0.24,0.12 0.07,0.03 0.13,0.05 0.18,0.06 0.05,0.01 0.1,0.01 0.15,0 0.05,-0.02 0.11,-0.04 0.17,-0.07 l 2.92,-1.51 c 0.03,-0.01 0.06,-0.03 0.09,-0.06 0.03,-0.02 0.06,-0.06 0.1,-0.1 0.04,-0.04 0.08,-0.09 0.12,-0.15 0.04,-0.07 0.08,-0.15 0.14,-0.24 0.07,-0.13 0.13,-0.24 0.17,-0.34 0.04,-0.09 0.06,-0.16 0.07,-0.22 0.01,-0.06 0.01,-0.11 -0.01,-0.14 -0.02,-0.03 -0.05,-0.06 -0.08,-0.08 l -9.16,-5.29 1.09,-1.88 c 0.02,-0.04 0.03,-0.09 0.03,-0.14 0,-0.05 -0.02,-0.11 -0.05,-0.16 -0.03,-0.05 -0.08,-0.1 -0.14,-0.15 -0.06,-0.06 -0.14,-0.11 -0.24,-0.17 z"
           style="fill:#595959;fill-opacity:1;fill-rule:nonzero;stroke:none"
           id="path256" /></g></g><g
       id="g258"><g
         id="g260"
         clip-path="url(#clipPath264)"><path
           d="m 447.75,153.26 c -0.8,-0.47 -1.57,-0.83 -2.3,-1.08 -0.73,-0.26 -1.42,-0.37 -2.07,-0.36 -0.64,0.02 -1.23,0.19 -1.76,0.52 -0.54,0.32 -1,0.82 -1.4,1.52 -0.38,0.65 -0.58,1.27 -0.61,1.86 -0.02,0.58 0.11,1.14 0.41,1.67 0.29,0.54 0.74,1.06 1.34,1.56 0.59,0.49 1.32,0.99 2.18,1.49 0.79,0.46 1.56,0.81 2.3,1.07 0.74,0.25 1.43,0.37 2.07,0.35 0.64,-0.01 1.23,-0.18 1.76,-0.5 0.54,-0.33 1,-0.83 1.4,-1.52 0.38,-0.66 0.58,-1.28 0.61,-1.86 0.02,-0.59 -0.11,-1.15 -0.41,-1.68 -0.29,-0.54 -0.74,-1.05 -1.34,-1.55 -0.59,-0.5 -1.32,-1 -2.18,-1.49 z m -0.91,1.36 c 0.52,0.3 0.97,0.59 1.36,0.86 0.4,0.28 0.73,0.55 1,0.8 0.28,0.26 0.5,0.51 0.66,0.75 0.16,0.25 0.27,0.5 0.32,0.74 0.06,0.25 0.06,0.5 0.01,0.74 -0.05,0.25 -0.16,0.5 -0.3,0.76 -0.27,0.45 -0.59,0.76 -0.97,0.92 -0.38,0.16 -0.8,0.22 -1.27,0.16 -0.47,-0.05 -0.98,-0.19 -1.52,-0.42 -0.54,-0.24 -1.1,-0.52 -1.68,-0.86 -0.77,-0.44 -1.41,-0.87 -1.91,-1.26 -0.5,-0.4 -0.87,-0.78 -1.11,-1.15 -0.25,-0.38 -0.37,-0.74 -0.37,-1.11 0,-0.36 0.12,-0.73 0.34,-1.12 0.17,-0.3 0.37,-0.53 0.6,-0.71 0.23,-0.17 0.48,-0.29 0.76,-0.35 0.27,-0.06 0.57,-0.07 0.88,-0.03 0.32,0.04 0.64,0.12 0.99,0.23 0.34,0.11 0.7,0.26 1.07,0.44 0.37,0.18 0.75,0.38 1.14,0.61 z"
           style="fill:#595959;fill-opacity:1;fill-rule:nonzero;stroke:none"
           id="path266" /></g></g><g
       id="g268"><g
         id="g270"
         clip-path="url(#clipPath274)"><path
           d="m 507.16,153.06 c -0.8,-0.46 -1.57,-0.82 -2.3,-1.08 -0.74,-0.25 -1.43,-0.37 -2.07,-0.35 -0.64,0.01 -1.23,0.19 -1.77,0.51 -0.53,0.32 -1,0.83 -1.4,1.52 -0.37,0.65 -0.58,1.27 -0.6,1.86 -0.03,0.58 0.11,1.14 0.4,1.68 0.3,0.53 0.75,1.05 1.34,1.55 0.6,0.5 1.33,0.99 2.19,1.49 0.79,0.46 1.56,0.81 2.29,1.07 0.74,0.25 1.43,0.37 2.08,0.36 0.64,-0.02 1.23,-0.19 1.76,-0.51 0.53,-0.32 1,-0.83 1.39,-1.52 0.39,-0.66 0.59,-1.28 0.61,-1.86 0.03,-0.58 -0.11,-1.14 -0.4,-1.68 -0.3,-0.54 -0.74,-1.05 -1.34,-1.55 -0.6,-0.5 -1.32,-1 -2.18,-1.49 z m -0.92,1.36 c 0.52,0.3 0.98,0.59 1.37,0.87 0.39,0.27 0.73,0.54 1,0.79 0.28,0.26 0.49,0.51 0.66,0.76 0.16,0.24 0.27,0.49 0.32,0.74 0.05,0.24 0.06,0.49 0,0.73 -0.05,0.25 -0.15,0.5 -0.3,0.76 -0.26,0.46 -0.58,0.76 -0.96,0.93 -0.38,0.16 -0.81,0.21 -1.28,0.16 -0.47,-0.06 -0.97,-0.2 -1.51,-0.43 -0.54,-0.23 -1.1,-0.52 -1.68,-0.85 -0.78,-0.45 -1.42,-0.87 -1.91,-1.27 -0.5,-0.4 -0.87,-0.78 -1.12,-1.15 -0.24,-0.38 -0.36,-0.74 -0.36,-1.1 0,-0.36 0.11,-0.74 0.34,-1.13 0.17,-0.3 0.37,-0.53 0.6,-0.7 0.23,-0.18 0.48,-0.29 0.75,-0.35 0.28,-0.06 0.57,-0.07 0.89,-0.04 0.31,0.04 0.64,0.12 0.98,0.23 0.35,0.11 0.7,0.26 1.08,0.44 0.37,0.18 0.74,0.39 1.13,0.61 z m -1.18,-7.17 c -0.16,-0.09 -0.32,-0.17 -0.47,-0.24 -0.15,-0.06 -0.3,-0.11 -0.44,-0.15 -0.15,-0.03 -0.3,-0.05 -0.45,-0.06 -0.16,-0.01 -0.33,0 -0.52,0.01 l -2.3,0.15 c -0.05,0 -0.1,0.01 -0.15,0.03 -0.04,0.02 -0.09,0.05 -0.14,0.09 -0.05,0.04 -0.1,0.09 -0.15,0.15 -0.05,0.06 -0.1,0.15 -0.16,0.25 -0.05,0.09 -0.09,0.17 -0.12,0.23 -0.03,0.07 -0.04,0.12 -0.03,0.16 0,0.04 0.02,0.07 0.05,0.09 0.03,0.02 0.07,0.03 0.13,0.04 l 2.83,0.2 1.03,0.6 c 0.15,0.08 0.27,0.13 0.37,0.15 0.11,0.02 0.2,0.01 0.28,-0.03 0.08,-0.03 0.15,-0.1 0.23,-0.19 0.07,-0.08 0.14,-0.2 0.22,-0.34 0.08,-0.13 0.14,-0.25 0.18,-0.36 0.04,-0.1 0.06,-0.2 0.05,-0.29 -0.01,-0.08 -0.05,-0.16 -0.12,-0.24 -0.06,-0.08 -0.17,-0.16 -0.32,-0.25 z m 9.15,-6.4 c -0.81,-0.46 -1.57,-0.82 -2.31,-1.08 -0.73,-0.25 -1.42,-0.37 -2.06,-0.35 -0.65,0.02 -1.23,0.19 -1.77,0.51 -0.53,0.32 -1,0.83 -1.4,1.52 -0.38,0.66 -0.58,1.28 -0.6,1.86 -0.03,0.58 0.11,1.14 0.4,1.68 0.3,0.53 0.74,1.05 1.34,1.55 0.6,0.5 1.33,1 2.18,1.49 0.8,0.46 1.57,0.82 2.3,1.07 0.74,0.25 1.43,0.37 2.07,0.36 0.65,-0.02 1.23,-0.19 1.77,-0.51 0.53,-0.32 1,-0.83 1.39,-1.51 0.38,-0.66 0.59,-1.29 0.61,-1.87 0.03,-0.58 -0.11,-1.14 -0.4,-1.68 -0.3,-0.53 -0.74,-1.05 -1.34,-1.55 -0.6,-0.5 -1.33,-0.99 -2.18,-1.49 z m -0.92,1.36 c 0.52,0.3 0.98,0.59 1.37,0.87 0.39,0.27 0.72,0.54 1,0.79 0.27,0.26 0.49,0.51 0.65,0.76 0.17,0.25 0.27,0.49 0.33,0.74 0.05,0.25 0.05,0.49 0,0.74 -0.05,0.24 -0.15,0.49 -0.3,0.75 -0.26,0.46 -0.58,0.77 -0.96,0.93 -0.38,0.16 -0.81,0.21 -1.28,0.16 -0.47,-0.05 -0.97,-0.2 -1.51,-0.43 -0.54,-0.23 -1.1,-0.52 -1.68,-0.85 -0.78,-0.45 -1.42,-0.87 -1.92,-1.27 -0.49,-0.39 -0.87,-0.78 -1.11,-1.15 -0.24,-0.37 -0.36,-0.74 -0.36,-1.1 0,-0.36 0.11,-0.74 0.33,-1.12 0.18,-0.3 0.38,-0.54 0.61,-0.71 0.23,-0.18 0.48,-0.29 0.75,-0.35 0.28,-0.06 0.57,-0.07 0.89,-0.03 0.31,0.03 0.64,0.11 0.98,0.22 0.35,0.11 0.7,0.26 1.07,0.44 0.37,0.19 0.75,0.39 1.14,0.61 z m 0.8,-11.99 c -0.1,-0.06 -0.19,-0.1 -0.27,-0.13 -0.08,-0.02 -0.15,-0.03 -0.2,-0.03 -0.06,0 -0.11,0.01 -0.15,0.04 -0.04,0.02 -0.07,0.05 -0.09,0.09 l -3.15,5.45 c -0.02,0.03 -0.03,0.07 -0.03,0.12 0,0.04 0.02,0.09 0.04,0.14 0.03,0.06 0.07,0.11 0.13,0.17 0.06,0.06 0.14,0.11 0.24,0.17 0.1,0.06 0.19,0.1 0.27,0.12 0.08,0.03 0.15,0.04 0.21,0.04 0.06,0 0.11,-0.01 0.15,-0.03 0.05,-0.02 0.08,-0.05 0.11,-0.09 l 1.25,-2.18 7.93,4.58 -2.37,1.32 c -0.11,0.07 -0.19,0.13 -0.23,0.19 -0.05,0.06 -0.07,0.11 -0.05,0.17 0.01,0.06 0.05,0.12 0.13,0.18 0.07,0.06 0.17,0.12 0.29,0.19 0.09,0.06 0.17,0.1 0.24,0.13 0.07,0.02 0.13,0.04 0.18,0.05 0.05,0.01 0.11,0.01 0.16,0 0.04,-0.01 0.1,-0.03 0.16,-0.06 l 2.92,-1.51 c 0.03,-0.02 0.06,-0.04 0.09,-0.06 0.03,-0.03 0.06,-0.06 0.1,-0.1 0.04,-0.05 0.08,-0.1 0.12,-0.16 0.04,-0.06 0.09,-0.14 0.14,-0.24 0.08,-0.13 0.13,-0.24 0.17,-0.33 0.04,-0.09 0.07,-0.17 0.08,-0.23 0,-0.06 0,-0.1 -0.02,-0.14 -0.02,-0.03 -0.05,-0.06 -0.08,-0.08 l -9.16,-5.28 1.09,-1.89 c 0.02,-0.04 0.04,-0.09 0.03,-0.14 0,-0.05 -0.02,-0.1 -0.05,-0.15 -0.03,-0.05 -0.08,-0.11 -0.14,-0.16 -0.06,-0.05 -0.14,-0.11 -0.24,-0.16 z"
           style="fill:#595959;fill-opacity:1;fill-rule:nonzero;stroke:none"
           id="path276" /></g></g><g
       id="g278"><g
         id="g280"
         clip-path="url(#clipPath284)"><path
           d="m 566.32,153.28 c -0.8,-0.46 -1.57,-0.82 -2.3,-1.08 -0.73,-0.25 -1.42,-0.37 -2.07,-0.35 -0.64,0.02 -1.23,0.19 -1.76,0.51 -0.54,0.32 -1,0.83 -1.4,1.52 -0.38,0.66 -0.58,1.28 -0.61,1.86 -0.02,0.58 0.11,1.14 0.41,1.68 0.29,0.53 0.74,1.05 1.34,1.55 0.59,0.5 1.32,1 2.18,1.49 0.79,0.46 1.56,0.82 2.3,1.07 0.74,0.26 1.43,0.37 2.07,0.36 0.64,-0.02 1.23,-0.19 1.76,-0.51 0.54,-0.32 1,-0.82 1.4,-1.51 0.38,-0.66 0.58,-1.28 0.61,-1.87 0.02,-0.58 -0.11,-1.14 -0.41,-1.68 -0.29,-0.53 -0.74,-1.05 -1.34,-1.55 -0.59,-0.5 -1.32,-0.99 -2.18,-1.49 z m -0.91,1.36 c 0.52,0.3 0.97,0.59 1.36,0.87 0.4,0.27 0.73,0.54 1,0.8 0.28,0.25 0.5,0.5 0.66,0.75 0.16,0.25 0.27,0.49 0.32,0.74 0.06,0.25 0.06,0.49 0.01,0.74 -0.06,0.24 -0.16,0.49 -0.3,0.75 -0.27,0.46 -0.59,0.77 -0.97,0.93 -0.38,0.16 -0.8,0.21 -1.27,0.16 -0.47,-0.05 -0.98,-0.2 -1.52,-0.43 -0.54,-0.23 -1.1,-0.52 -1.68,-0.85 -0.77,-0.45 -1.41,-0.87 -1.91,-1.27 -0.5,-0.39 -0.87,-0.78 -1.11,-1.15 -0.25,-0.37 -0.37,-0.74 -0.37,-1.1 0,-0.36 0.12,-0.74 0.34,-1.12 0.17,-0.3 0.37,-0.54 0.6,-0.71 0.23,-0.17 0.48,-0.29 0.76,-0.35 0.27,-0.06 0.57,-0.07 0.88,-0.03 0.31,0.04 0.64,0.11 0.99,0.22 0.34,0.12 0.7,0.26 1.07,0.44 0.37,0.19 0.75,0.39 1.14,0.61 z m -1.18,-7.17 c -0.17,-0.09 -0.33,-0.17 -0.48,-0.24 -0.15,-0.06 -0.29,-0.11 -0.44,-0.14 -0.14,-0.04 -0.29,-0.06 -0.45,-0.07 -0.16,0 -0.33,0 -0.52,0.01 l -2.29,0.15 c -0.05,0 -0.1,0.02 -0.15,0.03 -0.05,0.02 -0.1,0.05 -0.15,0.09 -0.05,0.04 -0.1,0.09 -0.15,0.15 -0.04,0.07 -0.1,0.15 -0.15,0.25 -0.06,0.09 -0.1,0.17 -0.12,0.24 -0.03,0.06 -0.04,0.12 -0.04,0.15 0,0.04 0.02,0.07 0.05,0.09 0.03,0.02 0.07,0.04 0.13,0.04 l 2.83,0.21 1.03,0.59 c 0.15,0.08 0.27,0.14 0.38,0.16 0.1,0.02 0.19,0.01 0.27,-0.03 0.08,-0.04 0.16,-0.11 0.23,-0.19 0.07,-0.09 0.15,-0.2 0.23,-0.34 0.07,-0.14 0.13,-0.26 0.17,-0.36 0.04,-0.11 0.06,-0.21 0.05,-0.29 -0.01,-0.09 -0.04,-0.17 -0.11,-0.25 -0.07,-0.08 -0.18,-0.16 -0.32,-0.25 z m 4.26,-8.78 c -0.1,-0.06 -0.19,-0.1 -0.27,-0.13 -0.08,-0.02 -0.15,-0.03 -0.2,-0.03 -0.06,0 -0.11,0.01 -0.15,0.04 -0.04,0.02 -0.07,0.05 -0.09,0.09 l -3.14,5.45 c -0.03,0.03 -0.04,0.07 -0.04,0.12 0,0.04 0.02,0.09 0.04,0.14 0.03,0.06 0.07,0.11 0.13,0.17 0.06,0.06 0.14,0.11 0.25,0.17 0.09,0.06 0.18,0.1 0.26,0.12 0.08,0.03 0.15,0.04 0.21,0.04 0.06,0 0.11,0 0.15,-0.03 0.05,-0.02 0.08,-0.05 0.11,-0.09 l 1.25,-2.18 7.93,4.58 -2.36,1.32 c -0.12,0.07 -0.2,0.14 -0.24,0.19 -0.05,0.06 -0.07,0.11 -0.05,0.17 0.01,0.06 0.05,0.12 0.13,0.18 0.07,0.06 0.17,0.12 0.29,0.19 0.09,0.06 0.17,0.1 0.24,0.13 0.07,0.03 0.13,0.04 0.18,0.05 0.06,0.01 0.11,0.01 0.16,0 0.05,-0.01 0.1,-0.03 0.16,-0.06 l 2.92,-1.51 c 0.03,-0.02 0.06,-0.03 0.09,-0.06 0.03,-0.03 0.06,-0.06 0.1,-0.1 0.04,-0.04 0.08,-0.1 0.12,-0.16 0.04,-0.06 0.09,-0.14 0.14,-0.24 0.08,-0.13 0.14,-0.24 0.17,-0.33 0.04,-0.09 0.07,-0.17 0.08,-0.23 0.01,-0.06 0,-0.1 -0.02,-0.14 -0.02,-0.03 -0.05,-0.06 -0.08,-0.07 l -9.16,-5.29 1.09,-1.89 c 0.03,-0.04 0.04,-0.09 0.03,-0.14 0,-0.05 -0.02,-0.1 -0.05,-0.15 -0.03,-0.05 -0.08,-0.1 -0.14,-0.16 -0.06,-0.05 -0.14,-0.11 -0.24,-0.16 z"
           style="fill:#595959;fill-opacity:1;fill-rule:nonzero;stroke:none"
           id="path286" /></g></g><g
       id="g288"><g
         id="g290"
         clip-path="url(#clipPath294)"><path
           d="m 625.61,153.28 c -0.8,-0.46 -1.56,-0.82 -2.3,-1.08 -0.73,-0.25 -1.42,-0.37 -2.06,-0.35 -0.65,0.02 -1.24,0.19 -1.77,0.51 -0.53,0.32 -1,0.83 -1.4,1.52 -0.38,0.66 -0.58,1.28 -0.61,1.86 -0.02,0.58 0.11,1.14 0.41,1.68 0.3,0.53 0.74,1.05 1.34,1.55 0.59,0.5 1.32,1 2.18,1.49 0.8,0.46 1.56,0.82 2.3,1.07 0.74,0.26 1.43,0.37 2.07,0.36 0.64,-0.02 1.23,-0.19 1.76,-0.51 0.54,-0.32 1,-0.82 1.4,-1.51 0.38,-0.66 0.58,-1.28 0.61,-1.87 0.03,-0.58 -0.11,-1.14 -0.41,-1.68 -0.29,-0.53 -0.74,-1.05 -1.33,-1.55 -0.6,-0.5 -1.33,-0.99 -2.19,-1.49 z m -0.91,1.36 c 0.52,0.3 0.97,0.59 1.37,0.87 0.39,0.27 0.72,0.54 1,0.8 0.27,0.25 0.49,0.5 0.65,0.75 0.16,0.25 0.27,0.49 0.33,0.74 0.05,0.25 0.05,0.49 0,0.74 -0.05,0.24 -0.15,0.49 -0.3,0.75 -0.27,0.46 -0.59,0.77 -0.97,0.93 -0.38,0.16 -0.8,0.21 -1.27,0.16 -0.47,-0.05 -0.98,-0.2 -1.51,-0.43 -0.54,-0.23 -1.1,-0.52 -1.68,-0.85 -0.78,-0.45 -1.42,-0.87 -1.92,-1.27 -0.5,-0.39 -0.87,-0.78 -1.11,-1.15 -0.24,-0.37 -0.37,-0.74 -0.36,-1.1 0,-0.36 0.11,-0.74 0.33,-1.12 0.18,-0.3 0.38,-0.54 0.6,-0.71 0.23,-0.17 0.48,-0.29 0.76,-0.35 0.27,-0.06 0.57,-0.07 0.88,-0.03 0.32,0.04 0.65,0.11 0.99,0.22 0.34,0.12 0.7,0.26 1.07,0.44 0.37,0.19 0.75,0.39 1.14,0.61 z m -1.18,-7.17 c -0.17,-0.09 -0.33,-0.17 -0.47,-0.24 -0.15,-0.06 -0.3,-0.11 -0.45,-0.14 -0.14,-0.04 -0.29,-0.06 -0.45,-0.07 -0.15,0 -0.33,0 -0.51,0.01 l -2.3,0.15 c -0.05,0 -0.1,0.02 -0.15,0.03 -0.05,0.02 -0.1,0.05 -0.15,0.09 -0.05,0.04 -0.1,0.09 -0.14,0.15 -0.05,0.07 -0.1,0.15 -0.16,0.25 -0.05,0.09 -0.09,0.17 -0.12,0.24 -0.03,0.06 -0.04,0.12 -0.04,0.15 0,0.04 0.02,0.07 0.05,0.09 0.03,0.02 0.08,0.04 0.13,0.04 l 2.83,0.21 1.04,0.59 c 0.14,0.08 0.26,0.14 0.37,0.16 0.1,0.02 0.19,0.01 0.27,-0.03 0.08,-0.04 0.16,-0.11 0.23,-0.19 0.07,-0.09 0.15,-0.2 0.23,-0.34 0.08,-0.14 0.14,-0.26 0.18,-0.36 0.03,-0.11 0.05,-0.21 0.04,-0.29 0,-0.09 -0.04,-0.17 -0.11,-0.25 -0.07,-0.08 -0.18,-0.16 -0.32,-0.25 z m 7.03,-7.09 c -0.56,-0.32 -1.11,-0.52 -1.66,-0.58 -0.54,-0.06 -1.06,-0.01 -1.56,0.16 -0.49,0.17 -0.95,0.45 -1.39,0.84 -0.43,0.38 -0.81,0.87 -1.14,1.45 -0.19,0.32 -0.34,0.64 -0.46,0.95 -0.13,0.32 -0.22,0.61 -0.28,0.88 -0.06,0.26 -0.11,0.48 -0.13,0.66 -0.01,0.19 -0.02,0.31 0,0.37 0.01,0.06 0.03,0.11 0.05,0.15 0.03,0.03 0.06,0.07 0.09,0.11 0.04,0.04 0.09,0.08 0.16,0.13 0.07,0.04 0.15,0.09 0.25,0.15 0.09,0.05 0.17,0.09 0.25,0.13 0.08,0.03 0.14,0.05 0.2,0.06 0.06,0 0.11,-0.01 0.15,-0.02 0.04,-0.02 0.07,-0.05 0.09,-0.08 0.03,-0.06 0.04,-0.16 0.04,-0.31 0,-0.15 0.01,-0.35 0.05,-0.58 0.03,-0.24 0.09,-0.52 0.18,-0.84 0.1,-0.32 0.25,-0.68 0.48,-1.06 0.21,-0.36 0.44,-0.67 0.7,-0.92 0.26,-0.25 0.54,-0.43 0.85,-0.54 0.31,-0.12 0.64,-0.15 0.98,-0.12 0.35,0.04 0.73,0.17 1.12,0.4 0.34,0.19 0.6,0.41 0.79,0.67 0.2,0.25 0.32,0.53 0.36,0.85 0.04,0.31 0.01,0.66 -0.1,1.04 -0.11,0.38 -0.29,0.8 -0.56,1.27 -0.19,0.32 -0.37,0.6 -0.54,0.81 -0.17,0.22 -0.31,0.43 -0.43,0.64 -0.08,0.15 -0.11,0.27 -0.08,0.38 0.03,0.1 0.15,0.21 0.35,0.33 l 4.24,2.45 c 0.18,0.1 0.34,0.14 0.47,0.1 0.13,-0.03 0.25,-0.13 0.34,-0.28 l 2.66,-4.62 c 0.03,-0.04 0.04,-0.09 0.04,-0.14 0,-0.06 -0.02,-0.11 -0.05,-0.17 -0.04,-0.05 -0.09,-0.11 -0.15,-0.16 -0.07,-0.06 -0.16,-0.12 -0.26,-0.18 -0.19,-0.11 -0.36,-0.17 -0.49,-0.18 -0.14,-0.01 -0.24,0.03 -0.29,0.12 l -2.15,3.73 -2.92,-1.69 c 0.13,-0.17 0.25,-0.34 0.36,-0.53 0.12,-0.18 0.25,-0.4 0.39,-0.65 0.33,-0.57 0.55,-1.12 0.66,-1.63 0.1,-0.51 0.11,-0.98 0.01,-1.42 -0.09,-0.44 -0.28,-0.84 -0.57,-1.2 -0.28,-0.36 -0.65,-0.67 -1.1,-0.93 z"
           style="fill:#595959;fill-opacity:1;fill-rule:nonzero;stroke:none"
           id="path296" /></g></g><g
       id="g298"><g
         id="g300"
         clip-path="url(#clipPath304)"><path
           d="m 680.04,150.87 c -0.1,-0.06 -0.19,-0.1 -0.27,-0.12 -0.08,-0.03 -0.15,-0.04 -0.2,-0.04 -0.06,0 -0.11,0.02 -0.15,0.04 -0.04,0.03 -0.07,0.06 -0.09,0.09 l -3.14,5.45 c -0.03,0.04 -0.04,0.08 -0.04,0.12 0,0.04 0.02,0.09 0.04,0.15 0.03,0.05 0.07,0.11 0.13,0.16 0.06,0.06 0.14,0.12 0.25,0.18 0.09,0.05 0.18,0.09 0.26,0.12 0.08,0.02 0.15,0.03 0.21,0.04 0.06,0 0.11,-0.01 0.15,-0.03 0.05,-0.02 0.08,-0.06 0.11,-0.1 l 1.25,-2.17 7.93,4.57 -2.36,1.32 c -0.12,0.07 -0.2,0.14 -0.24,0.19 -0.05,0.06 -0.07,0.12 -0.05,0.17 0.01,0.06 0.05,0.12 0.13,0.18 0.07,0.06 0.17,0.13 0.29,0.2 0.09,0.05 0.17,0.09 0.24,0.12 0.07,0.03 0.13,0.05 0.18,0.06 0.06,0.01 0.11,0 0.16,-0.01 0.05,-0.01 0.1,-0.03 0.16,-0.06 l 2.92,-1.51 c 0.03,-0.01 0.06,-0.03 0.09,-0.06 0.03,-0.02 0.07,-0.06 0.1,-0.1 0.04,-0.04 0.08,-0.09 0.12,-0.16 0.04,-0.06 0.09,-0.14 0.15,-0.24 0.07,-0.13 0.13,-0.24 0.16,-0.33 0.04,-0.09 0.07,-0.17 0.08,-0.22 0.01,-0.06 0,-0.11 -0.02,-0.14 -0.02,-0.04 -0.05,-0.06 -0.08,-0.08 l -9.16,-5.29 1.09,-1.88 c 0.03,-0.05 0.04,-0.09 0.03,-0.15 0,-0.05 -0.02,-0.1 -0.05,-0.15 -0.03,-0.05 -0.08,-0.1 -0.14,-0.15 -0.06,-0.06 -0.14,-0.11 -0.24,-0.17 z"
           style="fill:#595959;fill-opacity:1;fill-rule:nonzero;stroke:none"
           id="path306" /></g></g><g
       id="g308"><g
         id="g310"
         clip-path="url(#clipPath314)"><path
           d="m 739.27,150.98 c -0.1,-0.06 -0.19,-0.1 -0.27,-0.13 -0.08,-0.02 -0.14,-0.03 -0.2,-0.03 -0.06,0 -0.11,0.02 -0.15,0.04 -0.04,0.02 -0.07,0.05 -0.09,0.09 l -3.14,5.45 c -0.03,0.03 -0.04,0.08 -0.04,0.12 0,0.04 0.02,0.09 0.04,0.14 0.03,0.06 0.07,0.11 0.13,0.17 0.06,0.06 0.14,0.11 0.25,0.17 0.09,0.06 0.18,0.1 0.26,0.12 0.08,0.03 0.15,0.04 0.21,0.04 0.06,0.01 0.11,0 0.15,-0.03 0.05,-0.02 0.08,-0.05 0.11,-0.09 l 1.25,-2.18 7.93,4.58 -2.36,1.32 c -0.12,0.07 -0.2,0.14 -0.24,0.19 -0.05,0.06 -0.07,0.11 -0.05,0.17 0.01,0.06 0.05,0.12 0.13,0.18 0.07,0.06 0.17,0.12 0.29,0.19 0.09,0.06 0.17,0.1 0.24,0.13 0.07,0.03 0.13,0.05 0.18,0.05 0.06,0.01 0.11,0.01 0.16,0 0.05,-0.01 0.1,-0.03 0.16,-0.06 l 2.93,-1.51 c 0.02,-0.01 0.05,-0.03 0.08,-0.06 0.03,-0.03 0.07,-0.06 0.1,-0.1 0.04,-0.04 0.08,-0.1 0.12,-0.16 0.04,-0.06 0.09,-0.14 0.15,-0.24 0.07,-0.13 0.13,-0.24 0.17,-0.33 0.03,-0.09 0.06,-0.17 0.07,-0.23 0.01,-0.06 0,-0.1 -0.02,-0.14 -0.02,-0.03 -0.05,-0.05 -0.08,-0.07 l -9.16,-5.29 1.09,-1.89 c 0.03,-0.04 0.04,-0.09 0.03,-0.14 0,-0.05 -0.01,-0.1 -0.05,-0.15 -0.03,-0.05 -0.08,-0.1 -0.14,-0.16 -0.06,-0.05 -0.14,-0.11 -0.24,-0.16 z m 9.64,-5.87 c -0.8,-0.46 -1.57,-0.82 -2.3,-1.07 -0.73,-0.26 -1.42,-0.38 -2.07,-0.36 -0.64,0.02 -1.23,0.19 -1.76,0.51 -0.54,0.33 -1,0.83 -1.4,1.53 -0.38,0.65 -0.58,1.27 -0.61,1.85 -0.02,0.59 0.11,1.15 0.41,1.68 0.29,0.54 0.74,1.06 1.34,1.55 0.59,0.5 1.32,1 2.18,1.5 0.8,0.45 1.56,0.81 2.3,1.06 0.74,0.26 1.43,0.38 2.07,0.36 0.64,-0.01 1.23,-0.18 1.76,-0.5 0.54,-0.33 1,-0.83 1.4,-1.52 0.38,-0.66 0.58,-1.28 0.61,-1.86 0.02,-0.59 -0.11,-1.15 -0.41,-1.68 -0.29,-0.54 -0.74,-1.06 -1.34,-1.55 -0.59,-0.5 -1.32,-1 -2.18,-1.5 z m -0.91,1.37 c 0.52,0.3 0.97,0.59 1.37,0.86 0.39,0.28 0.72,0.54 1,0.8 0.27,0.25 0.49,0.51 0.65,0.75 0.16,0.25 0.27,0.5 0.32,0.74 0.06,0.25 0.06,0.5 0.01,0.74 -0.05,0.25 -0.15,0.5 -0.3,0.76 -0.27,0.45 -0.59,0.76 -0.97,0.92 -0.38,0.16 -0.8,0.22 -1.27,0.16 -0.47,-0.05 -0.98,-0.19 -1.52,-0.43 -0.53,-0.23 -1.09,-0.51 -1.67,-0.85 -0.78,-0.45 -1.42,-0.87 -1.92,-1.26 -0.5,-0.4 -0.87,-0.78 -1.11,-1.16 -0.25,-0.37 -0.37,-0.74 -0.37,-1.1 0.01,-0.36 0.12,-0.73 0.34,-1.12 0.17,-0.3 0.38,-0.54 0.6,-0.71 0.23,-0.17 0.48,-0.29 0.76,-0.35 0.27,-0.06 0.57,-0.07 0.88,-0.03 0.32,0.04 0.64,0.11 0.99,0.23 0.34,0.11 0.7,0.26 1.07,0.44 0.37,0.18 0.75,0.38 1.14,0.61 z"
           style="fill:#595959;fill-opacity:1;fill-rule:nonzero;stroke:none"
           id="path316" /></g></g><g
       id="g318"><g
         id="g320"
         clip-path="url(#clipPath324)"><text
           transform="matrix(1,0,0,-1,74.625,174.23)"
           style="font-variant:normal;font-weight:normal;font-size:17.15px;font-family:Calibri;-inkscape-font-specification:Calibri;writing-mode:lr-tb;fill:#595959;fill-opacity:1;fill-rule:nonzero;stroke:none"
           id="text328"><tspan
             x="0"
             y="0"
             id="tspan326">-</tspan></text></g></g><g
       id="g330"><g
         id="g332"
         clip-path="url(#clipPath336)"><text
           transform="matrix(1,0,0,-1,79.95,174.23)"
           style="font-variant:normal;font-weight:normal;font-size:17.15px;font-family:Calibri;-inkscape-font-specification:Calibri;writing-mode:lr-tb;fill:#595959;fill-opacity:1;fill-rule:nonzero;stroke:none"
           id="text340"><tspan
             x="0 8.7636499 12.9654"
             y="0"
             sodipodi:role="line"
             id="tspan338">0,2</tspan></text></g></g><g
       id="g342"><g
         id="g344"
         clip-path="url(#clipPath348)"><text
           transform="matrix(1,0,0,-1,92.875,207.13)"
           style="font-variant:normal;font-weight:normal;font-size:17.15px;font-family:Calibri;-inkscape-font-specification:Calibri;writing-mode:lr-tb;fill:#595959;fill-opacity:1;fill-rule:nonzero;stroke:none"
           id="text352"><tspan
             x="0"
             y="0"
             id="tspan350">0</tspan></text></g></g><g
       id="g354"><g
         id="g356"
         clip-path="url(#clipPath360)"><text
           transform="matrix(1,0,0,-1,79.925,240.02)"
           style="font-variant:normal;font-weight:normal;font-size:17.15px;font-family:Calibri;-inkscape-font-specification:Calibri;writing-mode:lr-tb;fill:#595959;fill-opacity:1;fill-rule:nonzero;stroke:none"
           id="text364"><tspan
             x="0 8.7293501 12.8968"
             y="0"
             sodipodi:role="line"
             id="tspan362">0,2</tspan></text></g></g><g
       id="g366"><g
         id="g368"
         clip-path="url(#clipPath372)"><text
           transform="matrix(1,0,0,-1,79.925,272.95)"
           style="font-variant:normal;font-weight:normal;font-size:17.15px;font-family:Calibri;-inkscape-font-specification:Calibri;writing-mode:lr-tb;fill:#595959;fill-opacity:1;fill-rule:nonzero;stroke:none"
           id="text376"><tspan
             x="0 8.7293501 12.8968"
             y="0"
             sodipodi:role="line"
             id="tspan374">0,4</tspan></text></g></g><g
       id="g378"><g
         id="g380"
         clip-path="url(#clipPath384)"><text
           transform="matrix(1,0,0,-1,79.925,305.85)"
           style="font-variant:normal;font-weight:normal;font-size:17.15px;font-family:Calibri;-inkscape-font-specification:Calibri;writing-mode:lr-tb;fill:#595959;fill-opacity:1;fill-rule:nonzero;stroke:none"
           id="text388"><tspan
             x="0 8.7293501 12.8968"
             y="0"
             sodipodi:role="line"
             id="tspan386">0,6</tspan></text></g></g><g
       id="g390"><g
         id="g392"
         clip-path="url(#clipPath396)"><text
           transform="matrix(1,0,0,-1,79.925,338.75)"
           style="font-variant:normal;font-weight:normal;font-size:17.15px;font-family:Calibri;-inkscape-font-specification:Calibri;writing-mode:lr-tb;fill:#595959;fill-opacity:1;fill-rule:nonzero;stroke:none"
           id="text400"><tspan
             x="0 8.7293501 12.8968"
             y="0"
             sodipodi:role="line"
             id="tspan398">0,8</tspan></text></g></g><g
       id="g402"><g
         id="g404"
         clip-path="url(#clipPath408)"><text
           transform="matrix(1,0,0,-1,92.875,371.65)"
           style="font-variant:normal;font-weight:normal;font-size:17.15px;font-family:Calibri;-inkscape-font-specification:Calibri;writing-mode:lr-tb;fill:#595959;fill-opacity:1;fill-rule:nonzero;stroke:none"
           id="text412"><tspan
             x="0"
             y="0"
             id="tspan410">1</tspan></text></g></g><g
       id="g414"><g
         id="g416"
         clip-path="url(#clipPath420)"><text
           transform="matrix(1,0,0,-1,79.925,404.55)"
           style="font-variant:normal;font-weight:normal;font-size:17.15px;font-family:Calibri;-inkscape-font-specification:Calibri;writing-mode:lr-tb;fill:#595959;fill-opacity:1;fill-rule:nonzero;stroke:none"
           id="text424"><tspan
             x="0 8.7293501 12.8968"
             y="0"
             sodipodi:role="line"
             id="tspan422">1,2</tspan></text></g></g><g
       id="g426"><g
         id="g428"
         clip-path="url(#clipPath432)"><text
           transform="matrix(1,0,0,-1,79.925,437.45)"
           style="font-variant:normal;font-weight:normal;font-size:17.15px;font-family:Calibri;-inkscape-font-specification:Calibri;writing-mode:lr-tb;fill:#595959;fill-opacity:1;fill-rule:nonzero;stroke:none"
           id="text436"><tspan
             x="0 8.7293501 12.8968"
             y="0"
             sodipodi:role="line"
             id="tspan434">1,4</tspan></text></g></g><g
       id="g438"><g
         id="g440"
         clip-path="url(#clipPath444)"><text
           transform="matrix(1,0,0,-1,79.925,470.38)"
           style="font-variant:normal;font-weight:normal;font-size:17.15px;font-family:Calibri;-inkscape-font-specification:Calibri;writing-mode:lr-tb;fill:#595959;fill-opacity:1;fill-rule:nonzero;stroke:none"
           id="text448"><tspan
             x="0 8.7293501 12.8968"
             y="0"
             sodipodi:role="line"
             id="tspan446">1,6</tspan></text></g></g><g
       id="g450"><g
         id="g452"
         clip-path="url(#clipPath456)"><text
           transform="matrix(1,0,0,-1,79.925,503.28)"
           style="font-variant:normal;font-weight:normal;font-size:17.15px;font-family:Calibri;-inkscape-font-specification:Calibri;writing-mode:lr-tb;fill:#595959;fill-opacity:1;fill-rule:nonzero;stroke:none"
           id="text460"><tspan
             x="0 8.7293501 12.8968"
             y="0"
             sodipodi:role="line"
             id="tspan458">1,8</tspan></text></g></g><g
       id="g462"><g
         id="g464"
         clip-path="url(#clipPath468)"><text
           transform="matrix(1,0,0,-1,378.02,95.675)"
           style="font-variant:normal;font-weight:normal;font-size:20.95px;font-family:Calibri;-inkscape-font-specification:Calibri;writing-mode:lr-tb;fill:#595959;fill-opacity:1;fill-rule:nonzero;stroke:none"
           id="text472"><tspan
             x="0 9.5322504 16.8438 27.08835 35.866402 46.86515 57.214451 68.213203 77.07505 81.977348 91.886703 97.18705 103.63965 116.58675 124.9458"
             y="0"
             sodipodi:role="line"
             id="tspan470">Frecuencia (Hz)</tspan></text></g></g><path
       d="m 557.75,439.44 h 209.71 v 65.959 H 557.75 Z"
       style="fill:#ffffff;fill-opacity:1;fill-rule:evenodd;stroke:none"
       id="path474" /><path
       d="m 557.75,439.44 h 209.71 v 65.959 H 557.75 Z"
       style="fill:none;stroke:#000000;stroke-width:1.4291;stroke-linecap:butt;stroke-linejoin:round;stroke-miterlimit:10;stroke-dasharray:none;stroke-opacity:1"
       id="path476" /><path
       d="M 574.22,494.41 H 610.8"
       style="fill:none;stroke:#ed7d31;stroke-width:4.2861;stroke-linecap:round;stroke-linejoin:round;stroke-miterlimit:10;stroke-dasharray:none;stroke-opacity:1"
       id="path478" /><path
       d="m 587.82,489.97 h 9.1437 v 9.1437 H 587.82 Z"
       style="fill:#ed7d31;fill-opacity:1;fill-rule:nonzero;stroke:none"
       id="path480" /><path
       d="m 587.82,489.97 h 9.1437 v 9.1437 H 587.82 Z"
       style="fill:none;stroke:#ed7d31;stroke-width:0.95247;stroke-linecap:butt;stroke-linejoin:round;stroke-miterlimit:10;stroke-dasharray:none;stroke-opacity:1"
       id="path482" /><g
       id="g484"><g
         id="g486"
         clip-path="url(#clipPath490)"><text
           transform="matrix(1,0,0,-1,614.8,489.4)"
           style="font-variant:normal;font-weight:normal;font-size:17.15px;font-family:Calibri;-inkscape-font-specification:Calibri;writing-mode:lr-tb;fill:#595959;fill-opacity:1;fill-rule:nonzero;stroke:none"
           id="text494"><tspan
             x="0 14.4746 22.44935 30.81855 34.69445 38.844749 47.985699 57.126652 66.267601"
             y="0"
             sodipodi:role="line"
             id="tspan492">MSE Input</tspan></text></g></g><g
       id="g496"><g
         id="g498"
         clip-path="url(#clipPath502)"><text
           transform="matrix(1,0,0,-1,686.83,489.4)"
           style="font-variant:normal;font-weight:normal;font-size:17.15px;font-family:Calibri;-inkscape-font-specification:Calibri;writing-mode:lr-tb;fill:#595959;fill-opacity:1;fill-rule:nonzero;stroke:none"
           id="text506"><tspan
             x="0"
             y="0"
             id="tspan504">-</tspan></text></g></g><g
       id="g508"><g
         id="g510"
         clip-path="url(#clipPath514)"><text
           transform="matrix(1,0,0,-1,692.17,489.4)"
           style="font-variant:normal;font-weight:normal;font-size:17.15px;font-family:Calibri;-inkscape-font-specification:Calibri;writing-mode:lr-tb;fill:#595959;fill-opacity:1;fill-rule:nonzero;stroke:none"
           id="text518"><tspan
             x="0 11.40475 20.5114 26.256651 35.311852 44.418499"
             y="0"
             sodipodi:role="line"
             id="tspan516">Output</tspan></text></g></g><path
       d="M 574.22,472.42 H 610.8"
       style="fill:none;stroke:#4472c4;stroke-width:4.2861;stroke-linecap:round;stroke-linejoin:round;stroke-miterlimit:10;stroke-dasharray:none;stroke-opacity:1"
       id="path520" /><path
       d="m 596.78,472.63 c 0,-2.52 -2.05,-4.57 -4.57,-4.57 -2.53,0 -4.58,2.05 -4.58,4.57 0,2.53 2.05,4.58 4.58,4.58 2.52,0 4.57,-2.05 4.57,-4.58 z"
       style="fill:#4472c4;fill-opacity:1;fill-rule:nonzero;stroke:none"
       id="path522" /><path
       d="m 596.78,472.63 c 0,-2.52 -2.05,-4.57 -4.57,-4.57 -2.53,0 -4.58,2.05 -4.58,4.57 0,2.53 2.05,4.58 4.58,4.58 2.52,0 4.57,-2.05 4.57,-4.58 z"
       style="fill:none;stroke:#4472c4;stroke-width:0.95247;stroke-linecap:butt;stroke-linejoin:round;stroke-miterlimit:10;stroke-dasharray:none;stroke-opacity:1"
       id="path524" /><g
       id="g526"><g
         id="g528"
         clip-path="url(#clipPath532)"><text
           transform="matrix(1,0,0,-1,614.8,467.4)"
           style="font-variant:normal;font-weight:normal;font-size:17.15px;font-family:Calibri;-inkscape-font-specification:Calibri;writing-mode:lr-tb;fill:#595959;fill-opacity:1;fill-rule:nonzero;stroke:none"
           id="text536"><tspan
             x="0 8.3691998 17.510151 25.879351 31.9676 39.959499 43.783951 52.136002 56.011902 63.952351 72.304398 76.128853 79.9533 89.094254 97.446297 100.8763 110.80615 119.9471 128.29915"
             y="0"
             sodipodi:role="line"
             id="tspan534">Energia Salida AC=2</tspan></text></g></g><path
       d="M 574.22,450.43 H 610.8"
       style="fill:none;stroke:#70ad47;stroke-width:4.2861;stroke-linecap:round;stroke-linejoin:round;stroke-miterlimit:10;stroke-dasharray:none;stroke-opacity:1"
       id="path538" /><path
       d="m 592.59,455.11 4.57,-9.14 h -9.14 z"
       style="fill:#70ad47;fill-opacity:1;fill-rule:nonzero;stroke:none"
       id="path540" /><path
       d="m 592.59,455.11 4.57,-9.14 h -9.14 z"
       style="fill:none;stroke:#70ad47;stroke-width:0.95247;stroke-linecap:butt;stroke-linejoin:round;stroke-miterlimit:10;stroke-dasharray:none;stroke-opacity:1"
       id="path542" /><g
       id="g544"><g
         id="g546"
         clip-path="url(#clipPath550)"><text
           transform="matrix(1,0,0,-1,614.8,445.43)"
           style="font-variant:normal;font-weight:normal;font-size:17.15px;font-family:Calibri;-inkscape-font-specification:Calibri;writing-mode:lr-tb;fill:#595959;fill-opacity:1;fill-rule:nonzero;stroke:none"
           id="text554"><tspan
             x="0 8.3691998 17.510151 25.879351 31.9676 39.959499 43.783951 52.136002 56.011902 64.381104 73.470596 79.215851 85.286949 93.639 102.77995"
             y="0"
             sodipodi:role="line"
             id="tspan552">Energia Entrada</tspan></text></g></g><g
       id="g556"><g
         id="g558"
         clip-path="url(#clipPath562)"><path
           d="m 51.015,68.599 h 739.78 v 457.76 H 51.015 Z"
           style="fill:none;stroke:#d9d9d9;stroke-width:1.4291;stroke-linecap:butt;stroke-linejoin:round;stroke-miterlimit:10;stroke-dasharray:none;stroke-opacity:1"
           id="path564" /></g></g></g></svg>
