<svg version="1.1" xmlns="http://www.w3.org/2000/svg" xmlns:xlink="http://www.w3.org/1999/xlink" width="800" height="800"><defs/><g transform="scale(2,2)"><g id="background-3d59c748"><rect fill="white" stroke="none" x="0" y="0" width="400" height="400" class="dcg-svg-background"/></g><g id="background-images-3d59c748"/><g id="graphpaper-3d59c748"><g id="grid-3d59c748"><g><path fill="none" stroke="rgb(0,0,0)" class="dcg-svg-minor-gridline" paint-order="fill stroke markers" d=" M 1.5 0 L 1.5 400" stroke-opacity="0.2" stroke-miterlimit="10" stroke-dasharray=""/><path fill="none" stroke="rgb(0,0,0)" class="dcg-svg-minor-gridline" paint-order="fill stroke markers" d=" M 19.5 0 L 19.5 400" stroke-opacity="0.2" stroke-miterlimit="10" stroke-dasharray=""/><path fill="none" stroke="rgb(0,0,0)" class="dcg-svg-minor-gridline" paint-order="fill stroke markers" d=" M 38.5 0 L 38.5 400" stroke-opacity="0.2" stroke-miterlimit="10" stroke-dasharray=""/><path fill="none" stroke="rgb(0,0,0)" class="dcg-svg-minor-gridline" paint-order="fill stroke markers" d=" M 75.5 0 L 75.5 400" stroke-opacity="0.2" stroke-miterlimit="10" stroke-dasharray=""/><path fill="none" stroke="rgb(0,0,0)" class="dcg-svg-minor-gridline" paint-order="fill stroke markers" d=" M 94.5 0 L 94.5 400" stroke-opacity="0.2" stroke-miterlimit="10" stroke-dasharray=""/><path fill="none" stroke="rgb(0,0,0)" class="dcg-svg-minor-gridline" paint-order="fill stroke markers" d=" M 113.5 0 L 113.5 400" stroke-opacity="0.2" stroke-miterlimit="10" stroke-dasharray=""/><path fill="none" stroke="rgb(0,0,0)" class="dcg-svg-minor-gridline" paint-order="fill stroke markers" d=" M 131.5 0 L 131.5 400" stroke-opacity="0.2" stroke-miterlimit="10" stroke-dasharray=""/><path fill="none" stroke="rgb(0,0,0)" class="dcg-svg-minor-gridline" paint-order="fill stroke markers" d=" M 150.5 0 L 150.5 400" stroke-opacity="0.2" stroke-miterlimit="10" stroke-dasharray=""/><path fill="none" stroke="rgb(0,0,0)" class="dcg-svg-minor-gridline" paint-order="fill stroke markers" d=" M 169.5 0 L 169.5 400" stroke-opacity="0.2" stroke-miterlimit="10" stroke-dasharray=""/><path fill="none" stroke="rgb(0,0,0)" class="dcg-svg-minor-gridline" paint-order="fill stroke markers" d=" M 187.5 0 L 187.5 400" stroke-opacity="0.2" stroke-miterlimit="10" stroke-dasharray=""/><path fill="none" stroke="rgb(0,0,0)" class="dcg-svg-minor-gridline" paint-order="fill stroke markers" d=" M 206.5 0 L 206.5 400" stroke-opacity="0.2" stroke-miterlimit="10" stroke-dasharray=""/><path fill="none" stroke="rgb(0,0,0)" class="dcg-svg-minor-gridline" paint-order="fill stroke markers" d=" M 224.5 0 L 224.5 400" stroke-opacity="0.2" stroke-miterlimit="10" stroke-dasharray=""/><path fill="none" stroke="rgb(0,0,0)" class="dcg-svg-minor-gridline" paint-order="fill stroke markers" d=" M 243.5 0 L 243.5 400" stroke-opacity="0.2" stroke-miterlimit="10" stroke-dasharray=""/><path fill="none" stroke="rgb(0,0,0)" class="dcg-svg-minor-gridline" paint-order="fill stroke markers" d=" M 262.5 0 L 262.5 400" stroke-opacity="0.2" stroke-miterlimit="10" stroke-dasharray=""/><path fill="none" stroke="rgb(0,0,0)" class="dcg-svg-minor-gridline" paint-order="fill stroke markers" d=" M 280.5 0 L 280.5 400" stroke-opacity="0.2" stroke-miterlimit="10" stroke-dasharray=""/><path fill="none" stroke="rgb(0,0,0)" class="dcg-svg-minor-gridline" paint-order="fill stroke markers" d=" M 299.5 0 L 299.5 400" stroke-opacity="0.2" stroke-miterlimit="10" stroke-dasharray=""/><path fill="none" stroke="rgb(0,0,0)" class="dcg-svg-minor-gridline" paint-order="fill stroke markers" d=" M 318.5 0 L 318.5 400" stroke-opacity="0.2" stroke-miterlimit="10" stroke-dasharray=""/><path fill="none" stroke="rgb(0,0,0)" class="dcg-svg-minor-gridline" paint-order="fill stroke markers" d=" M 336.5 0 L 336.5 400" stroke-opacity="0.2" stroke-miterlimit="10" stroke-dasharray=""/><path fill="none" stroke="rgb(0,0,0)" class="dcg-svg-minor-gridline" paint-order="fill stroke markers" d=" M 355.5 0 L 355.5 400" stroke-opacity="0.2" stroke-miterlimit="10" stroke-dasharray=""/><path fill="none" stroke="rgb(0,0,0)" class="dcg-svg-minor-gridline" paint-order="fill stroke markers" d=" M 374.5 0 L 374.5 400" stroke-opacity="0.2" stroke-miterlimit="10" stroke-dasharray=""/><path fill="none" stroke="rgb(0,0,0)" class="dcg-svg-minor-gridline" paint-order="fill stroke markers" d=" M 392.5 0 L 392.5 400" stroke-opacity="0.2" stroke-miterlimit="10" stroke-dasharray=""/><path fill="none" stroke="rgb(0,0,0)" class="dcg-svg-minor-gridline" paint-order="fill stroke markers" d=" M 0 385.5 L 400 385.5" stroke-opacity="0.2" stroke-miterlimit="10" stroke-dasharray=""/><path fill="none" stroke="rgb(0,0,0)" class="dcg-svg-minor-gridline" paint-order="fill stroke markers" d=" M 0 364.5 L 400 364.5" stroke-opacity="0.2" stroke-miterlimit="10" stroke-dasharray=""/><path fill="none" stroke="rgb(0,0,0)" class="dcg-svg-minor-gridline" paint-order="fill stroke markers" d=" M 0 343.5 L 400 343.5" stroke-opacity="0.2" stroke-miterlimit="10" stroke-dasharray=""/><path fill="none" stroke="rgb(0,0,0)" class="dcg-svg-minor-gridline" paint-order="fill stroke markers" d=" M 0 323.5 L 400 323.5" stroke-opacity="0.2" stroke-miterlimit="10" stroke-dasharray=""/><path fill="none" stroke="rgb(0,0,0)" class="dcg-svg-minor-gridline" paint-order="fill stroke markers" d=" M 0 302.5 L 400 302.5" stroke-opacity="0.2" stroke-miterlimit="10" stroke-dasharray=""/><path fill="none" stroke="rgb(0,0,0)" class="dcg-svg-minor-gridline" paint-order="fill stroke markers" d=" M 0 281.5 L 400 281.5" stroke-opacity="0.2" stroke-miterlimit="10" stroke-dasharray=""/><path fill="none" stroke="rgb(0,0,0)" class="dcg-svg-minor-gridline" paint-order="fill stroke markers" d=" M 0 260.5 L 400 260.5" stroke-opacity="0.2" stroke-miterlimit="10" stroke-dasharray=""/><path fill="none" stroke="rgb(0,0,0)" class="dcg-svg-minor-gridline" paint-order="fill stroke markers" d=" M 0 239.5 L 400 239.5" stroke-opacity="0.2" stroke-miterlimit="10" stroke-dasharray=""/><path fill="none" stroke="rgb(0,0,0)" class="dcg-svg-minor-gridline" paint-order="fill stroke markers" d=" M 0 219.5 L 400 219.5" stroke-opacity="0.2" stroke-miterlimit="10" stroke-dasharray=""/><path fill="none" stroke="rgb(0,0,0)" class="dcg-svg-minor-gridline" paint-order="fill stroke markers" d=" M 0 177.5 L 400 177.5" stroke-opacity="0.2" stroke-miterlimit="10" stroke-dasharray=""/><path fill="none" stroke="rgb(0,0,0)" class="dcg-svg-minor-gridline" paint-order="fill stroke markers" d=" M 0 156.5 L 400 156.5" stroke-opacity="0.2" stroke-miterlimit="10" stroke-dasharray=""/><path fill="none" stroke="rgb(0,0,0)" class="dcg-svg-minor-gridline" paint-order="fill stroke markers" d=" M 0 135.5 L 400 135.5" stroke-opacity="0.2" stroke-miterlimit="10" stroke-dasharray=""/><path fill="none" stroke="rgb(0,0,0)" class="dcg-svg-minor-gridline" paint-order="fill stroke markers" d=" M 0 115.5 L 400 115.5" stroke-opacity="0.2" stroke-miterlimit="10" stroke-dasharray=""/><path fill="none" stroke="rgb(0,0,0)" class="dcg-svg-minor-gridline" paint-order="fill stroke markers" d=" M 0 94.5 L 400 94.5" stroke-opacity="0.2" stroke-miterlimit="10" stroke-dasharray=""/><path fill="none" stroke="rgb(0,0,0)" class="dcg-svg-minor-gridline" paint-order="fill stroke markers" d=" M 0 73.5 L 400 73.5" stroke-opacity="0.2" stroke-miterlimit="10" stroke-dasharray=""/><path fill="none" stroke="rgb(0,0,0)" class="dcg-svg-minor-gridline" paint-order="fill stroke markers" d=" M 0 52.5 L 400 52.5" stroke-opacity="0.2" stroke-miterlimit="10" stroke-dasharray=""/><path fill="none" stroke="rgb(0,0,0)" class="dcg-svg-minor-gridline" paint-order="fill stroke markers" d=" M 0 31.5 L 400 31.5" stroke-opacity="0.2" stroke-miterlimit="10" stroke-dasharray=""/><path fill="none" stroke="rgb(0,0,0)" class="dcg-svg-minor-gridline" paint-order="fill stroke markers" d=" M 0 11.5 L 400 11.5" stroke-opacity="0.2" stroke-miterlimit="10" stroke-dasharray=""/><path fill="none" stroke="rgb(0,0,0)" class="dcg-svg-major-gridline" paint-order="fill stroke markers" d=" M 150.5 0 L 150.5 400" stroke-opacity="0.2500000000000001" stroke-miterlimit="10" stroke-dasharray=""/><path fill="none" stroke="rgb(0,0,0)" class="dcg-svg-major-gridline" paint-order="fill stroke markers" d=" M 243.5 0 L 243.5 400" stroke-opacity="0.2500000000000001" stroke-miterlimit="10" stroke-dasharray=""/><path fill="none" stroke="rgb(0,0,0)" class="dcg-svg-major-gridline" paint-order="fill stroke markers" d=" M 336.5 0 L 336.5 400" stroke-opacity="0.2500000000000001" stroke-miterlimit="10" stroke-dasharray=""/><path fill="none" stroke="rgb(0,0,0)" class="dcg-svg-major-gridline" paint-order="fill stroke markers" d=" M 0 364.5 L 400 364.5" stroke-opacity="0.2500000000000001" stroke-miterlimit="10" stroke-dasharray=""/><path fill="none" stroke="rgb(0,0,0)" class="dcg-svg-major-gridline" paint-order="fill stroke markers" d=" M 0 281.5 L 400 281.5" stroke-opacity="0.2500000000000001" stroke-miterlimit="10" stroke-dasharray=""/><path fill="none" stroke="rgb(0,0,0)" class="dcg-svg-major-gridline" paint-order="fill stroke markers" d=" M 0 115.5 L 400 115.5" stroke-opacity="0.2500000000000001" stroke-miterlimit="10" stroke-dasharray=""/><path fill="none" stroke="rgb(0,0,0)" class="dcg-svg-major-gridline" paint-order="fill stroke markers" d=" M 0 31.5 L 400 31.5" stroke-opacity="0.2500000000000001" stroke-miterlimit="10" stroke-dasharray=""/></g></g><g id="axis-3d59c748"><g id="yaxis-3d59c748"><title>Y axis</title><path fill="none" stroke="rgb(0,0,0)" class="dcg-svg-axis-line" paint-order="fill stroke markers" d=" M 58 0 L 58 400" stroke-opacity="0.9" stroke-miterlimit="10" stroke-width="1.5" stroke-dasharray=""/></g><g id="xaxis-3d59c748"><title>X axis</title><path fill="none" stroke="rgb(0,0,0)" class="dcg-svg-axis-line" paint-order="fill stroke markers" d=" M 0 199 L 400 199" stroke-opacity="0.9" stroke-miterlimit="10" stroke-width="1.5" stroke-dasharray=""/></g><g><g class="dcg-svg-axis-value"><text fill="none" stroke="#ffffff" font-family="Arial" font-size="14px" font-style="normal" font-weight="normal" text-decoration="normal" x="48.80217483593153" y="214.6386145206257" text-anchor="middle" stroke-miterlimit="2" stroke-width="3" stroke-dasharray="">0</text><text fill="#000000" stroke="none" font-family="Arial" font-size="14px" font-style="normal" font-weight="normal" text-decoration="normal" x="48.80217483593153" y="214.6386145206257" text-anchor="middle">0</text></g><g class="dcg-svg-axis-value"><text fill="none" stroke="#ffffff" font-family="Arial" font-size="14px" font-style="normal" font-weight="normal" text-decoration="normal" x="150.89403513865204" y="214.6386145206257" text-anchor="middle" stroke-miterlimit="2" stroke-width="3" stroke-dasharray="">1</text><text fill="#000000" stroke="none" font-family="Arial" font-size="14px" font-style="normal" font-weight="normal" text-decoration="normal" x="150.89403513865204" y="214.6386145206257" text-anchor="middle">1</text></g><g class="dcg-svg-axis-value"><text fill="none" stroke="#ffffff" font-family="Arial" font-size="14px" font-style="normal" font-weight="normal" text-decoration="normal" x="244.09282903512258" y="214.6386145206257" text-anchor="middle" stroke-miterlimit="2" stroke-width="3" stroke-dasharray="">2</text><text fill="#000000" stroke="none" font-family="Arial" font-size="14px" font-style="normal" font-weight="normal" text-decoration="normal" x="244.09282903512258" y="214.6386145206257" text-anchor="middle">2</text></g><g class="dcg-svg-axis-value"><text fill="none" stroke="#ffffff" font-family="Arial" font-size="14px" font-style="normal" font-weight="normal" text-decoration="normal" x="337.29162293159305" y="214.6386145206257" text-anchor="middle" stroke-miterlimit="2" stroke-width="3" stroke-dasharray="">3</text><text fill="#000000" stroke="none" font-family="Arial" font-size="14px" font-style="normal" font-weight="normal" text-decoration="normal" x="337.29162293159305" y="214.6386145206257" text-anchor="middle">3</text></g><g class="dcg-svg-axis-value"><text fill="none" stroke="#ffffff" font-family="Arial" font-size="14px" font-style="normal" font-weight="normal" text-decoration="normal" x="46.47112014843153" y="369.06198390758095" text-anchor="middle" stroke-miterlimit="2" stroke-width="3" stroke-dasharray="">-4</text><text fill="#000000" stroke="none" font-family="Arial" font-size="14px" font-style="normal" font-weight="normal" text-decoration="normal" x="46.47112014843153" y="369.06198390758095" text-anchor="middle">-4</text></g><g class="dcg-svg-axis-value"><text fill="none" stroke="#ffffff" font-family="Arial" font-size="14px" font-style="normal" font-weight="normal" text-decoration="normal" x="46.47112014843153" y="285.85029921410336" text-anchor="middle" stroke-miterlimit="2" stroke-width="3" stroke-dasharray="">-2</text><text fill="#000000" stroke="none" font-family="Arial" font-size="14px" font-style="normal" font-weight="normal" text-decoration="normal" x="46.47112014843153" y="285.85029921410336" text-anchor="middle">-2</text></g><g class="dcg-svg-axis-value"><text fill="none" stroke="#ffffff" font-family="Arial" font-size="14px" font-style="normal" font-weight="normal" text-decoration="normal" x="48.80217483593153" y="119.42692982714809" text-anchor="middle" stroke-miterlimit="2" stroke-width="3" stroke-dasharray="">2</text><text fill="#000000" stroke="none" font-family="Arial" font-size="14px" font-style="normal" font-weight="normal" text-decoration="normal" x="48.80217483593153" y="119.42692982714809" text-anchor="middle">2</text></g><g class="dcg-svg-axis-value"><text fill="none" stroke="#ffffff" font-family="Arial" font-size="14px" font-style="normal" font-weight="normal" text-decoration="normal" x="48.80217483593153" y="36.21524513367044" text-anchor="middle" stroke-miterlimit="2" stroke-width="3" stroke-dasharray="">4</text><text fill="#000000" stroke="none" font-family="Arial" font-size="14px" font-style="normal" font-weight="normal" text-decoration="normal" x="48.80217483593153" y="36.21524513367044" text-anchor="middle">4</text></g></g></g></g><g id="expressions-3d59c748"><g id="sketch-3d59c748"><title>Expression 2</title><path fill="#388c46" stroke="none" paint-order="stroke fill markers" d="" fill-opacity="0.4"/><path fill="#388c46" stroke="none" paint-order="stroke fill markers" d="" fill-opacity="0.4"/><path fill="#388c46" stroke="none" class="dcg-svg-region" paint-order="stroke fill markers" d=" M 10.59584429394627 198.33061452062572 L 383.3910198798283 198.33061452062572 L 383.3910198798283 156.7247721738869 L 10.59584429394627 198.33061452062572" fill-opacity="0.4"/><g><path fill="none" stroke="#388c46" class="dcg-svg-curve" paint-order="fill stroke markers" d=" M 10.59584429394627 198.33061452062572 L 21.59584429394627 198.33061452062572 M 28.59584429394627 198.33061452062572 L 39.59584429394627 198.33061452062572 M 46.59584429394627 198.33061452062572 L 57.59584429394627 198.33061452062572 M 64.59584429394627 198.33061452062572 L 75.59584429394627 198.33061452062572 M 82.59584429394627 198.33061452062572 L 93.59584429394627 198.33061452062572 M 100.59584429394627 198.33061452062572 L 111.59584429394627 198.33061452062572 M 118.59584429394627 198.33061452062572 L 129.59584429394627 198.33061452062572 M 136.59584429394627 198.33061452062572 L 147.59584429394627 198.33061452062572 M 154.59584429394627 198.33061452062572 L 165.59584429394627 198.33061452062572 M 172.59584429394627 198.33061452062572 L 183.59584429394627 198.33061452062572 M 190.59584429394627 198.33061452062572 L 201.59584429394627 198.33061452062572 M 208.59584429394627 198.33061452062572 L 219.59584429394627 198.33061452062572 M 226.59584429394627 198.33061452062572 L 237.59584429394627 198.33061452062572 M 244.59584429394627 198.33061452062572 L 255.59584429394627 198.33061452062572 M 262.59584429394624 198.33061452062572 L 273.59584429394624 198.33061452062572 M 280.59584429394624 198.33061452062572 L 291.59584429394624 198.33061452062572 M 298.59584429394624 198.33061452062572 L 309.59584429394624 198.33061452062572 M 316.59584429394624 198.33061452062572 L 327.59584429394624 198.33061452062572 M 334.59584429394624 198.33061452062572 L 345.59584429394624 198.33061452062572 M 352.59584429394624 198.33061452062572 L 363.59584429394624 198.33061452062572 M 370.59584429394624 198.33061452062572 L 381.59584429394624 198.33061452062572" stroke-linecap="round" stroke-linejoin="round" stroke-miterlimit="10" stroke-width="2.5" stroke-opacity="0.9" stroke-dasharray=""/></g><g><path fill="none" stroke="#388c46" class="dcg-svg-curve" paint-order="fill stroke markers" d=" M 10.59584429394627 198.33061452062572 L 21.527971354269965 197.11053340162647 M 28.48477948356686 196.3341181440815 L 39.416906543890555 195.11403702508224 M 46.37371467318745 194.33762176753726 L 57.305841733511144 193.117540648538 M 64.26264986280803 192.34112539099303 L 75.19477692313173 191.12104427199378 M 82.15158505242862 190.3446290144488 L 93.08371211275231 189.12454789544955 M 100.0405202420492 188.34813263790457 L 110.97264730237289 187.12805151890532 M 117.9294554316698 186.35163626136034 L 128.8615824919935 185.1315551423611 M 135.81839062129038 184.3551398848161 L 146.75051768161407 183.13505876581686 M 153.70732581091096 182.35864350827188 L 164.63945287123465 181.13856238927264 M 171.59626100053154 180.36214713172765 L 182.52838806085524 179.1420660127284 M 189.48519619015212 178.36565075518342 L 200.41732325047582 177.14556963618418 M 207.3741313797727 176.3691543786392 L 218.3062584400964 175.14907325963995 M 225.2630665693933 174.37265800209497 L 236.19519362971698 173.15257688309572 M 243.15200175901387 172.37616162555074 L 254.08412881933756 171.1560805065515 M 261.04093694863445 170.3796652490065 L 271.97306400895815 169.15958413000726 M 278.92987213825506 168.38316887246228 L 289.86199919857876 167.16308775346303 M 296.8188073278757 166.38667249591805 L 307.75093438819937 165.1665913769188 M 314.7077425174963 164.39017611937382 L 325.63986957782 163.17009500037457 M 332.5966777071169 162.3936797428296 L 343.5288047674406 161.17359862383034 M 350.48561289673745 160.39718336628536 L 361.41773995706114 159.17710224728611 M 368.37454808635806 158.40068698974113 L 379.3066751466817 157.1806058707419" stroke-linecap="round" stroke-linejoin="round" stroke-miterlimit="10" stroke-width="2.5" stroke-opacity="0.9" stroke-dasharray=""/></g></g><g id="sketch-3d59c748"><title>Expression 3</title><path fill="#000000" stroke="none" paint-order="stroke fill markers" d="" fill-opacity="0.4"/><g><path fill="none" stroke="#000000" class="dcg-svg-curve" paint-order="fill stroke markers" d=" M 10.59584429394627 198.33061452062572 L 10.59584429394627 198.33061452062572 L 12.353390957263677 197.63249643301708 L 13.329805770217796 197.4270667312166 L 14.403862064467326 197.4509220461212 L 15.380276877421444 197.73914939351104 L 16.16140872778474 198.15698163585617 L 17.040182059443445 198.80892608838093 L 18.114238353692972 199.81065710789505 L 21.336407236441566 202.98199602330928 L 22.117539086804857 203.47106281715654 L 22.801029455872744 203.71827390581618 L 23.48451982494062 203.7662852361174 L 24.265651675303918 203.54990349784623 L 24.85150056307638 203.18698257008447 L 25.534990932144268 202.54368358863712 L 26.316122782507563 201.52848123860858 L 27.194896114166266 200.06433443771343 L 28.2689524084158 197.9088430588316 L 32.076970178936854 189.87123977424523 L 32.858102029300156 188.77868630539447 L 33.44395091707262 188.20629405954674 L 33.93215832354967 187.91331585051833 L 34.46703370344969 187.8003295474399 L 35.00621461779921 187.91847062210692 L 35.49442202427627 188.23266154355645 L 35.98262943075333 188.74553977368902 L 36.56847831852579 189.61980316915043 L 37.25196868759368 190.98138871720076 L 38.03310053795697 192.94751895162804 L 39.1071568322065 196.23510571242616 L 40.76706201422851 202.0817598088138 L 42.52460867754591 208.11079981891126 L 43.50102349050003 210.8438107762487 L 44.282155340863326 212.50471475603413 L 44.8680042286358 213.37585083044178 L 45.35621163511286 213.8281623944121 L 45.746777560294504 213.99957353022478 L 46.23498496677157 213.96634851196893 L 46.62555089195321 213.73746822973615 L 47.01611681713486 213.3273100763698 L 47.5043242236119 212.56128541755302 L 48.09017311138439 211.27981313331966 L 48.773663480452264 209.31330322881564 L 49.65243681211097 206.12199223096195 L 50.7264931063605 201.4254143253196 L 53.06988865745038 189.9413398859909 L 54.33922791429074 184.3136874063321 L 55.21800124594944 181.17558811839007 L 55.90149161501733 179.32372375762722 L 56.4873405027898 178.21587564890297 L 56.97554790926686 177.662094118716 L 57.366113834448505 177.47357444231517 L 57.756679759630146 177.51789612638348 L 58.04960420351638 177.70605451145366 L 58.440170128698036 178.16429851304633 L 58.928377535175095 179.06795875605073 L 59.51422642294756 180.6252233041363 L 60.19771679201544 183.05759061451246 L 60.97884864237873 186.56516629676324 L 62.052904936628266 192.40646108037475 L 63.81045159994568 203.3551526920963 L 65.56799826326308 213.8961369212033 L 66.5444130762172 218.6524299742534 L 67.3255449265805 221.55926162180668 L 67.91139381435298 223.1106527149515 L 68.39960122083004 223.94940403889868 L 68.79016714601168 224.30689765057494 L 69.07990359945978 224.38676622789922 L 69.47365751507957 224.2381777805916 L 69.7665819589658 223.9342538754933 L 70.15714788414743 223.27294218347933 L 70.6453552906245 222.04045823062296 L 71.23120417839696 219.98639171530192 L 71.91469454746485 216.84956765000453 L 72.79346787912355 211.78953551804935 L 73.9651656546685 203.67540611228665 L 77.77318342518956 176.06291890146943 L 78.65195675684826 171.6245517071423 L 79.33544712591615 169.13175794568306 L 79.8236545323932 167.93089676828689 L 80.21422045757485 167.34056059188282 L 80.50714490146109 167.1209531645533 L 80.80006934534731 167.09605432936934 L 81.09299378923355 167.26764768136727 L 81.38591823311981 167.63628080322536 L 81.77648415830143 168.43290394277676 L 82.2646915647785 169.91112639106012 L 82.85054045255096 172.36665441167574 L 83.53403082161886 176.10593745712683 L 84.41280415327755 182.12076419422758 L 85.5845019288225 191.7355285224713 L 89.29487821804814 223.58878995737996 L 90.17365154970685 228.95404524294966 L 90.85714191877473 232.02241609619608 L 91.4429908065472 233.77801453106312 L 91.83355673172885 234.46912905329106 L 92.12648117561508 234.72711003639446 L 92.41940561950132 234.7582042828779 L 92.71233006338755 234.56058904119874 L 93.00525450727379 234.1338774412099 L 93.39582043245545 233.21060042243454 L 93.88402783893251 231.49703258453047 L 94.46987672670497 228.65165026147508 L 95.15336709577285 224.32189637239236 L 96.03214042743154 217.3646171050841 L 97.20383820297651 206.25923745215468 L 100.91421449220215 169.57483787134606 L 101.79298782386084 163.40677342859826 L 102.47647819292874 159.87744760422694 L 103.0623270807012 157.85399095176024 L 103.45289300588286 157.0532421388104 L 103.74581744976908 156.7501705288908 L 104.03874189365531 156.70614581024842 L 104.33166633754156 156.92307178420594 L 104.6245907814278 157.40121635322294 L 105.01515670660943 158.44246004731 L 105.50336411308649 160.38092762971542 L 106.08921300085896 163.60447251588243 L 106.77270336992686 168.51258357222912 L 107.65147670158555 176.39977597963033 L 108.8231744771305 188.98544362398817 L 112.43590928506073 229.63420224740702 L 113.31468261671942 236.82887630695873 L 113.99817298578732 241.02482057617456 L 114.58402187355979 243.5089024476662 L 115.07222928003685 244.73619439921114 L 115.36515372392309 245.0910679622832 L 115.5754223536576 245.16642835301556 L 115.85336113040015 245.03437543513954 L 116.14628557428638 244.6091645342523 L 116.53685149946803 243.58766116225607 L 117.02505890594509 241.59192062539424 L 117.61090779371754 238.18084223153363 L 118.29439816278544 232.89608289127077 L 119.17317149444415 224.29466398146707 L 120.24722778869368 211.65364600856807 L 124.34817000310096 160.84913757525297 L 125.12930185346427 154.21282883143448 L 125.81279222253214 149.9365150942036 L 126.3009996290092 147.85503669967326 L 126.69156555419083 146.80852384229587 L 126.9844899980771 146.3951436546209 L 127.21221527980042 146.29698880031165 L 127.47269740455413 146.42575812363563 L 127.76562184844036 146.8783418791495 L 128.15618777362204 147.98621670682692 L 128.64439518009908 150.1686314787748 L 129.23024406787155 153.91472841848213 L 129.91373443693942 159.73261362829385 L 130.79250776859814 169.2161810258084 L 131.86656406284766 183.1676478681028 L 135.96750627725496 239.32855894938808 L 136.74863812761825 246.68824880570622 L 137.43212849668615 251.4455057239812 L 137.9203359031632 253.77387090205693 L 138.31090182834484 254.95647432816907 L 138.6038262722311 255.43505824749545 L 138.79910923482188 255.55688926831584 L 139.09203367870813 255.44174667605571 L 139.38495812259438 254.96849449875998 L 139.775524047776 253.78306540656422 L 140.26373145425308 251.4246650376107 L 140.84958034202555 247.35564522432992 L 141.53307071109344 241.01736097529903 L 142.41184404275216 230.66516467708666 L 143.48590033700168 215.41443517617782 L 147.68448403270438 152.75430518516993 L 148.46561588306767 144.9191994096563 L 149.14910625213554 139.930609592554 L 149.6373136586126 137.54756660359158 L 150.02787958379426 136.38849977242074 L 150.32080402768048 135.96670540223806 L 150.49230773806877 135.89990913542306 L 150.71136995286216 136.0090778490511 L 151.00429439674835 136.49628501768768 L 151.2972188406346 137.37250617646708 L 151.68778476581625 139.13889651947727 L 152.17599217229332 142.28443193043086 L 152.7618410600658 147.3689916278952 L 153.54297291042906 156.17423989073308 L 154.5193877233832 169.90350920694374 L 155.88636846151897 192.52110654877637 L 158.52268845649508 236.7674894763639 L 159.4991032694492 249.75646838614193 L 160.2802351198125 257.73673440602454 L 160.86608400758496 262.05898225294976 L 161.354291414062 264.47191118537603 L 161.74485733924368 265.5873542238579 L 162.0377817831299 265.9372924644742 L 162.23306474572072 265.93649049812626 L 162.42834770831155 265.7477763659491 L 162.7212721521978 265.11260361092025 L 163.11183807737942 263.6127896146709 L 163.60004548385652 260.7082480741624 L 164.18589437162896 255.7721148006989 L 164.86938474069686 248.15820272777407 L 165.74815807235555 235.8163236367583 L 166.8222143666051 217.75402054360586 L 170.82551509971694 147.15155968258915 L 171.70428843137566 136.51299354518682 L 172.38777880044353 130.53634705893825 L 172.8759862069206 127.63979949157084 L 173.26655213210225 126.19240531798863 L 173.5594765759885 125.62800047520079 L 173.77798818709567 125.5015798884939 L 173.95004250117015 125.58009260248116 L 174.14532546376097 125.85951720307315 L 174.4382499076472 126.65724899226831 L 174.82881583282884 128.42162738090872 L 175.31702323930588 131.7294743949638 L 175.90287212707838 137.24659752022797 L 176.58636249614622 145.6534088065507 L 177.46513582780494 159.15451387304407 L 178.63683360334988 180.65924678725116 L 182.24956841128014 249.79929091895642 L 183.12834174293886 262.0133671255237 L 183.81183211200673 269.1541687767256 L 184.39768099977917 273.40877954904175 L 184.88588840625624 275.54534848799733 L 185.1788128501425 276.19108858512897 L 185.42222742546977 276.3591264817671 L 185.66702025661954 276.1888646004688 L 185.9599447005058 275.53781526448233 L 186.35051062568743 273.9162889890353 L 186.83871803216448 270.700117718804 L 187.42456691993695 265.16357256326955 L 188.10805728900482 256.5563457944094 L 188.98683062066357 242.5270833605624 L 190.06088691491306 221.90647256482077 L 194.16182912932038 139.1352695690486 L 194.9429609796837 128.29804468862756 L 195.62645134875154 121.2782193263983 L 196.11465875522862 117.82586164837369 L 196.50522468041024 116.05509278926297 L 196.79814912429651 115.32134369578131 L 196.9934320868873 115.11892982714807 L 197.18871504947816 115.14722881203755 L 197.38399801206896 115.40664527493391 L 197.6769224559552 116.22841989644098 L 198.06748838113685 118.1254269905042 L 198.5556957876139 121.75842589921672 L 199.1415446753864 127.8917009722137 L 199.82503504445424 137.30903020352105 L 200.70380837611293 152.51692039004467 L 201.8755061516579 176.85251464331193 L 205.58588244088355 257.43037583655064 L 206.46465577254224 271.10903986251725 L 207.14814614161014 279.0396504973197 L 207.7339950293826 283.7046077380627 L 208.12456095456426 285.65014768775904 L 208.41748539845048 286.47856868351107 L 208.6127683610413 286.72641534593623 L 208.80805132363213 286.7292511822262 L 209.00333428622295 286.48658515510624 L 209.29625873010917 285.6628741038676 L 209.68682465529082 283.712837319595 L 210.17503206176792 279.93340194986354 L 210.76088094954036 273.51036803272757 L 211.44437131860826 263.6071301659416 L 212.32314465026695 247.5665383529637 L 213.4948424258119 221.83397836245877 L 217.20521871503755 136.2684605085031 L 218.08399204669624 121.6598902879943 L 218.76748241576414 113.15331962059025 L 219.35333130353658 108.11388336859443 L 219.84153871001365 105.6108762809153 L 220.1344631538999 104.873915931363 L 220.35867971389789 104.70283609626495 L 220.52502907908155 104.79713443550577 L 220.72031204167237 105.14848594675118 L 221.0132364855586 106.16155887276136 L 221.40380241074024 108.41133981301698 L 221.89200981721729 112.63661357012404 L 222.47785870498979 119.68859609116254 L 223.16134907405768 130.43493969892802 L 224.04012240571635 147.68764250536623 L 225.2118201812613 175.14893235735877 L 228.8245549891915 263.2878120320981 L 229.70332832085026 278.8405485813761 L 230.38681868991816 287.9362642519667 L 230.9726675776906 293.36257264496743 L 231.46087498416762 296.0971768254949 L 231.7537994280539 296.931586245699 L 231.94908239064472 297.14708060618625 L 232.14436535323554 297.0885811672375 L 232.33964831582634 296.75576705978904 L 232.63257275971262 295.74337916806246 L 233.02313868489423 293.4439282045108 L 233.51134609137125 289.07614716222304 L 234.09719497914378 281.7386344551105 L 234.78068534821165 270.5105123223957 L 235.6594586798704 252.42893481819 L 236.8311564554153 223.57286015580067 L 240.44389126334556 130.54638919359934 L 241.32266459500423 114.03539939690262 L 242.00615496407212 104.33745649081368 L 242.5920038518446 98.51194562621129 L 243.08021125832164 95.53491403364285 L 243.37313570220786 94.59639844030397 L 243.5684186647987 94.32915927266527 L 243.76370162738957 94.35021429723201 L 243.95898458998036 94.65998829638903 L 244.2519090338666 95.66495359489653 L 244.64247495904826 98.00518709420282 L 245.1306823655253 102.50465807476888 L 245.7165312532978 110.11539399185449 L 246.40002162236564 121.81224972028502 L 247.27879495402433 140.70867707430875 L 248.4504927295693 170.94686161654354 L 252.16086901879495 271.02407294839884 L 253.03964235045365 288.0179223600316 L 253.72313271952154 297.8819592399726 L 254.30898160729402 303.6985452413022 L 254.69954753247566 306.1367307252445 L 254.99247197636188 307.1859973046324 L 255.1877549389527 307.5094555282143 L 255.38303790154353 307.530340243938 L 255.57832086413435 307.2481103250621 L 255.8712453080206 306.2573125455583 L 256.26181123320225 303.8852039411484 L 256.7500186396793 299.2649012310035 L 257.33586752745174 291.3933205112012 L 258.01935789651964 279.2408880272335 L 258.89813122817833 259.5438187898253 L 259.9721875224279 230.7401711675657 L 263.9754882555398 118.44583184126492 L 264.8542615871985 101.54339887895895 L 265.53775195626633 92.03061385029156 L 266.0259593627434 87.40077187029527 L 266.416525287925 85.06661783087605 L 266.70944973181133 84.13558982892039 L 266.9461660195984 83.90257436087927 L 267.1000156569929 84.0011223117624 L 267.2952986195838 84.41002882396543 L 267.58822306347 85.61703990469675 L 267.9787889886516 88.32418232338989 L 268.4669963951287 93.43306439606795 L 269.05284528290116 101.98190090220083 L 269.73633565196906 115.02817708708812 L 270.6151089836278 135.99109490962206 L 271.7868067591727 169.3740226458761 L 275.399541567103 276.56951325577757 L 276.27831489876166 295.50878596849003 L 276.96180526782956 306.60294759751446 L 277.547654155602 313.24143672089156 L 278.03586156207905 316.60928134108417 L 278.3287860059653 317.6538526585274 L 278.5240689685561 317.9377806227448 L 278.71935193114695 317.8901308720608 L 278.91463489373774 317.5105523770303 L 279.207559337624 316.32031815744836 L 279.59812526280564 313.5846301297762 L 280.0863326692827 308.35878577693217 L 280.6721815570552 299.5532305862124 L 281.355671926123 286.0553488745534 L 282.2344452577818 264.29535820068276 L 283.4061430333267 229.54505847774413 L 287.01887784125694 117.42260173088863 L 287.8976511729157 97.48987495674982 L 288.5811415419835 85.7612541480363 L 289.166990429756 78.69345316397443 L 289.65519783623307 75.05690916574281 L 289.9481222801193 73.89215581593447 L 290.1434052427101 73.5456971743605 L 290.33868820530097 73.5450965754564 L 290.53397116789176 73.89083889637277 L 290.826895611778 75.05754032298432 L 291.21746153695966 77.81284314347312 L 291.7056689434367 83.14474872017394 L 292.2915178312092 92.19457381444272 L 292.9750082002771 106.13079824110878 L 293.85378153193574 128.67348544016892 L 295.02547930748074 164.777921266285 L 298.7358555967064 284.4124270237796 L 299.61462892836505 304.7696953566698 L 300.29811929743295 316.6108986211549 L 300.88396818520545 323.6197201115632 L 301.27453411038704 326.5786931743069 L 301.5674585542733 327.8702535319759 L 301.76274151686414 328.2837106651016 L 301.958024479455 328.33705596018757 L 302.1533074420458 328.0296582640617 L 302.44623188593204 326.893251476728 L 302.8367978111137 324.12728271572325 L 303.32500521759073 318.7002555266 L 303.91085410536317 309.41867813839593 L 304.59434447443107 295.057482992489 L 305.47311780608976 271.74665583632645 L 306.5471741003393 237.62435812450008 L 310.5504748334512 104.38790910493918 L 311.42924816510987 84.27824007938267 L 312.11273853417777 72.93009154025981 L 312.6009459406548 67.38223633039235 L 312.9915118658365 64.56230801176571 L 313.2844363097227 63.41572078348224 L 313.47971927231356 63.11780791931767 L 313.67500223490435 63.19475609780699 L 313.8702851974952 63.646835097859366 L 314.1632096413814 65.0263514853346 L 314.55377556656305 68.16274874458247 L 315.0419829730401 74.12129845404905 L 315.6278318608126 84.1287806250728 L 316.3113222298805 99.43508195606654 L 317.1900955615392 124.06634061832995 L 318.3617933370841 163.33520962491085 L 321.97452814501435 289.642622057023 L 322.85330147667304 312.0158772699013 L 323.53679184574094 325.151766824147 L 324.1226407335134 333.0427713685183 L 324.6108481399905 337.078987294223 L 324.90377258387673 338.3551906477829 L 325.0990555464675 338.72194642856596 L 325.18548324462915 338.7600894229632 L 325.2943385090584 338.6995586937824 L 325.4896214716492 338.28760631489746 L 325.7825459155354 336.9409834132848 L 326.17311184071707 333.7972216735762 L 326.6613192471941 327.74736265577695 L 327.2471681349666 317.5121546796309 L 327.93065850403445 301.7846980237491 L 328.8094318356932 276.3886137501853 L 329.9811296112381 235.7804939483823 L 333.69150590046377 101.62955407448118 L 334.57027923212246 78.88379653112514 L 335.25376960119036 65.68227764199406 L 335.8396184889628 57.893698190190264 L 336.23018441414445 54.62374941752432 L 336.5231088580307 53.211311351799225 L 336.71839182062155 52.771245928442 L 336.8337719739887 52.70075770453565 L 336.91367478321234 52.734577419950654 L 337.10895774580314 53.101890736830796 L 337.40188218968945 54.40884758993491 L 337.79244811487104 57.55100195110356 L 338.28065552134814 63.68118827384001 L 338.8665044091206 74.13153458192886 L 339.5499947781885 90.26666912423144 L 340.42876810984717 116.4128546291401 L 341.6004658853921 158.34643132611595 L 345.31084217461773 297.59364766798285 L 346.1896155062764 321.3621431356225 L 346.8731058753443 335.2240067316019 L 347.4589547631168 343.4655255328929 L 347.94716216959387 347.5951083770989 L 348.2400866134801 348.839670785052 L 348.48216827083996 349.16087726839976 L 348.63065253866176 349.0399143494132 L 348.8259355012526 348.5126393644845 L 349.1188599451388 346.93982901103095 L 349.5094258703205 343.3974709556004 L 349.99763327679756 336.6998897166008 L 350.58348216457 325.4833824641818 L 351.2669725336379 308.36128240337354 L 352.1457458652966 280.8510742363153 L 353.31744364084153 237.05721840440185 L 356.93017844877176 96.57613404371205 L 357.80895178043045 71.7714139905932 L 358.49244214949834 57.23647155083012 L 359.07829103727084 48.529888558477296 L 359.5664984437479 44.10062161805956 L 359.85942288763414 42.71700602552153 L 360.05470585022493 42.33265661136028 L 360.1306613852386 42.299924223984874 L 360.24998881281573 42.38073677218682 L 360.4452717754066 42.86159638924022 L 360.73819621929283 44.39215722477769 L 361.1287621444745 47.92963955273029 L 361.6169695509515 54.70379690072508 L 362.20281843872397 66.1315168021278 L 362.8863088077919 83.65763159554092 L 363.7650821394506 111.9148690582528 L 364.9367799149955 157.03320819172663 L 368.5495147229258 302.505383833316 L 369.42828805458447 328.35963425166585 L 370.1117784236523 343.5802799538632 L 370.6976273114248 352.7639826827628 L 371.18583471790186 357.5036233966925 L 371.4787591617881 359.0329046273187 L 371.6740421243789 359.49687557010907 L 371.7792419532857 359.56175189218135 L 371.86932508696975 359.5141628016769 L 372.0646080495606 359.0842351539659 L 372.3575324934468 357.6027073691719 L 372.7480984186285 354.0790959669212 L 373.23630582510555 347.23938730624025 L 373.82215471287793 335.613112543065 L 374.5056450819459 317.69656636737614 L 375.3844184136046 288.70719229074183 L 376.5561161891496 242.27842881592315 L 380.2664924783752 88.49828939893047 L 381.1452658100339 62.32889374581475 L 381.82875617910173 47.095569773303396 L 382.4146050668743 38.06401293192965 L 382.9028124733513 33.5635113894881 L 383.19573691723747 32.22501542906514 L 383.3910198798283 31.90724513367047" stroke-linecap="round" stroke-linejoin="round" stroke-miterlimit="10" stroke-width="2.5" stroke-opacity="0.9" stroke-dasharray=""/></g></g></g><g id="labels-3d59c748"/></g></svg>